<svg width="197" height="159" viewBox="0 0 197 159" fill="none" xmlns="http://www.w3.org/2000/svg">
<path d="M37.6764 158.377C35.9444 158.044 33.5872 157.08 32.1493 156.116C29.1205 154.086 28.9604 153.763 25.1099 141.917C23.2182 136.097 20.7448 128.497 19.6134 125.027C16.3227 114.935 9.24379 92.3169 8.77413 90.394C8.55042 89.4781 8.72852 89.4884 10.1788 90.4753C16.2179 94.5846 28.6779 98.6255 39.6406 100.03C48.1183 101.116 61.4068 101.257 68.5785 100.336C81.4141 98.688 93.1926 94.5743 102.004 88.662C108.063 84.5973 111.509 80.2536 113.509 74.162C114.176 72.13 114.244 71.5706 114.26 67.9846L114.277 64.0417L113.236 61.1024C112.076 57.8258 112.059 58.2483 113.509 54.1842C114.053 52.659 114.242 51.5581 114.342 49.3211C114.497 45.8813 114.18 43.5994 113.074 40.1677L112.254 37.6247L113.074 35.5829C114.202 32.7726 114.489 30.7417 114.314 26.8024C114.187 23.9601 114.031 23.0568 113.247 20.6302C112.742 19.0668 112.413 17.7081 112.517 17.6108C112.718 17.4225 118.712 15.4846 133.133 10.9458C138.03 9.40438 144.979 7.19024 148.575 6.02546L155.114 3.90767L157.872 4.0452C160.892 4.19578 162.33 4.59076 163.943 5.71258C165.54 6.82362 167.76 9.11219 168.316 10.2203C168.587 10.7622 170.427 16.2328 172.405 22.3773C174.382 28.5218 176.941 36.4472 178.09 39.9894C181.972 51.9499 182.72 54.292 185.777 64.0417C187.454 69.391 189.338 75.3646 189.964 77.3164C191.624 82.4949 194.751 92.8497 195.482 95.5856C195.961 97.3803 196.114 98.6235 196.114 100.735C196.115 103.329 196.059 103.632 195.296 105.165C194.349 107.068 191.806 109.915 190.221 110.847C189.619 111.201 188.431 111.717 187.58 111.995C179.305 114.695 155.799 122.219 151.333 123.597C147.877 124.663 131.941 129.674 126.716 131.337C122.499 132.68 95.9256 141.115 81.8036 145.594C77.9147 146.827 73.3187 148.279 71.5902 148.819C69.8618 149.36 64.4409 151.076 59.5437 152.634C54.6465 154.191 48.5774 156.105 46.0567 156.886C41.7039 158.237 39.2344 158.676 37.6764 158.377ZM45.5403 139.917C47.7688 139.215 53.5989 137.368 58.4961 135.812C71.7122 131.614 78.6066 129.449 86.9103 126.89C100.622 122.663 105.044 121.282 115.455 117.971C121.145 116.162 128.098 113.953 130.906 113.061C136.967 111.138 140.024 109.999 140.691 109.417C141.094 109.066 141.155 108.74 141.04 107.546C140.866 105.736 138.381 98.0719 137.677 97.1735C136.808 96.0643 137.48 95.9153 123.312 100.36C118.487 101.873 113.125 103.568 111.396 104.126C109.668 104.684 104.424 106.343 99.7425 107.813C95.0613 109.283 88.6976 111.295 85.6008 112.283C82.5041 113.272 76.3761 115.224 71.983 116.622C67.5899 118.02 60.8726 120.175 57.0557 121.411C53.2388 122.647 49.3102 123.875 48.3256 124.139C44.2175 125.243 37.441 127.559 36.7689 128.089C36.1301 128.594 36.0629 128.786 36.194 129.735C36.5428 132.26 38.9428 139.419 39.8127 140.529C40.099 140.894 40.5932 141.193 40.9109 141.193C41.2286 141.193 43.3118 140.619 45.5403 139.917ZM138.386 63.6296C143.26 62.3556 155.556 58.4858 161.023 56.5054C164.084 55.3966 165.209 54.2378 165.967 51.4111C166.208 50.513 166.151 49.9669 165.595 47.8638C164.382 43.2705 158.81 26.2249 157.496 23.0893C156.985 21.8696 155.235 20.6835 153.329 20.266C152.053 19.9862 151.748 20.0432 147.012 21.4474C141.589 23.0555 134.354 25.3832 128.825 27.299C124.938 28.6455 123.613 29.5508 122.753 31.4462C121.822 33.4981 122.045 34.6118 125.802 46.6925C128.277 54.6511 130.058 59.8875 130.797 61.386C131.532 62.8737 133.672 64.1352 135.506 64.1615C135.947 64.1678 137.243 63.9285 138.386 63.6296ZM45.257 95.1852C41.2137 94.9024 37.563 94.3651 33.5422 93.4612C17.3972 89.8313 6.1808 83.1998 1.98013 74.8004C1.0154 72.8714 0.489202 70.5632 0.489202 68.2603C0.489202 66.412 0.898812 63.9102 1.20142 63.9102C1.27087 63.9102 2.22912 64.6401 3.33086 65.5322C9.01465 70.1346 18.1429 74.7371 26.6259 77.2778C42.1494 81.9271 66.8135 81.8806 82.986 77.1716C92.304 74.4585 99.6264 70.7039 105.729 65.5103C106.933 64.4857 108.004 63.6474 108.11 63.6474C108.384 63.6474 108.86 65.3707 109.061 67.0917C109.268 68.862 108.651 72.2281 107.741 74.2933C105.552 79.2617 100.005 84.2006 92.5407 87.828C85.434 91.2815 76.8093 93.7455 68.0547 94.8235C64.1538 95.3038 50.1339 95.5262 45.257 95.1852ZM48.6755 75.0413C33.1653 73.9837 20.5227 70.3812 11.6192 64.482C8.56509 62.4584 4.76337 58.8516 3.20586 56.5C1.50775 53.936 0.447167 50.7586 0.426565 48.1734C0.412328 46.389 0.915599 43.1438 1.20653 43.1438C1.26715 43.1438 2.33849 44.0105 3.58727 45.0698C12.4008 52.5462 22.144 56.5676 37.4146 59.0314C44.6983 60.2066 46.8512 60.3616 55.8772 60.3606C62.7575 60.3598 65.2401 60.2622 68.0547 59.8816C75.4526 58.8813 83.5252 56.9115 88.8744 54.8014C94.8654 52.4382 102.156 48.3358 106.284 45.0052C107.603 43.941 108.3 43.5292 108.416 43.7443C108.881 44.6001 109.209 47.294 109.041 48.8691C108.655 52.4847 107.277 55.532 104.651 58.5777C95.708 68.9491 76.0494 75.3925 54.0441 75.165C51.7395 75.1412 49.3236 75.0855 48.6755 75.0413ZM46.1876 54.4221C33.5288 53.3868 22.6357 50.4645 14.7618 45.9915C7.17634 41.6823 3.4955 38.0788 1.32164 32.8338C0.721803 31.3866 0.636508 30.8112 0.628864 28.1604C0.618246 24.4499 1.27031 22.1627 3.13842 19.3592C4.71534 16.9926 8.64905 13.1697 11.3573 11.3717C20.7434 5.14029 36.1265 1.01148 51.3475 0.638325C61.2381 0.395848 70.4826 1.31576 78.661 3.35623C94.9458 7.41925 105.83 14.9745 108.542 24.0972C109.211 26.3499 109.15 29.8946 108.403 32.1034C105.829 39.7165 97.2004 46.1831 83.6841 50.6293C77.6626 52.6101 71.3581 53.8472 64.2575 54.4415C60.6181 54.746 50.0092 54.7347 46.1876 54.4221Z" fill="url(#paint0_linear_508_364)"/>
<defs>
<linearGradient id="paint0_linear_508_364" x1="16.6591" y1="-16.7149" x2="193.281" y2="159.907" gradientUnits="userSpaceOnUse">
<stop stop-color="#C59EDD"/>
<stop offset="0.244792" stop-color="#7C77B8"/>
<stop offset="0.53125" stop-color="#6F85B3"/>
<stop offset="1" stop-color="#4AADA7"/>
</linearGradient>
</defs>
</svg>
