<svg width="31" height="28" viewBox="0 0 31 28" fill="none" xmlns="http://www.w3.org/2000/svg">
<path d="M9.87174 27.6524C9.4056 27.5875 9.04236 27.4071 8.71144 27.0762C7.67295 26.0375 8.08309 24.2781 9.47607 23.796C9.74657 23.7023 10.2492 23.6822 10.5485 23.753C11.8562 24.0622 12.4806 25.6139 11.7528 26.7455C11.3499 27.3721 10.5676 27.7492 9.87174 27.6524ZM22.3361 27.6434C21.6858 27.5253 21.1518 27.1333 20.8654 26.5638C20.7297 26.294 20.6776 26.0519 20.6772 25.6893C20.6765 25.0938 20.8367 24.704 21.2538 24.2867C21.773 23.7673 22.4281 23.5887 23.1412 23.7723C23.5083 23.8667 23.7158 23.9891 24.0142 24.2869C24.4135 24.6855 24.5908 25.1174 24.59 25.6893C24.5891 26.3305 24.3181 26.8731 23.8012 27.2685C23.4104 27.5674 22.7907 27.726 22.3361 27.6434ZM8.51047 22.7222C7.83778 22.6632 7.1387 22.3449 6.73227 21.9125C6.28952 21.4414 6.1658 21.1135 5.99327 19.9537C5.92612 19.5022 5.79482 18.6244 5.7015 18.0028C5.60818 17.3813 5.47079 16.4644 5.39619 15.9653C5.32159 15.4662 5.17754 14.5031 5.07608 13.825C4.97463 13.147 4.82042 12.1145 4.7334 11.5307C4.64638 10.9468 4.49304 9.92203 4.39265 9.25341C4.29225 8.58479 4.13897 7.56003 4.05201 6.97616C3.49266 3.22024 3.49865 3.2538 3.3347 2.96498C3.22452 2.77087 2.94505 2.52602 2.75042 2.45306C2.61669 2.40292 2.43119 2.38915 1.67012 2.37285L0.751263 2.35318L0.547076 2.25045C0.0748448 2.01285 -0.0944398 1.46976 0.122157 0.887244C0.212474 0.64434 0.293188 0.543334 0.490006 0.426911L0.649167 0.332764L2.28268 0.33282C3.95774 0.332877 4.1461 0.344772 4.56982 0.477267C4.95953 0.599126 5.22774 0.914594 5.35799 1.4043C5.39661 1.54949 5.49049 2.13829 5.56661 2.71274C5.64273 3.28719 5.71414 3.81498 5.7253 3.88561L5.7456 4.01403H16.8709C24.5192 4.01403 28.0979 4.02543 28.3215 4.05052C29.0223 4.12916 29.4688 4.30429 29.8001 4.63055C30.2243 5.04817 30.3866 5.68231 30.257 6.4152C30.2071 6.69715 30.1628 6.85521 29.8548 7.84939C29.7702 8.12249 29.6297 8.57708 29.5426 8.8596C29.4555 9.14211 29.3151 9.59671 29.2308 9.86981C29.1464 10.1429 28.978 10.69 28.8564 11.0855C28.6472 11.7662 28.5474 12.0902 28.1866 13.26C27.8701 14.2862 27.7191 14.7762 27.4321 15.7085C27.2697 16.2358 27.0907 16.7547 27.0344 16.8614C26.7145 17.4681 26.1238 17.9244 25.3902 18.1314L25.1179 18.2083L16.444 18.2173L7.77004 18.2263L7.79102 18.3543C7.80256 18.4247 7.85868 18.7982 7.91574 19.1843C8.00084 19.7601 8.0378 19.9243 8.12139 20.0981C8.24665 20.3584 8.49206 20.5893 8.75886 20.6977L8.95289 20.7766L17.7671 20.7938L26.5813 20.8109L26.7218 20.8865C26.9165 20.9913 27.1243 21.2399 27.1808 21.4355C27.2395 21.6388 27.2392 22.0016 27.1804 22.175C27.0849 22.4558 26.8416 22.6411 26.4805 22.7083C26.3382 22.7348 23.7086 22.744 17.4632 22.7399C12.6141 22.7367 8.58534 22.7288 8.51047 22.7222ZM24.7451 16.1972C25.104 16.0735 25.3859 15.8046 25.4717 15.5042C25.4881 15.447 25.6962 14.7685 25.9342 13.9962C26.1722 13.224 26.3898 12.5152 26.4178 12.421C26.4458 12.3268 26.5991 11.826 26.7586 11.3081C26.918 10.7901 27.0756 10.2739 27.1088 10.1609C27.142 10.0479 27.3232 9.45459 27.5115 8.84248C27.9552 7.40024 28.0299 7.10614 28.0345 6.7833C28.0402 6.37653 27.9089 6.22354 27.4293 6.07833C27.2382 6.02046 26.682 6.01686 16.6317 6.00833L6.03545 5.99935L6.05574 6.11107C6.0669 6.17252 6.13025 6.63116 6.19648 7.13027C6.26272 7.62938 6.37721 8.47692 6.4509 9.01371C6.52459 9.55048 6.65505 10.5059 6.74082 11.1369C6.82658 11.7678 6.95705 12.7232 7.03073 13.26C7.10443 13.7968 7.21891 14.6443 7.28515 15.1434C7.35139 15.6425 7.41471 16.1011 7.42587 16.1625L7.44617 16.2742L16.0098 16.2653C24.0213 16.2569 24.5845 16.2525 24.7451 16.1972Z" fill="#F2F2F2"/>
</svg>
