<svg width="186" height="178" viewBox="0 0 186 178" fill="none" xmlns="http://www.w3.org/2000/svg">
<path d="M45.717 177.517C41.4834 176.744 38.0843 174.838 34.6723 171.323C32.2471 168.825 31.5659 167.774 30.2462 164.496L29.5151 162.68L24.7861 162.523L20.0572 162.365L18.8969 161.114L17.7366 159.864V153.453V147.041H16.8567C15.9166 147.041 14.9758 146.534 13.7512 145.367L13.0954 144.743L13.0962 118.196C13.0971 88.7708 13.1394 86.7978 13.7892 85.8335C14.4288 84.8844 15.6177 84.2915 16.889 84.2876C18.1283 84.2837 18.9473 84.644 20.0068 85.6591L20.7635 86.3841V112.879V139.373H71.8168H122.87V104.262V69.1499L105.667 69.1435C96.128 69.1401 87.8133 69.0527 87.0025 68.9474C84.9957 68.6867 84.4004 68.3363 83.81 67.0683C82.9516 65.2246 83.3332 63.6044 84.9522 62.2185L85.8332 61.4644L106.924 61.5235C122.665 61.5676 128.152 61.6434 128.551 61.8223C129.407 62.206 130.126 63.119 130.426 64.2059C130.803 65.5662 130.938 69.0897 130.94 77.5746L130.942 84.6877H141.717H152.492L153.13 85.4154C154.255 86.6961 157.639 92.1422 163.03 101.349C167.335 108.701 166.391 107.663 172.84 112.137C181.739 118.311 182.993 119.393 184.331 122.05C185.478 124.328 185.499 124.694 185.513 143.106L185.526 159.855L185.022 160.755C183.964 162.644 183.716 162.698 175.336 162.897C172.395 162.967 169.843 163.101 169.666 163.196C169.489 163.29 169.182 163.803 168.983 164.335C167.978 167.027 165.429 170.905 163.702 172.37C159.677 175.784 156.139 177.37 151.954 177.637C144.569 178.106 137.396 173.725 133.495 166.359C133.097 165.608 132.665 164.637 132.534 164.201C132.404 163.765 132.151 163.34 131.972 163.258C131.553 163.064 107.455 162.832 84.8778 162.803L67.1656 162.781L66.9608 163.336C65.9602 166.049 65.5539 166.901 64.5409 168.412C61.5626 172.853 57.8851 175.628 53.151 177.005C51.1413 177.589 47.4919 177.84 45.717 177.517ZM51.0755 169.552C52.948 169.218 54.4094 168.574 55.7987 167.469C56.9786 166.531 58.5006 164.354 58.9861 162.91C59.7651 160.595 59.8612 157.392 59.224 154.982C58.5448 152.413 56.3494 149.715 53.9944 148.556C49.1959 146.195 43.2585 147.072 39.8938 150.639C37.8168 152.84 36.9236 155.741 37.1805 159.452C37.4145 162.832 38.2208 164.711 40.32 166.769C43.0396 169.436 46.5843 170.353 51.0755 169.552ZM154.027 169.445C154.885 169.226 156.128 168.758 156.79 168.405C159.101 167.173 161.328 164.144 161.816 161.567C162.077 160.192 162.075 156.681 161.812 155.292C161.377 152.992 158.811 149.691 156.577 148.559C154.328 147.419 150.688 146.975 148.094 147.523C144.902 148.198 142.394 149.959 140.951 152.541C139.941 154.346 139.619 155.799 139.619 158.544C139.619 162.379 140.346 164.321 142.643 166.618C143.366 167.341 144.429 168.184 145.005 168.491C147.486 169.813 151.096 170.195 154.027 169.445ZM132.541 153.088C132.921 151.962 133.708 150.209 134.29 149.192L135.348 147.344L131.985 147.239C127.478 147.099 77.2978 147.094 69.8657 147.234C66.6284 147.294 63.9109 147.413 63.8267 147.497C63.7425 147.582 63.9118 147.9 64.203 148.204C64.8106 148.838 66.3618 152.04 66.8902 153.749L67.2483 154.908L79.6726 154.96C86.5059 154.989 101.041 155.04 111.973 155.073L131.85 155.135L132.541 153.088ZM177.556 151.063V147.013L172.023 147.077C168.98 147.113 166.434 147.199 166.365 147.268C166.296 147.337 166.696 148.155 167.255 149.084C167.814 150.014 168.607 151.701 169.018 152.834L169.765 154.894L170.886 154.965C171.502 155.005 173.255 155.054 174.781 155.075L177.556 155.113V151.063ZM30.2372 152.628C30.5749 151.761 31.3511 150.181 31.962 149.117C32.5729 148.053 33.0728 147.151 33.0728 147.112C33.0728 147.073 31.3702 147.041 29.2892 147.041L25.5056 147.041L25.5643 150.623C25.5966 152.593 25.6605 154.315 25.7063 154.449C25.7608 154.609 26.4015 154.714 27.5646 154.752C28.9854 154.799 29.3679 154.75 29.4814 154.508C29.5593 154.341 29.8995 153.495 30.2372 152.628ZM177.554 132.765C177.554 128.937 177.468 125.847 177.349 125.422C177.138 124.66 175.945 123.784 164.09 115.689L161.219 113.729L159.247 110.38C158.163 108.538 155.355 103.797 153.007 99.8446L148.738 92.6586L146.146 92.5303C144.72 92.4597 140.716 92.3916 137.248 92.3789L130.942 92.3559V115.865V139.373H154.249H177.556L177.554 132.765ZM37.0077 81.6541C30.0727 81.0389 22.5887 78.0914 16.7276 73.6668C14.7902 72.2042 10.8589 68.3322 8.8634 65.9212C5.72467 62.1289 2.76709 56.2357 1.52039 51.2895C0.502582 47.2514 0.309218 45.6777 0.305705 41.4035C0.302162 37.0932 0.526197 35.2264 1.5153 31.3244C4.24589 20.5523 12.7451 10.1908 23.0841 5.0295C29.8526 1.65062 37.0088 0.39006 45.0794 1.15501C49.4528 1.56954 53.3123 2.6939 57.7759 4.85383C68.6766 10.1287 76.7483 19.9161 79.8812 31.658C81.4253 37.445 81.5151 44.8027 80.1089 50.3103C78.7747 55.5357 76.0604 61.2764 73.0637 65.2104C71.697 67.0046 67.1397 71.5957 65.0568 73.2767C61.4526 76.1854 56.6854 78.6202 51.4358 80.2336C47.3281 81.496 41.592 82.0607 37.0077 81.6541ZM43.858 73.7831C48.3205 73.3599 52.3331 72.2245 56.0042 70.3462C62.177 67.1881 66.7316 62.5827 69.8765 56.3194C72.282 51.5287 73.0808 47.811 73.1028 41.3026C73.1146 37.8549 73.0407 36.5705 72.7432 35.0471C71.613 29.2584 69.455 24.6197 65.7621 20.0407C61.5808 14.8562 54.0878 10.5081 47.2929 9.3232C44.4548 8.82828 39.6873 8.58644 37.0978 8.80603C32.2277 9.21898 25.7838 11.596 21.673 14.4959C19.3451 16.1381 15.3757 20.1072 13.7318 22.4366C11.426 25.7038 9.62474 30.0097 8.62549 34.6435C8.22547 36.4985 8.16858 37.3401 8.16858 41.4035C8.16858 45.4482 8.22632 46.3105 8.61786 48.1129C9.54288 52.3711 11.2822 56.5967 13.449 59.8495C14.8952 62.0205 19.4556 66.6407 21.6855 68.1939C27.8901 72.5155 35.9089 74.5368 43.858 73.7831ZM39.4262 44.9107C38.0738 44.1914 36.3197 42.5562 27.6748 33.9559L19.3509 25.6749V24.1691C19.3509 21.7404 20.1215 20.5939 22.2001 19.9302C22.698 19.7712 23.1973 19.757 23.7689 19.8854C24.8503 20.1284 26.2941 21.4273 34.4345 29.48L40.74 35.7178L44.8292 31.6839C47.0783 29.4652 49.3123 27.3893 49.7937 27.0707C51.4572 25.9699 53.7517 26.4164 54.8338 28.0516C55.279 28.7243 55.3708 29.0905 55.3708 30.1949C55.3708 31.3795 55.2984 31.6253 54.7167 32.4163C52.8825 34.9104 43.4377 44.1767 41.9629 44.9291C40.9455 45.4481 40.4296 45.4443 39.4262 44.9107Z" fill="url(#paint0_linear_508_361)"/>
<defs>
<linearGradient id="paint0_linear_508_361" x1="0.646726" y1="-2.22061" x2="184.752" y2="174.9" gradientUnits="userSpaceOnUse">
<stop stop-color="#C59EDD"/>
<stop offset="0.244792" stop-color="#7C77B8"/>
<stop offset="0.53125" stop-color="#6F85B3"/>
<stop offset="1" stop-color="#4AADA7"/>
</linearGradient>
</defs>
</svg>
