<svg width="269" height="257" viewBox="0 0 269 257" fill="none" xmlns="http://www.w3.org/2000/svg">
<path d="M65.9518 256.775C59.8034 255.653 54.8667 252.881 49.9114 247.769C46.3892 244.136 45.3999 242.609 43.4833 237.842L42.4214 235.201L35.5535 234.971L28.6856 234.742L27.0005 232.924L25.3153 231.105V221.782V212.459H24.0374C22.6721 212.459 21.3058 211.722 19.5273 210.025L18.5748 209.116L18.576 170.513C18.5773 127.723 18.6387 124.854 19.5825 123.452C20.5114 122.072 22.2379 121.21 24.0844 121.204C25.8842 121.198 27.0736 121.722 28.6123 123.198L29.7113 124.252V162.78V201.308H103.857H178.003V150.25V99.1909L153.019 99.1816C139.165 99.1767 127.089 99.0496 125.912 98.8964C122.997 98.5174 122.133 98.0078 121.275 96.1638C120.028 93.4828 120.583 91.1267 122.934 89.1114L124.213 88.0149L154.845 88.1008C177.705 88.1649 185.673 88.2751 186.253 88.5353C187.497 89.0932 188.541 90.4209 188.977 92.0014C189.524 93.9796 189.72 99.1033 189.723 111.442L189.726 121.786H205.374H221.023L221.951 122.844C223.584 124.706 228.498 132.626 236.328 146.014C242.581 156.706 241.209 155.196 250.575 161.702C263.499 170.68 265.321 172.253 267.264 176.117C268.93 179.429 268.96 179.963 268.981 206.737L269 231.093L268.267 232.402C266.731 235.148 266.371 235.227 254.2 235.516C249.929 235.618 246.223 235.813 245.966 235.95C245.709 236.088 245.262 236.834 244.973 237.608C243.514 241.521 239.812 247.161 237.304 249.291C231.459 254.257 226.321 256.563 220.242 256.95C209.516 257.633 199.1 251.261 193.434 240.551C192.856 239.459 192.228 238.046 192.039 237.412C191.849 236.777 191.481 236.16 191.222 236.041C190.613 235.759 155.615 235.421 122.826 235.38L97.1021 235.347L96.8048 236.154C95.3514 240.099 94.7614 241.338 93.2903 243.535C88.9648 249.994 83.6238 254.029 76.7485 256.031C73.8297 256.881 68.5295 257.246 65.9518 256.775ZM73.7342 245.194C76.4537 244.708 78.5761 243.771 80.5937 242.164C82.3073 240.8 84.5177 237.634 85.2228 235.536C86.3542 232.168 86.4937 227.511 85.5684 224.006C84.582 220.27 81.3935 216.347 77.9734 214.662C71.0044 211.228 62.3813 212.504 57.4946 217.69C54.4782 220.892 53.181 225.11 53.5541 230.506C53.8939 235.421 55.065 238.154 58.1138 241.147C62.0634 245.025 67.2114 246.358 73.7342 245.194ZM223.254 245.038C224.499 244.719 226.304 244.039 227.266 243.525C230.622 241.734 233.856 237.329 234.566 233.583C234.944 231.583 234.941 226.477 234.559 224.457C233.928 221.112 230.2 216.312 226.956 214.666C223.69 213.009 218.403 212.362 214.636 213.16C210.001 214.141 206.359 216.702 204.262 220.456C202.796 223.081 202.327 225.195 202.327 229.185C202.327 234.762 203.384 237.587 206.719 240.927C207.769 241.978 209.313 243.203 210.149 243.65C213.753 245.573 218.996 246.129 223.254 245.038ZM192.048 221.251C192.6 219.614 193.743 217.065 194.588 215.587L196.125 212.899L191.24 212.747C184.695 212.542 111.817 212.536 101.024 212.739C96.322 212.827 92.3752 213 92.2529 213.122C92.1307 213.245 92.3766 213.707 92.7994 214.149C93.6819 215.072 95.9348 219.727 96.7022 222.214L97.2223 223.899L115.266 223.974C125.19 224.016 146.3 224.09 162.177 224.139L191.044 224.228L192.048 221.251ZM257.424 218.307V212.417L249.389 212.512C244.969 212.563 241.271 212.688 241.171 212.789C241.071 212.889 241.653 214.078 242.464 215.43C243.276 216.782 244.428 219.236 245.025 220.883L246.109 223.878L247.737 223.982C248.632 224.039 251.178 224.111 253.394 224.141L257.424 224.197V218.307ZM43.4702 220.583C43.9607 219.322 45.088 217.025 45.9752 215.478C46.8625 213.931 47.5884 212.619 47.5884 212.562C47.5884 212.505 45.1156 212.459 42.0934 212.459L36.5984 212.459L36.6837 217.667C36.7306 220.532 36.8233 223.036 36.8898 223.232C36.969 223.464 37.8996 223.616 39.5887 223.672C41.6522 223.74 42.2077 223.669 42.3725 223.316C42.4857 223.074 42.9797 221.844 43.4702 220.583ZM257.422 191.698C257.421 186.132 257.296 181.639 257.125 181.021C256.817 179.912 255.085 178.639 237.868 166.867L233.698 164.016L230.834 159.146C229.259 156.468 225.181 149.574 221.771 143.826L215.572 133.377L211.807 133.19C209.736 133.087 203.921 132.988 198.884 132.97L189.726 132.937V167.122V201.308H223.575H257.424L257.422 191.698ZM53.3032 117.374C43.2313 116.48 32.3621 112.193 23.85 105.759C21.0362 103.632 15.3267 98.0018 12.4286 94.4958C7.87013 88.9812 3.57478 80.4113 1.76418 73.2187C0.285988 67.3466 0.00516213 65.0581 5.97148e-05 58.8427C-0.00508574 52.5747 0.320285 49.8601 1.75679 44.1859C5.72247 28.5213 18.0661 13.4538 33.0816 5.94837C42.9117 1.03488 53.3047 -0.798205 65.0258 0.31417C71.3775 0.916966 76.9827 2.55199 83.4653 5.69292C99.2966 13.3635 111.019 27.5962 115.569 44.671C117.812 53.0863 117.942 63.7857 115.9 71.7947C113.962 79.3934 110.02 87.7414 105.668 93.4622C103.683 96.0712 97.0645 102.748 94.0394 105.192C88.805 109.422 81.8815 112.962 74.2574 115.309C68.2917 117.144 59.961 117.966 53.3032 117.374ZM63.2519 105.928C69.7329 105.313 75.5606 103.662 80.8922 100.931C89.857 96.3381 96.4718 89.6411 101.039 80.5331C104.533 73.5665 105.693 68.1603 105.725 58.696C105.742 53.6824 105.635 51.8146 105.203 49.5993C103.561 41.1815 100.427 34.436 95.0637 27.7773C88.9911 20.2382 78.109 13.9153 68.2405 12.1922C64.1188 11.4725 57.1949 11.1208 53.434 11.4401C46.3611 12.0406 37.0024 15.4973 31.0323 19.7142C27.6514 22.1022 21.8866 27.874 19.499 31.2614C16.1502 36.0125 13.5343 42.2741 12.0831 49.0124C11.5021 51.71 11.4195 52.9338 11.4195 58.8427C11.4195 64.7245 11.5033 65.9783 12.072 68.5993C13.4154 74.7916 15.9415 80.9363 19.0883 85.6665C21.1886 88.8235 27.8119 95.5421 31.0504 97.8007C40.0615 104.085 51.7073 107.024 63.2519 105.928ZM56.8156 63.9428C54.8515 62.8968 52.304 60.5189 39.7489 48.0125L27.6599 35.9704V33.7808C27.6599 30.249 28.779 28.5819 31.7978 27.6167C32.5208 27.3855 33.246 27.3648 34.0761 27.5515C35.6467 27.9048 37.7436 29.7936 49.566 41.5038L58.7237 50.5746L64.6625 44.7086C67.9289 41.4823 71.1734 38.4635 71.8725 38.0003C74.2885 36.3994 77.6209 37.0488 79.1924 39.4266C79.839 40.4049 79.9722 40.9374 79.9722 42.5434C79.9722 44.2659 79.8671 44.6235 79.0223 45.7737C76.3585 49.4005 62.6416 62.8754 60.4997 63.9696C59.0221 64.7243 58.2729 64.7187 56.8156 63.9428Z" fill="#F2F2F2"/>
</svg>
