<svg width="132" height="147" viewBox="0 0 132 147" fill="none" xmlns="http://www.w3.org/2000/svg">
<path d="M63.7336 145.456C53.8562 141.245 41.8581 134.023 32.7517 126.807C29.7017 124.39 27.8014 122.738 24.8169 119.911C21.8955 117.142 20.6385 115.847 18.3313 113.226C9.00697 102.634 3.16101 90.8383 1.36109 78.9835C0.74143 74.9022 0.756871 75.5387 0.756871 54.0783V34.0975L1.02274 32.9581C1.41958 31.2575 1.81945 30.1714 2.60397 28.6636C3.54461 26.8557 4.61952 25.4695 6.22449 23.9946C9.05621 21.3924 11.9858 20.0201 16.4424 19.2082C27.2002 17.2485 38.4184 12.7359 50.03 5.69751C53.0934 3.84063 55.1052 2.87404 57.4408 2.13698C63.2472 0.304602 68.9864 0.304602 74.7928 2.13698C77.1284 2.87404 79.1402 3.84063 82.2036 5.69751C93.8152 12.7359 105.033 17.2485 115.791 19.2082C120.248 20.0201 123.177 21.3924 126.009 23.9946C128.713 26.4796 130.362 29.3209 131.211 32.9581L131.477 34.0975V54.0783C131.477 72.4518 131.46 74.2093 131.265 75.9269C130.68 81.0787 129.816 84.9117 128.202 89.5116C124.96 98.752 119.448 107.425 111.318 116.08C109.75 117.749 105.021 122.216 103.057 123.883C94.3321 131.29 83.7913 138.13 72.9686 143.408C70.9769 144.38 66.2584 146.467 66.0927 146.45C66.0732 146.449 65.0116 146.001 63.7336 145.456ZM68.073 132.939C76.8479 128.591 85.7205 122.915 92.9 117.054C104.889 107.267 112.768 96.9272 116.654 85.8829C117.693 82.9325 118.481 79.608 118.987 76.0401C119.168 74.7688 119.192 72.6354 119.229 55.0422C119.257 41.7985 119.23 35.2821 119.147 34.9117C118.751 33.1588 117.249 31.4993 115.493 30.8753C115.128 30.7453 113.903 30.4642 112.772 30.2508C107.419 29.2404 102.047 27.6992 96.3838 25.5495C90.2652 23.2268 82.7155 19.5535 76.9605 16.0992C72.5018 13.423 71.8619 13.1106 69.7004 12.555C68.6472 12.2843 68.3721 12.2618 66.1168 12.2618C63.8615 12.2618 63.5864 12.2843 62.5332 12.555C60.3712 13.1107 59.7243 13.4266 55.2731 16.0998C49.599 19.5075 42.2113 23.1153 36.2073 25.4107C30.3055 27.667 24.9509 29.2146 19.4615 30.2508C18.3305 30.4642 17.1059 30.7453 16.7401 30.8753C14.9839 31.4995 13.4825 33.1588 13.0865 34.913C13.0025 35.2852 12.976 41.7682 13.0043 55.0435C13.0496 76.2931 13.0058 74.7927 13.694 78.7005C15.1094 86.7376 19.1589 95.2237 25.2727 102.965C34.1615 114.22 48.1107 124.944 64.4485 133.083C65.3333 133.524 66.0795 133.885 66.1068 133.886C66.1341 133.888 67.0189 133.461 68.073 132.939ZM45.7998 85.6497C37.8696 78.6171 31.4019 72.8266 31.427 72.7819C31.541 72.5792 39.7307 64.6094 39.799 64.6346C39.8414 64.6502 44.2846 68.5728 49.6728 73.3515C55.0611 78.1302 59.5059 82.04 59.5502 82.04C59.5946 82.04 67.6133 73.7619 77.3697 63.6441C87.126 53.5264 95.148 45.2482 95.1965 45.2482C95.2449 45.2482 97.3023 46.9358 99.7684 48.9985C103.669 52.2607 104.233 52.7723 104.101 52.9301C103.875 53.2017 61.1492 97.5394 60.6493 98.021L60.2183 98.4362L45.7998 85.6497Z" fill="url(#paint0_linear_508_365)"/>
<defs>
<linearGradient id="paint0_linear_508_365" x1="0.676117" y1="0.790328" x2="123.709" y2="152.855" gradientUnits="userSpaceOnUse">
<stop stop-color="#C59EDD"/>
<stop offset="0.244792" stop-color="#7C77B8"/>
<stop offset="0.53125" stop-color="#6F85B3"/>
<stop offset="1" stop-color="#4AADA7"/>
</linearGradient>
</defs>
</svg>
