<svg width="1399" height="372" viewBox="0 0 1399 372" fill="none" xmlns="http://www.w3.org/2000/svg">
<rect width="1400" height="372" fill="url(#paint0_linear_89_543)" fill-opacity="0.6"/>
<rect width="1400" height="372" fill="black" fill-opacity="0.3"/>
<g filter="url(#filter0_b_89_543)">
<path d="M581.072 186.168C580.752 186.168 580.504 186.08 580.328 185.904C580.168 185.712 580.088 185.456 580.088 185.136V170.16C580.088 169.808 580.176 169.544 580.352 169.368C580.544 169.176 580.816 169.08 581.168 169.08H592.976C593.312 169.08 593.576 169.176 593.768 169.368C593.96 169.544 594.056 169.808 594.056 170.16V185.136C594.056 185.456 593.968 185.712 593.792 185.904C593.616 186.08 593.376 186.168 593.072 186.168C592.752 186.168 592.504 186.08 592.328 185.904C592.152 185.712 592.064 185.456 592.064 185.136V170.784H582.056V185.136C582.056 185.456 581.976 185.712 581.816 185.904C581.656 186.08 581.408 186.168 581.072 186.168ZM599.021 190.488C598.701 190.488 598.461 190.4 598.301 190.224C598.141 190.064 598.061 189.824 598.061 189.504V175.152C598.061 174.832 598.141 174.592 598.301 174.432C598.461 174.256 598.693 174.168 598.997 174.168C599.317 174.168 599.557 174.256 599.717 174.432C599.893 174.592 599.981 174.832 599.981 175.152V177.432L599.717 177.096C599.973 176.184 600.477 175.464 601.229 174.936C601.997 174.392 602.909 174.12 603.965 174.12C605.005 174.12 605.909 174.368 606.677 174.864C607.461 175.344 608.061 176.04 608.477 176.952C608.909 177.848 609.125 178.92 609.125 180.168C609.125 181.4 608.909 182.472 608.477 183.384C608.061 184.28 607.469 184.976 606.701 185.472C605.933 185.968 605.021 186.216 603.965 186.216C602.909 186.216 602.005 185.952 601.253 185.424C600.501 184.88 599.989 184.16 599.717 183.264H600.005V189.504C600.005 189.824 599.917 190.064 599.741 190.224C599.565 190.4 599.325 190.488 599.021 190.488ZM603.557 184.656C604.293 184.656 604.925 184.48 605.453 184.128C605.997 183.776 606.413 183.264 606.701 182.592C607.005 181.92 607.157 181.112 607.157 180.168C607.157 178.712 606.829 177.6 606.173 176.832C605.533 176.064 604.661 175.68 603.557 175.68C602.837 175.68 602.205 175.856 601.661 176.208C601.117 176.544 600.693 177.048 600.389 177.72C600.101 178.376 599.957 179.192 599.957 180.168C599.957 181.608 600.285 182.72 600.941 183.504C601.597 184.272 602.469 184.656 603.557 184.656ZM617.136 186.216C616 186.216 615.016 185.968 614.184 185.472C613.352 184.976 612.704 184.28 612.24 183.384C611.792 182.472 611.568 181.4 611.568 180.168C611.568 179.24 611.696 178.408 611.952 177.672C612.208 176.92 612.584 176.28 613.08 175.752C613.576 175.224 614.16 174.824 614.832 174.552C615.52 174.264 616.288 174.12 617.136 174.12C618.272 174.12 619.256 174.368 620.088 174.864C620.92 175.36 621.56 176.064 622.008 176.976C622.472 177.872 622.704 178.936 622.704 180.168C622.704 181.096 622.576 181.928 622.32 182.664C622.064 183.4 621.688 184.04 621.192 184.584C620.696 185.112 620.104 185.52 619.416 185.808C618.744 186.08 617.984 186.216 617.136 186.216ZM617.136 184.656C617.856 184.656 618.488 184.48 619.032 184.128C619.576 183.776 619.992 183.264 620.28 182.592C620.584 181.92 620.736 181.112 620.736 180.168C620.736 178.712 620.408 177.6 619.752 176.832C619.112 176.064 618.24 175.68 617.136 175.68C616.4 175.68 615.76 175.856 615.216 176.208C614.688 176.544 614.272 177.048 613.968 177.72C613.68 178.376 613.536 179.192 613.536 180.168C613.536 181.608 613.864 182.72 614.52 183.504C615.176 184.272 616.048 184.656 617.136 184.656ZM625.426 189.288C625.154 189.288 624.946 189.208 624.802 189.048C624.658 188.888 624.586 188.664 624.586 188.376V185.4C624.586 184.76 624.906 184.44 625.546 184.44H626.698L625.546 184.848C625.978 184.272 626.322 183.648 626.578 182.976C626.85 182.288 627.05 181.52 627.178 180.672C627.306 179.824 627.37 178.856 627.37 177.768V175.44C627.37 175.072 627.466 174.8 627.658 174.624C627.85 174.432 628.122 174.336 628.474 174.336H634.522C634.89 174.336 635.162 174.432 635.338 174.624C635.53 174.8 635.626 175.072 635.626 175.44V185.328L634.738 184.44H636.514C636.818 184.44 637.05 184.52 637.21 184.68C637.386 184.84 637.474 185.08 637.474 185.4V188.376C637.474 188.984 637.194 189.288 636.634 189.288C636.362 189.288 636.154 189.208 636.01 189.048C635.866 188.888 635.794 188.664 635.794 188.376V186H626.242V188.376C626.242 188.984 625.97 189.288 625.426 189.288ZM627.682 184.44H633.778V175.872H629.098V178.104C629.098 179.304 628.978 180.464 628.738 181.584C628.498 182.688 628.146 183.64 627.682 184.44ZM644.933 186.216C643.797 186.216 642.813 185.968 641.981 185.472C641.149 184.976 640.501 184.28 640.037 183.384C639.589 182.472 639.365 181.4 639.365 180.168C639.365 179.24 639.493 178.408 639.749 177.672C640.005 176.92 640.381 176.28 640.877 175.752C641.373 175.224 641.957 174.824 642.629 174.552C643.317 174.264 644.085 174.12 644.933 174.12C646.069 174.12 647.053 174.368 647.885 174.864C648.717 175.36 649.357 176.064 649.805 176.976C650.269 177.872 650.501 178.936 650.501 180.168C650.501 181.096 650.373 181.928 650.117 182.664C649.861 183.4 649.485 184.04 648.989 184.584C648.493 185.112 647.901 185.52 647.213 185.808C646.541 186.08 645.781 186.216 644.933 186.216ZM644.933 184.656C645.653 184.656 646.285 184.48 646.829 184.128C647.373 183.776 647.789 183.264 648.077 182.592C648.381 181.92 648.533 181.112 648.533 180.168C648.533 178.712 648.205 177.6 647.549 176.832C646.909 176.064 646.037 175.68 644.933 175.68C644.197 175.68 643.557 175.856 643.013 176.208C642.485 176.544 642.069 177.048 641.765 177.72C641.477 178.376 641.333 179.192 641.333 180.168C641.333 181.608 641.661 182.72 642.317 183.504C642.973 184.272 643.845 184.656 644.933 184.656ZM662.372 186.168C662.068 186.168 661.828 186.08 661.652 185.904C661.492 185.728 661.412 185.48 661.412 185.16V175.896H656.708V177.384C656.708 178.632 656.644 179.736 656.516 180.696C656.404 181.64 656.22 182.456 655.964 183.144C655.708 183.832 655.364 184.408 654.932 184.872C654.516 185.336 653.996 185.728 653.372 186.048C653.164 186.144 652.964 186.168 652.772 186.12C652.58 186.088 652.42 186.016 652.292 185.904C652.18 185.776 652.1 185.624 652.052 185.448C652.02 185.272 652.044 185.096 652.124 184.92C652.204 184.744 652.348 184.6 652.556 184.488C653.02 184.232 653.396 183.912 653.684 183.528C653.988 183.144 654.228 182.664 654.404 182.088C654.58 181.512 654.7 180.84 654.764 180.072C654.844 179.288 654.884 178.368 654.884 177.312V175.44C654.884 175.072 654.98 174.8 655.172 174.624C655.364 174.432 655.636 174.336 655.988 174.336H662.252C662.604 174.336 662.876 174.432 663.068 174.624C663.26 174.8 663.356 175.072 663.356 175.44V185.16C663.356 185.48 663.268 185.728 663.092 185.904C662.932 186.08 662.692 186.168 662.372 186.168ZM674.689 186.168C674.385 186.168 674.145 186.08 673.969 185.904C673.809 185.728 673.729 185.48 673.729 185.16V180.768H672.217C671.785 180.768 671.417 180.816 671.113 180.912C670.809 181.008 670.529 181.184 670.273 181.44C670.033 181.68 669.777 182.024 669.505 182.472L667.609 185.64C667.481 185.848 667.321 185.992 667.129 186.072C666.937 186.152 666.753 186.168 666.577 186.12C666.401 186.088 666.241 186.008 666.097 185.88C665.953 185.752 665.865 185.6 665.833 185.424C665.801 185.248 665.849 185.048 665.977 184.824L667.705 181.968C668.057 181.36 668.385 180.88 668.689 180.528C669.009 180.16 669.329 179.888 669.649 179.712C669.985 179.536 670.377 179.424 670.825 179.376L670.321 180L666.913 175.656C666.769 175.448 666.689 175.256 666.673 175.08C666.673 174.888 666.729 174.72 666.841 174.576C666.953 174.432 667.089 174.336 667.249 174.288C667.425 174.224 667.601 174.224 667.777 174.288C667.969 174.336 668.137 174.456 668.281 174.648L671.881 179.208H673.729V175.224C673.729 174.888 673.809 174.64 673.969 174.48C674.145 174.304 674.385 174.216 674.689 174.216C675.009 174.216 675.249 174.304 675.409 174.48C675.585 174.64 675.673 174.888 675.673 175.224V179.208H677.545L681.097 174.648C681.257 174.456 681.433 174.336 681.625 174.288C681.817 174.224 681.993 174.224 682.153 174.288C682.313 174.336 682.449 174.432 682.561 174.576C682.673 174.704 682.721 174.864 682.705 175.056C682.705 175.248 682.633 175.448 682.489 175.656L679.081 180L678.577 179.376C679.025 179.424 679.409 179.536 679.729 179.712C680.065 179.888 680.385 180.152 680.689 180.504C681.009 180.856 681.345 181.344 681.697 181.968L683.425 184.824C683.537 185.048 683.577 185.248 683.545 185.424C683.529 185.6 683.449 185.752 683.305 185.88C683.161 186.008 682.993 186.088 682.801 186.12C682.625 186.168 682.449 186.152 682.273 186.072C682.097 185.992 681.937 185.848 681.793 185.64L679.897 182.472C679.625 182.024 679.369 181.68 679.129 181.44C678.889 181.184 678.617 181.008 678.313 180.912C678.009 180.816 677.633 180.768 677.185 180.768H675.673V185.16C675.673 185.48 675.585 185.728 675.409 185.904C675.249 186.08 675.009 186.168 674.689 186.168ZM686.933 186.168C686.757 186.168 686.597 186.128 686.453 186.048C686.325 185.984 686.221 185.872 686.141 185.712C686.077 185.552 686.045 185.352 686.045 185.112V175.128C686.045 174.808 686.125 174.568 686.285 174.408C686.445 174.248 686.661 174.168 686.933 174.168C687.221 174.168 687.437 174.248 687.581 174.408C687.741 174.568 687.821 174.808 687.821 175.128V184.152H687.221L694.205 174.792C694.333 174.616 694.485 174.472 694.661 174.36C694.837 174.232 695.061 174.168 695.333 174.168C695.525 174.168 695.685 174.2 695.813 174.264C695.941 174.328 696.037 174.44 696.101 174.6C696.181 174.744 696.221 174.944 696.221 175.2V185.208C696.221 185.512 696.141 185.752 695.981 185.928C695.837 186.088 695.621 186.168 695.333 186.168C695.045 186.168 694.821 186.088 694.661 185.928C694.517 185.752 694.445 185.512 694.445 185.208V176.16H695.045L688.037 185.544C687.925 185.704 687.781 185.848 687.605 185.976C687.445 186.104 687.221 186.168 686.933 186.168ZM703.469 186.168C703.165 186.168 702.925 186.08 702.749 185.904C702.573 185.728 702.485 185.48 702.485 185.16V175.896H698.981C698.373 175.896 698.069 175.632 698.069 175.104C698.069 174.864 698.149 174.68 698.309 174.552C698.469 174.408 698.693 174.336 698.981 174.336H707.957C708.549 174.336 708.845 174.592 708.845 175.104C708.845 175.36 708.765 175.56 708.605 175.704C708.461 175.832 708.245 175.896 707.957 175.896H704.429V185.16C704.429 185.48 704.349 185.728 704.189 185.904C704.045 186.08 703.805 186.168 703.469 186.168ZM715.958 186.216C714.726 186.216 713.662 185.976 712.766 185.496C711.886 185 711.198 184.304 710.702 183.408C710.222 182.512 709.982 181.44 709.982 180.192C709.982 178.976 710.222 177.92 710.702 177.024C711.182 176.112 711.838 175.4 712.67 174.888C713.518 174.376 714.494 174.12 715.598 174.12C716.382 174.12 717.086 174.256 717.71 174.528C718.334 174.784 718.862 175.16 719.294 175.656C719.742 176.152 720.078 176.752 720.302 177.456C720.542 178.16 720.662 178.952 720.662 179.832C720.662 180.088 720.59 180.28 720.446 180.408C720.302 180.52 720.094 180.576 719.822 180.576H711.47V179.304H719.366L718.982 179.616C718.982 178.752 718.854 178.024 718.598 177.432C718.342 176.824 717.966 176.36 717.47 176.04C716.99 175.72 716.382 175.56 715.646 175.56C714.83 175.56 714.134 175.752 713.558 176.136C712.998 176.504 712.574 177.024 712.286 177.696C711.998 178.352 711.854 179.12 711.854 180V180.144C711.854 181.616 712.206 182.736 712.91 183.504C713.63 184.272 714.646 184.656 715.958 184.656C716.502 184.656 717.038 184.584 717.566 184.44C718.11 184.296 718.638 184.056 719.15 183.72C719.374 183.576 719.574 183.512 719.75 183.528C719.942 183.528 720.094 183.584 720.206 183.696C720.318 183.792 720.39 183.92 720.422 184.08C720.47 184.224 720.454 184.384 720.374 184.56C720.31 184.736 720.174 184.888 719.966 185.016C719.438 185.4 718.814 185.696 718.094 185.904C717.374 186.112 716.662 186.216 715.958 186.216ZM735.629 189.288C735.357 189.288 735.149 189.208 735.005 189.048C734.861 188.888 734.789 188.664 734.789 188.376V185.4C734.789 184.76 735.109 184.44 735.749 184.44H736.901L735.749 184.848C736.181 184.272 736.525 183.648 736.781 182.976C737.053 182.288 737.253 181.52 737.381 180.672C737.509 179.824 737.573 178.856 737.573 177.768V175.44C737.573 175.072 737.669 174.8 737.861 174.624C738.053 174.432 738.325 174.336 738.677 174.336H744.725C745.093 174.336 745.365 174.432 745.541 174.624C745.733 174.8 745.829 175.072 745.829 175.44V185.328L744.941 184.44H746.717C747.021 184.44 747.253 184.52 747.413 184.68C747.589 184.84 747.677 185.08 747.677 185.4V188.376C747.677 188.984 747.397 189.288 746.837 189.288C746.565 189.288 746.357 189.208 746.213 189.048C746.069 188.888 745.997 188.664 745.997 188.376V186H736.445V188.376C736.445 188.984 736.173 189.288 735.629 189.288ZM737.885 184.44H743.981V175.872H739.301V178.104C739.301 179.304 739.181 180.464 738.941 181.584C738.701 182.688 738.349 183.64 737.885 184.44ZM755.136 186.216C754 186.216 753.016 185.968 752.184 185.472C751.352 184.976 750.704 184.28 750.24 183.384C749.792 182.472 749.568 181.4 749.568 180.168C749.568 179.24 749.696 178.408 749.952 177.672C750.208 176.92 750.584 176.28 751.08 175.752C751.576 175.224 752.16 174.824 752.832 174.552C753.52 174.264 754.288 174.12 755.136 174.12C756.272 174.12 757.256 174.368 758.088 174.864C758.92 175.36 759.56 176.064 760.008 176.976C760.472 177.872 760.704 178.936 760.704 180.168C760.704 181.096 760.576 181.928 760.32 182.664C760.064 183.4 759.688 184.04 759.192 184.584C758.696 185.112 758.104 185.52 757.416 185.808C756.744 186.08 755.984 186.216 755.136 186.216ZM755.136 184.656C755.856 184.656 756.488 184.48 757.032 184.128C757.576 183.776 757.992 183.264 758.28 182.592C758.584 181.92 758.736 181.112 758.736 180.168C758.736 178.712 758.408 177.6 757.752 176.832C757.112 176.064 756.24 175.68 755.136 175.68C754.4 175.68 753.76 175.856 753.216 176.208C752.688 176.544 752.272 177.048 751.968 177.72C751.68 178.376 751.536 179.192 751.536 180.168C751.536 181.608 751.864 182.72 752.52 183.504C753.176 184.272 754.048 184.656 755.136 184.656ZM768.778 186.216C767.626 186.216 766.626 185.968 765.778 185.472C764.946 184.96 764.298 184.208 763.834 183.216C763.386 182.224 763.162 181.008 763.162 179.568V177.768C763.162 176.216 763.362 174.92 763.762 173.88C764.178 172.84 764.802 172 765.634 171.36C766.482 170.72 767.53 170.232 768.778 169.896L772.282 168.912C772.57 168.832 772.81 168.84 773.002 168.936C773.21 169.032 773.338 169.208 773.386 169.464C773.45 169.736 773.41 169.968 773.266 170.16C773.138 170.352 772.93 170.488 772.642 170.568L768.922 171.576C768.058 171.816 767.338 172.176 766.762 172.656C766.186 173.136 765.754 173.728 765.465 174.432C765.178 175.12 765.034 175.904 765.034 176.784V177.72H764.698C764.89 177.016 765.194 176.408 765.61 175.896C766.026 175.384 766.538 174.992 767.146 174.72C767.77 174.432 768.458 174.288 769.21 174.288C770.218 174.288 771.106 174.528 771.874 175.008C772.642 175.488 773.234 176.168 773.65 177.048C774.082 177.928 774.298 178.976 774.298 180.192C774.298 181.408 774.066 182.472 773.602 183.384C773.154 184.28 772.514 184.976 771.682 185.472C770.866 185.968 769.898 186.216 768.778 186.216ZM768.706 184.656C769.474 184.656 770.122 184.488 770.65 184.152C771.194 183.8 771.61 183.296 771.898 182.64C772.186 181.984 772.33 181.184 772.33 180.24C772.33 178.848 772.01 177.768 771.37 177C770.73 176.232 769.85 175.848 768.73 175.848C767.978 175.848 767.33 176.016 766.786 176.352C766.258 176.688 765.85 177.176 765.562 177.816C765.274 178.44 765.13 179.192 765.13 180.072C765.13 181.576 765.442 182.72 766.066 183.504C766.706 184.272 767.586 184.656 768.706 184.656ZM781.147 186.216C780.347 186.216 779.627 186.064 778.987 185.76C778.363 185.44 777.867 185.008 777.499 184.464C777.131 183.92 776.947 183.312 776.947 182.64C776.947 181.776 777.163 181.096 777.595 180.6C778.043 180.104 778.771 179.752 779.779 179.544C780.803 179.336 782.195 179.232 783.955 179.232H785.035V180.504H783.979C782.683 180.504 781.659 180.568 780.907 180.696C780.171 180.808 779.651 181.008 779.347 181.296C779.059 181.584 778.915 181.992 778.915 182.52C778.915 183.176 779.139 183.712 779.587 184.128C780.051 184.544 780.675 184.752 781.459 184.752C782.099 184.752 782.659 184.6 783.139 184.296C783.635 183.992 784.019 183.576 784.291 183.048C784.579 182.52 784.723 181.912 784.723 181.224V178.488C784.723 177.496 784.523 176.784 784.123 176.352C783.723 175.904 783.067 175.68 782.155 175.68C781.595 175.68 781.035 175.752 780.475 175.896C779.915 176.04 779.323 176.272 778.699 176.592C778.475 176.704 778.283 176.744 778.123 176.712C777.963 176.664 777.835 176.576 777.739 176.448C777.643 176.32 777.587 176.176 777.571 176.016C777.555 175.84 777.587 175.672 777.667 175.512C777.763 175.352 777.907 175.224 778.099 175.128C778.803 174.776 779.499 174.52 780.187 174.36C780.875 174.2 781.531 174.12 782.155 174.12C783.163 174.12 783.995 174.288 784.651 174.624C785.307 174.944 785.795 175.44 786.115 176.112C786.435 176.768 786.595 177.616 786.595 178.656V185.16C786.595 185.48 786.515 185.728 786.355 185.904C786.211 186.08 785.995 186.168 785.707 186.168C785.403 186.168 785.171 186.08 785.011 185.904C784.851 185.728 784.771 185.48 784.771 185.16V183.288H784.987C784.859 183.896 784.611 184.416 784.243 184.848C783.891 185.28 783.451 185.616 782.923 185.856C782.395 186.096 781.803 186.216 781.147 186.216ZM791.397 186C791.077 186 790.829 185.912 790.653 185.736C790.477 185.56 790.389 185.312 790.389 184.992V175.344C790.389 175.024 790.477 174.776 790.653 174.6C790.829 174.424 791.077 174.336 791.397 174.336H796.077C797.005 174.336 797.765 174.456 798.357 174.696C798.949 174.92 799.389 175.264 799.677 175.728C799.965 176.176 800.109 176.736 800.109 177.408C800.109 178.144 799.845 178.768 799.317 179.28C798.805 179.792 798.133 180.096 797.301 180.192V179.88C798.293 179.912 799.069 180.192 799.629 180.72C800.205 181.248 800.493 181.936 800.493 182.784C800.493 183.776 800.125 184.56 799.389 185.136C798.653 185.712 797.613 186 796.269 186H791.397ZM792.237 184.68H796.197C796.981 184.68 797.581 184.512 797.997 184.176C798.429 183.824 798.645 183.328 798.645 182.688C798.645 182.048 798.429 181.56 797.997 181.224C797.581 180.888 796.981 180.72 796.197 180.72H792.237V184.68ZM792.237 179.4H795.981C796.701 179.4 797.261 179.232 797.661 178.896C798.077 178.56 798.285 178.096 798.285 177.504C798.285 176.912 798.077 176.456 797.661 176.136C797.261 175.816 796.701 175.656 795.981 175.656H792.237V179.4ZM812.466 186.168C812.162 186.168 811.922 186.08 811.746 185.904C811.586 185.728 811.506 185.48 811.506 185.16V175.896H806.802V177.384C806.802 178.632 806.738 179.736 806.61 180.696C806.498 181.64 806.314 182.456 806.058 183.144C805.802 183.832 805.458 184.408 805.026 184.872C804.61 185.336 804.09 185.728 803.466 186.048C803.258 186.144 803.058 186.168 802.866 186.12C802.674 186.088 802.514 186.016 802.386 185.904C802.274 185.776 802.194 185.624 802.146 185.448C802.114 185.272 802.138 185.096 802.218 184.92C802.298 184.744 802.442 184.6 802.65 184.488C803.114 184.232 803.49 183.912 803.778 183.528C804.082 183.144 804.322 182.664 804.498 182.088C804.674 181.512 804.794 180.84 804.858 180.072C804.938 179.288 804.978 178.368 804.978 177.312V175.44C804.978 175.072 805.074 174.8 805.266 174.624C805.458 174.432 805.73 174.336 806.082 174.336H812.346C812.698 174.336 812.97 174.432 813.162 174.624C813.354 174.8 813.45 175.072 813.45 175.44V185.16C813.45 185.48 813.362 185.728 813.186 185.904C813.026 186.08 812.786 186.168 812.466 186.168ZM822.575 186.216C821.343 186.216 820.279 185.976 819.383 185.496C818.503 185 817.815 184.304 817.319 183.408C816.839 182.512 816.599 181.44 816.599 180.192C816.599 178.976 816.839 177.92 817.319 177.024C817.799 176.112 818.455 175.4 819.287 174.888C820.135 174.376 821.111 174.12 822.215 174.12C822.999 174.12 823.703 174.256 824.327 174.528C824.951 174.784 825.479 175.16 825.911 175.656C826.359 176.152 826.695 176.752 826.919 177.456C827.159 178.16 827.279 178.952 827.279 179.832C827.279 180.088 827.207 180.28 827.063 180.408C826.919 180.52 826.711 180.576 826.439 180.576H818.087V179.304H825.983L825.599 179.616C825.599 178.752 825.471 178.024 825.215 177.432C824.959 176.824 824.583 176.36 824.087 176.04C823.607 175.72 822.999 175.56 822.263 175.56C821.447 175.56 820.751 175.752 820.175 176.136C819.615 176.504 819.191 177.024 818.903 177.696C818.615 178.352 818.471 179.12 818.471 180V180.144C818.471 181.616 818.823 182.736 819.527 183.504C820.247 184.272 821.263 184.656 822.575 184.656C823.119 184.656 823.655 184.584 824.183 184.44C824.727 184.296 825.255 184.056 825.767 183.72C825.991 183.576 826.191 183.512 826.367 183.528C826.559 183.528 826.711 183.584 826.823 183.696C826.935 183.792 827.007 183.92 827.039 184.08C827.087 184.224 827.071 184.384 826.991 184.56C826.927 184.736 826.791 184.888 826.583 185.016C826.055 185.4 825.431 185.696 824.711 185.904C823.991 186.112 823.279 186.216 822.575 186.216ZM831.287 186.168C830.967 186.168 830.719 186.08 830.543 185.904C830.383 185.728 830.303 185.48 830.303 185.16V175.152C830.303 174.816 830.383 174.568 830.543 174.408C830.719 174.248 830.967 174.168 831.287 174.168C831.591 174.168 831.823 174.248 831.983 174.408C832.159 174.568 832.247 174.816 832.247 175.152V179.184H838.607V175.152C838.607 174.816 838.687 174.568 838.847 174.408C839.023 174.248 839.263 174.168 839.567 174.168C839.871 174.168 840.111 174.248 840.287 174.408C840.463 174.568 840.551 174.816 840.551 175.152V185.16C840.551 185.48 840.463 185.728 840.287 185.904C840.111 186.08 839.871 186.168 839.567 186.168C839.263 186.168 839.023 186.08 838.847 185.904C838.687 185.728 838.607 185.48 838.607 185.16V180.768H832.247V185.16C832.247 185.48 832.167 185.728 832.007 185.904C831.847 186.08 831.607 186.168 831.287 186.168ZM845.277 186.168C845.101 186.168 844.941 186.128 844.797 186.048C844.669 185.984 844.565 185.872 844.485 185.712C844.421 185.552 844.389 185.352 844.389 185.112V175.128C844.389 174.808 844.469 174.568 844.629 174.408C844.789 174.248 845.005 174.168 845.277 174.168C845.565 174.168 845.781 174.248 845.925 174.408C846.085 174.568 846.165 174.808 846.165 175.128V184.152H845.565L852.549 174.792C852.677 174.616 852.829 174.472 853.005 174.36C853.181 174.232 853.405 174.168 853.677 174.168C853.869 174.168 854.029 174.2 854.157 174.264C854.285 174.328 854.381 174.44 854.445 174.6C854.525 174.744 854.565 174.944 854.565 175.2V185.208C854.565 185.512 854.485 185.752 854.325 185.928C854.181 186.088 853.965 186.168 853.677 186.168C853.389 186.168 853.165 186.088 853.005 185.928C852.861 185.752 852.789 185.512 852.789 185.208V176.16H853.389L846.381 185.544C846.269 185.704 846.125 185.848 845.949 185.976C845.789 186.104 845.565 186.168 845.277 186.168ZM863.684 186.216C862.452 186.216 861.388 185.976 860.492 185.496C859.612 185 858.924 184.304 858.428 183.408C857.948 182.512 857.708 181.44 857.708 180.192C857.708 178.976 857.948 177.92 858.428 177.024C858.908 176.112 859.564 175.4 860.396 174.888C861.244 174.376 862.22 174.12 863.324 174.12C864.108 174.12 864.812 174.256 865.436 174.528C866.06 174.784 866.588 175.16 867.02 175.656C867.468 176.152 867.804 176.752 868.028 177.456C868.268 178.16 868.388 178.952 868.388 179.832C868.388 180.088 868.316 180.28 868.172 180.408C868.028 180.52 867.82 180.576 867.548 180.576H859.196V179.304H867.092L866.708 179.616C866.708 178.752 866.58 178.024 866.324 177.432C866.068 176.824 865.692 176.36 865.196 176.04C864.716 175.72 864.108 175.56 863.372 175.56C862.556 175.56 861.86 175.752 861.284 176.136C860.724 176.504 860.3 177.024 860.012 177.696C859.724 178.352 859.58 179.12 859.58 180V180.144C859.58 181.616 859.932 182.736 860.636 183.504C861.356 184.272 862.372 184.656 863.684 184.656C864.228 184.656 864.764 184.584 865.292 184.44C865.836 184.296 866.364 184.056 866.876 183.72C867.1 183.576 867.3 183.512 867.476 183.528C867.668 183.528 867.82 183.584 867.932 183.696C868.044 183.792 868.116 183.92 868.148 184.08C868.196 184.224 868.18 184.384 868.1 184.56C868.036 184.736 867.9 184.888 867.692 185.016C867.164 185.4 866.54 185.696 865.82 185.904C865.1 186.112 864.388 186.216 863.684 186.216ZM881.008 186.168C880.704 186.168 880.464 186.08 880.288 185.904C880.112 185.728 880.024 185.48 880.024 185.16V175.896H876.52C875.912 175.896 875.608 175.632 875.608 175.104C875.608 174.864 875.688 174.68 875.848 174.552C876.008 174.408 876.232 174.336 876.52 174.336H885.496C886.088 174.336 886.384 174.592 886.384 175.104C886.384 175.36 886.304 175.56 886.144 175.704C886 175.832 885.784 175.896 885.496 175.896H881.968V185.16C881.968 185.48 881.888 185.728 881.728 185.904C881.584 186.08 881.344 186.168 881.008 186.168ZM893.089 186.216C891.953 186.216 890.969 185.968 890.137 185.472C889.305 184.976 888.657 184.28 888.193 183.384C887.745 182.472 887.521 181.4 887.521 180.168C887.521 179.24 887.649 178.408 887.905 177.672C888.161 176.92 888.537 176.28 889.033 175.752C889.529 175.224 890.113 174.824 890.785 174.552C891.473 174.264 892.241 174.12 893.089 174.12C894.225 174.12 895.209 174.368 896.041 174.864C896.873 175.36 897.513 176.064 897.961 176.976C898.425 177.872 898.657 178.936 898.657 180.168C898.657 181.096 898.529 181.928 898.273 182.664C898.017 183.4 897.641 184.04 897.145 184.584C896.649 185.112 896.057 185.52 895.369 185.808C894.697 186.08 893.937 186.216 893.089 186.216ZM893.089 184.656C893.809 184.656 894.441 184.48 894.985 184.128C895.529 183.776 895.945 183.264 896.233 182.592C896.537 181.92 896.689 181.112 896.689 180.168C896.689 178.712 896.361 177.6 895.705 176.832C895.065 176.064 894.193 175.68 893.089 175.68C892.353 175.68 891.713 175.856 891.169 176.208C890.641 176.544 890.225 177.048 889.921 177.72C889.633 178.376 889.489 179.192 889.489 180.168C889.489 181.608 889.817 182.72 890.473 183.504C891.129 184.272 892.001 184.656 893.089 184.656ZM902.819 186C902.499 186 902.251 185.912 902.075 185.736C901.899 185.56 901.811 185.312 901.811 184.992V175.344C901.811 175.024 901.899 174.776 902.075 174.6C902.251 174.424 902.499 174.336 902.819 174.336H907.499C908.427 174.336 909.187 174.456 909.779 174.696C910.371 174.92 910.811 175.264 911.099 175.728C911.387 176.176 911.531 176.736 911.531 177.408C911.531 178.144 911.267 178.768 910.739 179.28C910.227 179.792 909.555 180.096 908.723 180.192V179.88C909.715 179.912 910.491 180.192 911.051 180.72C911.627 181.248 911.915 181.936 911.915 182.784C911.915 183.776 911.547 184.56 910.811 185.136C910.075 185.712 909.035 186 907.691 186H902.819ZM903.659 184.68H907.619C908.403 184.68 909.003 184.512 909.419 184.176C909.851 183.824 910.067 183.328 910.067 182.688C910.067 182.048 909.851 181.56 909.419 181.224C909.003 180.888 908.403 180.72 907.619 180.72H903.659V184.68ZM903.659 179.4H907.403C908.123 179.4 908.683 179.232 909.083 178.896C909.499 178.56 909.707 178.096 909.707 177.504C909.707 176.912 909.499 176.456 909.083 176.136C908.683 175.816 908.123 175.656 907.403 175.656H903.659V179.4ZM918.632 186.216C917.832 186.216 917.112 186.064 916.472 185.76C915.848 185.44 915.352 185.008 914.984 184.464C914.616 183.92 914.432 183.312 914.432 182.64C914.432 181.776 914.648 181.096 915.08 180.6C915.528 180.104 916.256 179.752 917.264 179.544C918.288 179.336 919.68 179.232 921.44 179.232H922.52V180.504H921.464C920.168 180.504 919.144 180.568 918.392 180.696C917.656 180.808 917.136 181.008 916.832 181.296C916.544 181.584 916.4 181.992 916.4 182.52C916.4 183.176 916.624 183.712 917.072 184.128C917.536 184.544 918.16 184.752 918.944 184.752C919.584 184.752 920.144 184.6 920.624 184.296C921.12 183.992 921.504 183.576 921.776 183.048C922.064 182.52 922.208 181.912 922.208 181.224V178.488C922.208 177.496 922.008 176.784 921.608 176.352C921.208 175.904 920.552 175.68 919.64 175.68C919.08 175.68 918.52 175.752 917.96 175.896C917.4 176.04 916.808 176.272 916.184 176.592C915.96 176.704 915.768 176.744 915.608 176.712C915.448 176.664 915.32 176.576 915.224 176.448C915.128 176.32 915.072 176.176 915.056 176.016C915.04 175.84 915.072 175.672 915.152 175.512C915.248 175.352 915.392 175.224 915.584 175.128C916.288 174.776 916.984 174.52 917.672 174.36C918.36 174.2 919.016 174.12 919.64 174.12C920.648 174.12 921.48 174.288 922.136 174.624C922.792 174.944 923.28 175.44 923.6 176.112C923.92 176.768 924.08 177.616 924.08 178.656V185.16C924.08 185.48 924 185.728 923.84 185.904C923.696 186.08 923.48 186.168 923.192 186.168C922.888 186.168 922.656 186.08 922.496 185.904C922.336 185.728 922.256 185.48 922.256 185.16V183.288H922.472C922.344 183.896 922.096 184.416 921.728 184.848C921.376 185.28 920.936 185.616 920.408 185.856C919.88 186.096 919.288 186.216 918.632 186.216ZM928.857 190.488C928.537 190.488 928.297 190.4 928.137 190.224C927.977 190.064 927.897 189.824 927.897 189.504V175.152C927.897 174.832 927.977 174.592 928.137 174.432C928.297 174.256 928.529 174.168 928.833 174.168C929.153 174.168 929.393 174.256 929.553 174.432C929.729 174.592 929.817 174.832 929.817 175.152V177.432L929.553 177.096C929.809 176.184 930.313 175.464 931.065 174.936C931.833 174.392 932.745 174.12 933.801 174.12C934.841 174.12 935.745 174.368 936.513 174.864C937.297 175.344 937.897 176.04 938.313 176.952C938.745 177.848 938.961 178.92 938.961 180.168C938.961 181.4 938.745 182.472 938.313 183.384C937.897 184.28 937.305 184.976 936.537 185.472C935.769 185.968 934.857 186.216 933.801 186.216C932.745 186.216 931.841 185.952 931.089 185.424C930.337 184.88 929.825 184.16 929.553 183.264H929.841V189.504C929.841 189.824 929.753 190.064 929.577 190.224C929.401 190.4 929.161 190.488 928.857 190.488ZM933.393 184.656C934.129 184.656 934.761 184.48 935.289 184.128C935.833 183.776 936.249 183.264 936.537 182.592C936.841 181.92 936.993 181.112 936.993 180.168C936.993 178.712 936.665 177.6 936.009 176.832C935.369 176.064 934.497 175.68 933.393 175.68C932.673 175.68 932.041 175.856 931.497 176.208C930.953 176.544 930.529 177.048 930.225 177.72C929.937 178.376 929.793 179.192 929.793 180.168C929.793 181.608 930.121 182.72 930.777 183.504C931.433 184.272 932.305 184.656 933.393 184.656ZM946.972 186.216C945.836 186.216 944.852 185.968 944.02 185.472C943.188 184.976 942.54 184.28 942.076 183.384C941.628 182.472 941.404 181.4 941.404 180.168C941.404 179.24 941.532 178.408 941.788 177.672C942.044 176.92 942.42 176.28 942.916 175.752C943.412 175.224 943.996 174.824 944.668 174.552C945.356 174.264 946.124 174.12 946.972 174.12C948.108 174.12 949.092 174.368 949.924 174.864C950.756 175.36 951.396 176.064 951.844 176.976C952.308 177.872 952.54 178.936 952.54 180.168C952.54 181.096 952.412 181.928 952.156 182.664C951.9 183.4 951.524 184.04 951.028 184.584C950.532 185.112 949.94 185.52 949.252 185.808C948.58 186.08 947.82 186.216 946.972 186.216ZM946.972 184.656C947.692 184.656 948.324 184.48 948.868 184.128C949.412 183.776 949.828 183.264 950.116 182.592C950.42 181.92 950.572 181.112 950.572 180.168C950.572 178.712 950.244 177.6 949.588 176.832C948.948 176.064 948.076 175.68 946.972 175.68C946.236 175.68 945.596 175.856 945.052 176.208C944.524 176.544 944.108 177.048 943.804 177.72C943.516 178.376 943.372 179.192 943.372 180.168C943.372 181.608 943.7 182.72 944.356 183.504C945.012 184.272 945.884 184.656 946.972 184.656ZM956.701 186C956.381 186 956.133 185.912 955.957 185.736C955.781 185.56 955.693 185.312 955.693 184.992V175.344C955.693 175.024 955.781 174.776 955.957 174.6C956.133 174.424 956.381 174.336 956.701 174.336H961.381C962.309 174.336 963.069 174.456 963.661 174.696C964.253 174.92 964.693 175.264 964.981 175.728C965.269 176.176 965.413 176.736 965.413 177.408C965.413 178.144 965.149 178.768 964.621 179.28C964.109 179.792 963.437 180.096 962.605 180.192V179.88C963.597 179.912 964.373 180.192 964.933 180.72C965.509 181.248 965.797 181.936 965.797 182.784C965.797 183.776 965.429 184.56 964.693 185.136C963.957 185.712 962.917 186 961.573 186H956.701ZM957.541 184.68H961.501C962.285 184.68 962.885 184.512 963.301 184.176C963.733 183.824 963.949 183.328 963.949 182.688C963.949 182.048 963.733 181.56 963.301 181.224C962.885 180.888 962.285 180.72 961.501 180.72H957.541V184.68ZM957.541 179.4H961.285C962.005 179.4 962.565 179.232 962.965 178.896C963.381 178.56 963.589 178.096 963.589 177.504C963.589 176.912 963.381 176.456 962.965 176.136C962.565 175.816 962.005 175.656 961.285 175.656H957.541V179.4ZM976.014 186C975.694 186 975.446 185.912 975.27 185.736C975.094 185.56 975.006 185.312 975.006 184.992V175.344C975.006 175.024 975.094 174.776 975.27 174.6C975.446 174.424 975.694 174.336 976.014 174.336H980.694C981.622 174.336 982.382 174.456 982.974 174.696C983.566 174.92 984.006 175.264 984.294 175.728C984.582 176.176 984.726 176.736 984.726 177.408C984.726 178.144 984.462 178.768 983.934 179.28C983.422 179.792 982.75 180.096 981.918 180.192V179.88C982.91 179.912 983.686 180.192 984.246 180.72C984.822 181.248 985.11 181.936 985.11 182.784C985.11 183.776 984.742 184.56 984.006 185.136C983.27 185.712 982.23 186 980.886 186H976.014ZM976.854 184.68H980.814C981.598 184.68 982.198 184.512 982.614 184.176C983.046 183.824 983.262 183.328 983.262 182.688C983.262 182.048 983.046 181.56 982.614 181.224C982.198 180.888 981.598 180.72 980.814 180.72H976.854V184.68ZM976.854 179.4H980.598C981.318 179.4 981.878 179.232 982.278 178.896C982.694 178.56 982.902 178.096 982.902 177.504C982.902 176.912 982.694 176.456 982.278 176.136C981.878 175.816 981.318 175.656 980.598 175.656H976.854V179.4ZM995.302 186.168C994.982 186.168 994.734 186.08 994.558 185.904C994.398 185.728 994.318 185.48 994.318 185.16V175.224C994.318 174.888 994.398 174.64 994.558 174.48C994.734 174.304 994.982 174.216 995.302 174.216C995.606 174.216 995.838 174.304 995.998 174.48C996.174 174.64 996.262 174.888 996.262 175.224V179.208H998.446L1002 174.648C1002.16 174.456 1002.33 174.336 1002.53 174.288C1002.72 174.224 1002.89 174.224 1003.05 174.288C1003.23 174.336 1003.37 174.432 1003.46 174.576C1003.57 174.704 1003.63 174.864 1003.63 175.056C1003.63 175.248 1003.56 175.448 1003.41 175.656L1000.03 180L999.478 179.376C999.926 179.424 1000.32 179.536 1000.65 179.712C1000.99 179.888 1001.31 180.152 1001.61 180.504C1001.92 180.856 1002.25 181.344 1002.6 181.968L1004.33 184.824C1004.44 185.048 1004.48 185.248 1004.45 185.424C1004.43 185.6 1004.35 185.76 1004.21 185.904C1004.06 186.032 1003.89 186.112 1003.7 186.144C1003.53 186.176 1003.35 186.152 1003.17 186.072C1003 185.992 1002.84 185.848 1002.69 185.64L1000.8 182.472C1000.53 182.024 1000.27 181.68 1000.03 181.44C999.79 181.184 999.518 181.008 999.214 180.912C998.91 180.816 998.534 180.768 998.086 180.768H996.262V185.16C996.262 185.48 996.174 185.728 995.998 185.904C995.838 186.08 995.606 186.168 995.302 186.168ZM1011.82 186.216C1010.69 186.216 1009.7 185.968 1008.87 185.472C1008.04 184.976 1007.39 184.28 1006.93 183.384C1006.48 182.472 1006.26 181.4 1006.26 180.168C1006.26 179.24 1006.38 178.408 1006.64 177.672C1006.9 176.92 1007.27 176.28 1007.77 175.752C1008.26 175.224 1008.85 174.824 1009.52 174.552C1010.21 174.264 1010.98 174.12 1011.82 174.12C1012.96 174.12 1013.94 174.368 1014.78 174.864C1015.61 175.36 1016.25 176.064 1016.7 176.976C1017.16 177.872 1017.39 178.936 1017.39 180.168C1017.39 181.096 1017.26 181.928 1017.01 182.664C1016.75 183.4 1016.38 184.04 1015.88 184.584C1015.38 185.112 1014.79 185.52 1014.1 185.808C1013.43 186.08 1012.67 186.216 1011.82 186.216ZM1011.82 184.656C1012.54 184.656 1013.18 184.48 1013.72 184.128C1014.26 183.776 1014.68 183.264 1014.97 182.592C1015.27 181.92 1015.42 181.112 1015.42 180.168C1015.42 178.712 1015.1 177.6 1014.44 176.832C1013.8 176.064 1012.93 175.68 1011.82 175.68C1011.09 175.68 1010.45 175.856 1009.9 176.208C1009.38 176.544 1008.96 177.048 1008.66 177.72C1008.37 178.376 1008.22 179.192 1008.22 180.168C1008.22 181.608 1008.55 182.72 1009.21 183.504C1009.86 184.272 1010.74 184.656 1011.82 184.656ZM1021.53 190.488C1021.21 190.488 1020.97 190.4 1020.81 190.224C1020.65 190.064 1020.57 189.824 1020.57 189.504V175.152C1020.57 174.832 1020.65 174.592 1020.81 174.432C1020.97 174.256 1021.2 174.168 1021.51 174.168C1021.83 174.168 1022.07 174.256 1022.23 174.432C1022.4 174.592 1022.49 174.832 1022.49 175.152V177.432L1022.23 177.096C1022.48 176.184 1022.99 175.464 1023.74 174.936C1024.51 174.392 1025.42 174.12 1026.47 174.12C1027.51 174.12 1028.42 174.368 1029.19 174.864C1029.97 175.344 1030.57 176.04 1030.99 176.952C1031.42 177.848 1031.63 178.92 1031.63 180.168C1031.63 181.4 1031.42 182.472 1030.99 183.384C1030.57 184.28 1029.98 184.976 1029.21 185.472C1028.44 185.968 1027.53 186.216 1026.47 186.216C1025.42 186.216 1024.51 185.952 1023.76 185.424C1023.01 184.88 1022.5 184.16 1022.23 183.264H1022.51V189.504C1022.51 189.824 1022.43 190.064 1022.25 190.224C1022.07 190.4 1021.83 190.488 1021.53 190.488ZM1026.07 184.656C1026.8 184.656 1027.43 184.48 1027.96 184.128C1028.51 183.776 1028.92 183.264 1029.21 182.592C1029.51 181.92 1029.67 181.112 1029.67 180.168C1029.67 178.712 1029.34 177.6 1028.68 176.832C1028.04 176.064 1027.17 175.68 1026.07 175.68C1025.35 175.68 1024.71 175.856 1024.17 176.208C1023.63 176.544 1023.2 177.048 1022.9 177.72C1022.61 178.376 1022.47 179.192 1022.47 180.168C1022.47 181.608 1022.79 182.72 1023.45 183.504C1024.11 184.272 1024.98 184.656 1026.07 184.656ZM1038.64 186.216C1037.8 186.216 1037 186.12 1036.21 185.928C1035.43 185.736 1034.76 185.456 1034.2 185.088C1034 184.96 1033.87 184.816 1033.79 184.656C1033.72 184.496 1033.7 184.336 1033.72 184.176C1033.73 184.016 1033.79 183.88 1033.88 183.768C1034 183.656 1034.14 183.592 1034.32 183.576C1034.51 183.544 1034.71 183.6 1034.92 183.744C1035.43 184.064 1036 184.304 1036.64 184.464C1037.3 184.624 1037.95 184.704 1038.59 184.704C1039.76 184.704 1040.59 184.536 1041.08 184.2C1041.58 183.848 1041.83 183.352 1041.83 182.712C1041.83 182.088 1041.61 181.616 1041.18 181.296C1040.76 180.976 1040.17 180.816 1039.4 180.816H1037.32C1037.06 180.816 1036.85 180.752 1036.69 180.624C1036.55 180.48 1036.48 180.296 1036.48 180.072C1036.48 179.848 1036.55 179.672 1036.69 179.544C1036.85 179.416 1037.06 179.352 1037.32 179.352H1039.16C1039.85 179.352 1040.4 179.192 1040.8 178.872C1041.21 178.552 1041.42 178.112 1041.42 177.552C1041.42 176.96 1041.2 176.496 1040.77 176.16C1040.34 175.808 1039.61 175.632 1038.59 175.632C1037.96 175.632 1037.36 175.704 1036.79 175.848C1036.21 175.976 1035.66 176.192 1035.13 176.496C1034.84 176.64 1034.6 176.688 1034.41 176.64C1034.22 176.576 1034.08 176.456 1033.98 176.28C1033.88 176.104 1033.87 175.912 1033.93 175.704C1034 175.496 1034.15 175.328 1034.39 175.2C1035.01 174.832 1035.7 174.56 1036.45 174.384C1037.2 174.208 1038 174.12 1038.83 174.12C1040.3 174.12 1041.4 174.408 1042.14 174.984C1042.89 175.56 1043.27 176.368 1043.27 177.408C1043.27 178.144 1043.01 178.768 1042.5 179.28C1041.99 179.792 1041.31 180.096 1040.46 180.192V179.88C1041.44 179.912 1042.21 180.192 1042.79 180.72C1043.38 181.232 1043.68 181.92 1043.68 182.784C1043.68 183.824 1043.25 184.656 1042.4 185.28C1041.56 185.904 1040.3 186.216 1038.64 186.216ZM1047.59 186.168C1047.41 186.168 1047.25 186.128 1047.11 186.048C1046.98 185.984 1046.88 185.872 1046.8 185.712C1046.73 185.552 1046.7 185.352 1046.7 185.112V175.128C1046.7 174.808 1046.78 174.568 1046.94 174.408C1047.1 174.248 1047.32 174.168 1047.59 174.168C1047.88 174.168 1048.09 174.248 1048.24 174.408C1048.4 174.568 1048.48 174.808 1048.48 175.128V184.152H1047.88L1054.86 174.792C1054.99 174.616 1055.14 174.472 1055.32 174.36C1055.49 174.232 1055.72 174.168 1055.99 174.168C1056.18 174.168 1056.34 174.2 1056.47 174.264C1056.6 174.328 1056.69 174.44 1056.76 174.6C1056.84 174.744 1056.88 174.944 1056.88 175.2V185.208C1056.88 185.512 1056.8 185.752 1056.64 185.928C1056.49 186.088 1056.28 186.168 1055.99 186.168C1055.7 186.168 1055.48 186.088 1055.32 185.928C1055.17 185.752 1055.1 185.512 1055.1 185.208V176.16H1055.7L1048.69 185.544C1048.58 185.704 1048.44 185.848 1048.26 185.976C1048.1 186.104 1047.88 186.168 1047.59 186.168ZM1061.7 186.168C1061.38 186.168 1061.13 186.08 1060.96 185.904C1060.8 185.728 1060.72 185.48 1060.72 185.16V175.152C1060.72 174.816 1060.8 174.568 1060.96 174.408C1061.13 174.248 1061.38 174.168 1061.7 174.168C1062 174.168 1062.24 174.248 1062.4 174.408C1062.57 174.568 1062.66 174.816 1062.66 175.152V179.184H1069.02V175.152C1069.02 174.816 1069.1 174.568 1069.26 174.408C1069.44 174.248 1069.68 174.168 1069.98 174.168C1070.28 174.168 1070.52 174.248 1070.7 174.408C1070.88 174.568 1070.96 174.816 1070.96 175.152V185.16C1070.96 185.48 1070.88 185.728 1070.7 185.904C1070.52 186.08 1070.28 186.168 1069.98 186.168C1069.68 186.168 1069.44 186.08 1069.26 185.904C1069.1 185.728 1069.02 185.48 1069.02 185.16V180.768H1062.66V185.16C1062.66 185.48 1062.58 185.728 1062.42 185.904C1062.26 186.08 1062.02 186.168 1061.7 186.168ZM1077.42 190.488C1077.18 190.488 1076.99 190.424 1076.84 190.296C1076.7 190.168 1076.61 189.992 1076.58 189.768C1076.56 189.56 1076.6 189.344 1076.7 189.12L1078.35 185.4V186.24L1073.75 175.536C1073.65 175.296 1073.62 175.072 1073.65 174.864C1073.68 174.656 1073.78 174.488 1073.94 174.36C1074.1 174.232 1074.32 174.168 1074.61 174.168C1074.87 174.168 1075.07 174.224 1075.21 174.336C1075.35 174.448 1075.48 174.648 1075.59 174.936L1079.53 184.584H1078.88L1082.87 174.936C1082.99 174.648 1083.13 174.448 1083.27 174.336C1083.42 174.224 1083.63 174.168 1083.9 174.168C1084.15 174.168 1084.35 174.232 1084.47 174.36C1084.62 174.488 1084.7 174.656 1084.71 174.864C1084.75 175.056 1084.71 175.272 1084.62 175.512L1078.47 189.72C1078.35 190.008 1078.2 190.208 1078.04 190.32C1077.9 190.432 1077.69 190.488 1077.42 190.488ZM1102.53 186.168C1102.22 186.168 1101.98 186.08 1101.81 185.904C1101.65 185.728 1101.57 185.48 1101.57 185.16V175.896H1096.86V177.384C1096.86 178.632 1096.8 179.736 1096.67 180.696C1096.56 181.64 1096.38 182.456 1096.12 183.144C1095.86 183.832 1095.52 184.408 1095.09 184.872C1094.67 185.336 1094.15 185.728 1093.53 186.048C1093.32 186.144 1093.12 186.168 1092.93 186.12C1092.74 186.088 1092.58 186.016 1092.45 185.904C1092.34 185.776 1092.26 185.624 1092.21 185.448C1092.18 185.272 1092.2 185.096 1092.28 184.92C1092.36 184.744 1092.5 184.6 1092.71 184.488C1093.18 184.232 1093.55 183.912 1093.84 183.528C1094.14 183.144 1094.38 182.664 1094.56 182.088C1094.74 181.512 1094.86 180.84 1094.92 180.072C1095 179.288 1095.04 178.368 1095.04 177.312V175.44C1095.04 175.072 1095.14 174.8 1095.33 174.624C1095.52 174.432 1095.79 174.336 1096.14 174.336H1102.41C1102.76 174.336 1103.03 174.432 1103.22 174.624C1103.42 174.8 1103.51 175.072 1103.51 175.44V185.16C1103.51 185.48 1103.42 185.728 1103.25 185.904C1103.09 186.08 1102.85 186.168 1102.53 186.168ZM1108.25 186.168C1108.07 186.168 1107.91 186.128 1107.77 186.048C1107.64 185.984 1107.53 185.872 1107.45 185.712C1107.39 185.552 1107.36 185.352 1107.36 185.112V175.128C1107.36 174.808 1107.44 174.568 1107.6 174.408C1107.76 174.248 1107.97 174.168 1108.25 174.168C1108.53 174.168 1108.75 174.248 1108.89 174.408C1109.05 174.568 1109.13 174.808 1109.13 175.128V184.152H1108.53L1115.52 174.792C1115.65 174.616 1115.8 174.472 1115.97 174.36C1116.15 174.232 1116.37 174.168 1116.65 174.168C1116.84 174.168 1117 174.2 1117.13 174.264C1117.25 174.328 1117.35 174.44 1117.41 174.6C1117.49 174.744 1117.53 174.944 1117.53 175.2V185.208C1117.53 185.512 1117.45 185.752 1117.29 185.928C1117.15 186.088 1116.93 186.168 1116.65 186.168C1116.36 186.168 1116.13 186.088 1115.97 185.928C1115.83 185.752 1115.76 185.512 1115.76 185.208V176.16H1116.36L1109.35 185.544C1109.24 185.704 1109.09 185.848 1108.92 185.976C1108.76 186.104 1108.53 186.168 1108.25 186.168ZM1126.29 186.216C1125.14 186.216 1124.14 185.968 1123.29 185.472C1122.46 184.96 1121.81 184.208 1121.35 183.216C1120.9 182.224 1120.68 181.008 1120.68 179.568V177.768C1120.68 176.216 1120.88 174.92 1121.28 173.88C1121.69 172.84 1122.32 172 1123.15 171.36C1124 170.72 1125.05 170.232 1126.29 169.896L1129.8 168.912C1130.09 168.832 1130.33 168.84 1130.52 168.936C1130.73 169.032 1130.85 169.208 1130.9 169.464C1130.97 169.736 1130.93 169.968 1130.78 170.16C1130.65 170.352 1130.45 170.488 1130.16 170.568L1126.44 171.576C1125.57 171.816 1124.85 172.176 1124.28 172.656C1123.7 173.136 1123.27 173.728 1122.98 174.432C1122.69 175.12 1122.55 175.904 1122.55 176.784V177.72H1122.21C1122.41 177.016 1122.71 176.408 1123.13 175.896C1123.54 175.384 1124.05 174.992 1124.66 174.72C1125.29 174.432 1125.97 174.288 1126.73 174.288C1127.73 174.288 1128.62 174.528 1129.39 175.008C1130.16 175.488 1130.75 176.168 1131.17 177.048C1131.6 177.928 1131.81 178.976 1131.81 180.192C1131.81 181.408 1131.58 182.472 1131.12 183.384C1130.67 184.28 1130.03 184.976 1129.2 185.472C1128.38 185.968 1127.41 186.216 1126.29 186.216ZM1126.22 184.656C1126.99 184.656 1127.64 184.488 1128.17 184.152C1128.71 183.8 1129.13 183.296 1129.41 182.64C1129.7 181.984 1129.85 181.184 1129.85 180.24C1129.85 178.848 1129.53 177.768 1128.89 177C1128.25 176.232 1127.37 175.848 1126.25 175.848C1125.49 175.848 1124.85 176.016 1124.3 176.352C1123.77 176.688 1123.37 177.176 1123.08 177.816C1122.79 178.44 1122.65 179.192 1122.65 180.072C1122.65 181.576 1122.96 182.72 1123.58 183.504C1124.22 184.272 1125.1 184.656 1126.22 184.656ZM1139.84 186.216C1138.7 186.216 1137.72 185.968 1136.89 185.472C1136.05 184.976 1135.41 184.28 1134.94 183.384C1134.49 182.472 1134.27 181.4 1134.27 180.168C1134.27 179.24 1134.4 178.408 1134.65 177.672C1134.91 176.92 1135.29 176.28 1135.78 175.752C1136.28 175.224 1136.86 174.824 1137.53 174.552C1138.22 174.264 1138.99 174.12 1139.84 174.12C1140.97 174.12 1141.96 174.368 1142.79 174.864C1143.62 175.36 1144.26 176.064 1144.71 176.976C1145.17 177.872 1145.41 178.936 1145.41 180.168C1145.41 181.096 1145.28 181.928 1145.02 182.664C1144.77 183.4 1144.39 184.04 1143.89 184.584C1143.4 185.112 1142.81 185.52 1142.12 185.808C1141.45 186.08 1140.69 186.216 1139.84 186.216ZM1139.84 184.656C1140.56 184.656 1141.19 184.48 1141.73 184.128C1142.28 183.776 1142.69 183.264 1142.98 182.592C1143.29 181.92 1143.44 181.112 1143.44 180.168C1143.44 178.712 1143.11 177.6 1142.45 176.832C1141.81 176.064 1140.94 175.68 1139.84 175.68C1139.1 175.68 1138.46 175.856 1137.92 176.208C1137.39 176.544 1136.97 177.048 1136.67 177.72C1136.38 178.376 1136.24 179.192 1136.24 180.168C1136.24 181.608 1136.57 182.72 1137.22 183.504C1137.88 184.272 1138.75 184.656 1139.84 184.656ZM1149.19 188.28C1149.03 188.488 1148.87 188.608 1148.69 188.64C1148.51 188.672 1148.36 188.64 1148.23 188.544C1148.11 188.448 1148.03 188.312 1148.02 188.136C1148.02 187.96 1148.1 187.768 1148.26 187.56C1148.51 187.224 1148.69 186.88 1148.79 186.528C1148.88 186.192 1148.93 185.88 1148.93 185.592L1149.03 186.096C1148.61 186.096 1148.27 185.976 1148.02 185.736C1147.78 185.48 1147.66 185.16 1147.66 184.776C1147.66 184.392 1147.77 184.08 1147.99 183.84C1148.23 183.584 1148.55 183.456 1148.93 183.456C1149.35 183.456 1149.67 183.6 1149.91 183.888C1150.15 184.16 1150.27 184.56 1150.27 185.088C1150.27 185.424 1150.24 185.768 1150.18 186.12C1150.11 186.488 1150 186.856 1149.84 187.224C1149.68 187.592 1149.47 187.944 1149.19 188.28ZM1164.66 186.216C1163.52 186.216 1162.54 185.968 1161.71 185.472C1160.88 184.976 1160.23 184.28 1159.76 183.384C1159.32 182.472 1159.09 181.4 1159.09 180.168C1159.09 179.24 1159.22 178.408 1159.48 177.672C1159.73 176.92 1160.11 176.28 1160.6 175.752C1161.1 175.224 1161.68 174.824 1162.36 174.552C1163.04 174.264 1163.81 174.12 1164.66 174.12C1165.8 174.12 1166.78 174.368 1167.61 174.864C1168.44 175.36 1169.08 176.064 1169.53 176.976C1170 177.872 1170.23 178.936 1170.23 180.168C1170.23 181.096 1170.1 181.928 1169.84 182.664C1169.59 183.4 1169.21 184.04 1168.72 184.584C1168.22 185.112 1167.63 185.52 1166.94 185.808C1166.27 186.08 1165.51 186.216 1164.66 186.216ZM1164.66 184.656C1165.38 184.656 1166.01 184.48 1166.56 184.128C1167.1 183.776 1167.52 183.264 1167.8 182.592C1168.11 181.92 1168.26 181.112 1168.26 180.168C1168.26 178.712 1167.93 177.6 1167.28 176.832C1166.64 176.064 1165.76 175.68 1164.66 175.68C1163.92 175.68 1163.28 175.856 1162.74 176.208C1162.21 176.544 1161.8 177.048 1161.49 177.72C1161.2 178.376 1161.06 179.192 1161.06 180.168C1161.06 181.608 1161.39 182.72 1162.04 183.504C1162.7 184.272 1163.57 184.656 1164.66 184.656ZM1180.99 190.488C1180.68 190.488 1180.44 190.4 1180.27 190.224C1180.11 190.048 1180.03 189.792 1180.03 189.456V183.432H1180.24C1180.02 184.312 1179.62 185 1179.04 185.496C1178.47 185.976 1177.76 186.216 1176.91 186.216C1176.06 186.216 1175.32 185.968 1174.68 185.472C1174.05 184.976 1173.56 184.272 1173.21 183.36C1172.86 182.448 1172.68 181.384 1172.68 180.168C1172.68 178.92 1172.86 177.848 1173.21 176.952C1173.56 176.04 1174.05 175.344 1174.68 174.864C1175.32 174.368 1176.06 174.12 1176.91 174.12C1177.77 174.12 1178.48 174.368 1179.04 174.864C1179.62 175.344 1180.02 176.024 1180.24 176.904H1180.03V169.944C1180.03 169.608 1180.11 169.352 1180.27 169.176C1180.44 169 1180.68 168.912 1180.99 168.912C1181.31 168.912 1181.55 169 1181.71 169.176C1181.88 169.352 1181.97 169.608 1181.97 169.944V176.904H1181.73C1181.97 176.024 1182.37 175.344 1182.93 174.864C1183.51 174.368 1184.23 174.12 1185.09 174.12C1185.94 174.12 1186.68 174.368 1187.3 174.864C1187.94 175.344 1188.44 176.04 1188.79 176.952C1189.14 177.848 1189.32 178.92 1189.32 180.168C1189.32 181.384 1189.14 182.448 1188.79 183.36C1188.44 184.272 1187.95 184.976 1187.32 185.472C1186.7 185.968 1185.96 186.216 1185.09 186.216C1184.24 186.216 1183.53 185.976 1182.96 185.496C1182.38 185 1181.97 184.312 1181.73 183.432H1181.97V189.456C1181.97 189.792 1181.89 190.048 1181.73 190.224C1181.57 190.4 1181.32 190.488 1180.99 190.488ZM1177.34 184.68C1177.92 184.68 1178.4 184.512 1178.8 184.176C1179.2 183.824 1179.51 183.312 1179.72 182.64C1179.94 181.968 1180.05 181.144 1180.05 180.168C1180.05 178.696 1179.8 177.576 1179.31 176.808C1178.83 176.04 1178.17 175.656 1177.34 175.656C1176.8 175.656 1176.32 175.832 1175.9 176.184C1175.5 176.52 1175.19 177.024 1174.96 177.696C1174.74 178.368 1174.63 179.192 1174.63 180.168C1174.63 181.144 1174.73 181.968 1174.94 182.64C1175.16 183.312 1175.48 183.824 1175.9 184.176C1176.32 184.512 1176.8 184.68 1177.34 184.68ZM1184.64 184.68C1185.2 184.68 1185.68 184.512 1186.08 184.176C1186.49 183.824 1186.81 183.312 1187.04 182.64C1187.26 181.968 1187.37 181.144 1187.37 180.168C1187.37 179.192 1187.25 178.368 1187.01 177.696C1186.79 177.024 1186.48 176.52 1186.08 176.184C1185.68 175.832 1185.2 175.656 1184.64 175.656C1184.08 175.656 1183.6 175.832 1183.2 176.184C1182.8 176.52 1182.48 177.024 1182.26 177.696C1182.05 178.368 1181.95 179.192 1181.95 180.168C1181.95 181.656 1182.18 182.784 1182.64 183.552C1183.12 184.304 1183.79 184.68 1184.64 184.68ZM1193.44 190.488C1193.12 190.488 1192.88 190.4 1192.72 190.224C1192.56 190.064 1192.48 189.824 1192.48 189.504V175.152C1192.48 174.832 1192.56 174.592 1192.72 174.432C1192.88 174.256 1193.12 174.168 1193.42 174.168C1193.74 174.168 1193.98 174.256 1194.14 174.432C1194.32 174.592 1194.4 174.832 1194.4 175.152V177.432L1194.14 177.096C1194.4 176.184 1194.9 175.464 1195.65 174.936C1196.42 174.392 1197.33 174.12 1198.39 174.12C1199.43 174.12 1200.33 174.368 1201.1 174.864C1201.88 175.344 1202.48 176.04 1202.9 176.952C1203.33 177.848 1203.55 178.92 1203.55 180.168C1203.55 181.4 1203.33 182.472 1202.9 183.384C1202.48 184.28 1201.89 184.976 1201.12 185.472C1200.36 185.968 1199.44 186.216 1198.39 186.216C1197.33 186.216 1196.43 185.952 1195.68 185.424C1194.92 184.88 1194.41 184.16 1194.14 183.264H1194.43V189.504C1194.43 189.824 1194.34 190.064 1194.16 190.224C1193.99 190.4 1193.75 190.488 1193.44 190.488ZM1197.98 184.656C1198.72 184.656 1199.35 184.48 1199.88 184.128C1200.42 183.776 1200.84 183.264 1201.12 182.592C1201.43 181.92 1201.58 181.112 1201.58 180.168C1201.58 178.712 1201.25 177.6 1200.6 176.832C1199.96 176.064 1199.08 175.68 1197.98 175.68C1197.26 175.68 1196.63 175.856 1196.08 176.208C1195.54 176.544 1195.12 177.048 1194.81 177.72C1194.52 178.376 1194.38 179.192 1194.38 180.168C1194.38 181.608 1194.71 182.72 1195.36 183.504C1196.02 184.272 1196.89 184.656 1197.98 184.656ZM1207.55 186.168C1207.28 186.168 1207.06 186.088 1206.9 185.928C1206.76 185.752 1206.69 185.52 1206.69 185.232V175.2C1206.69 174.976 1206.72 174.792 1206.78 174.648C1206.85 174.488 1206.94 174.368 1207.07 174.288C1207.2 174.208 1207.36 174.168 1207.55 174.168C1207.74 174.168 1207.9 174.2 1208.03 174.264C1208.16 174.312 1208.27 174.392 1208.37 174.504C1208.46 174.6 1208.54 174.72 1208.61 174.864L1212.69 182.136L1216.77 174.864C1216.83 174.72 1216.91 174.6 1217.01 174.504C1217.1 174.392 1217.21 174.312 1217.34 174.264C1217.47 174.2 1217.62 174.168 1217.8 174.168C1218.09 174.168 1218.3 174.256 1218.45 174.432C1218.59 174.592 1218.66 174.848 1218.66 175.2V185.232C1218.66 185.52 1218.59 185.752 1218.45 185.928C1218.3 186.088 1218.09 186.168 1217.8 186.168C1217.53 186.168 1217.31 186.088 1217.15 185.928C1217.01 185.752 1216.93 185.52 1216.93 185.232V176.568H1217.49L1213.38 183.768C1213.32 183.896 1213.23 184.008 1213.12 184.104C1213.01 184.184 1212.86 184.224 1212.69 184.224C1212.49 184.224 1212.34 184.176 1212.23 184.08C1212.13 183.984 1212.05 183.88 1211.97 183.768L1207.86 176.568H1208.41V185.232C1208.41 185.52 1208.33 185.752 1208.17 185.928C1208.03 186.088 1207.82 186.168 1207.55 186.168ZM1223.39 186.168C1223.22 186.168 1223.06 186.128 1222.91 186.048C1222.79 185.984 1222.68 185.872 1222.6 185.712C1222.54 185.552 1222.51 185.352 1222.51 185.112V175.128C1222.51 174.808 1222.59 174.568 1222.75 174.408C1222.91 174.248 1223.12 174.168 1223.39 174.168C1223.68 174.168 1223.9 174.248 1224.04 174.408C1224.2 174.568 1224.28 174.808 1224.28 175.128V184.152H1223.68L1230.67 174.792C1230.79 174.616 1230.95 174.472 1231.12 174.36C1231.3 174.232 1231.52 174.168 1231.79 174.168C1231.99 174.168 1232.15 174.2 1232.27 174.264C1232.4 174.328 1232.5 174.44 1232.56 174.6C1232.64 174.744 1232.68 174.944 1232.68 175.2V185.208C1232.68 185.512 1232.6 185.752 1232.44 185.928C1232.3 186.088 1232.08 186.168 1231.79 186.168C1231.51 186.168 1231.28 186.088 1231.12 185.928C1230.98 185.752 1230.91 185.512 1230.91 185.208V176.16H1231.51L1224.5 185.544C1224.39 185.704 1224.24 185.848 1224.07 185.976C1223.91 186.104 1223.68 186.168 1223.39 186.168ZM1239.93 186.168C1239.63 186.168 1239.39 186.08 1239.21 185.904C1239.03 185.728 1238.95 185.48 1238.95 185.16V175.896H1235.44C1234.83 175.896 1234.53 175.632 1234.53 175.104C1234.53 174.864 1234.61 174.68 1234.77 174.552C1234.93 174.408 1235.15 174.336 1235.44 174.336H1244.42C1245.01 174.336 1245.31 174.592 1245.31 175.104C1245.31 175.36 1245.23 175.56 1245.07 175.704C1244.92 175.832 1244.71 175.896 1244.42 175.896H1240.89V185.16C1240.89 185.48 1240.81 185.728 1240.65 185.904C1240.51 186.08 1240.27 186.168 1239.93 186.168ZM1252.42 186.216C1251.19 186.216 1250.12 185.976 1249.23 185.496C1248.35 185 1247.66 184.304 1247.16 183.408C1246.68 182.512 1246.44 181.44 1246.44 180.192C1246.44 178.976 1246.68 177.92 1247.16 177.024C1247.64 176.112 1248.3 175.4 1249.13 174.888C1249.98 174.376 1250.95 174.12 1252.06 174.12C1252.84 174.12 1253.55 174.256 1254.17 174.528C1254.79 174.784 1255.32 175.16 1255.75 175.656C1256.2 176.152 1256.54 176.752 1256.76 177.456C1257 178.16 1257.12 178.952 1257.12 179.832C1257.12 180.088 1257.05 180.28 1256.91 180.408C1256.76 180.52 1256.55 180.576 1256.28 180.576H1247.93V179.304H1255.83L1255.44 179.616C1255.44 178.752 1255.31 178.024 1255.06 177.432C1254.8 176.824 1254.43 176.36 1253.93 176.04C1253.45 175.72 1252.84 175.56 1252.11 175.56C1251.29 175.56 1250.59 175.752 1250.02 176.136C1249.46 176.504 1249.03 177.024 1248.75 177.696C1248.46 178.352 1248.31 179.12 1248.31 180V180.144C1248.31 181.616 1248.67 182.736 1249.37 183.504C1250.09 184.272 1251.11 184.656 1252.42 184.656C1252.96 184.656 1253.5 184.584 1254.03 184.44C1254.57 184.296 1255.1 184.056 1255.61 183.72C1255.83 183.576 1256.03 183.512 1256.21 183.528C1256.4 183.528 1256.55 183.584 1256.67 183.696C1256.78 183.792 1256.85 183.92 1256.88 184.08C1256.93 184.224 1256.91 184.384 1256.83 184.56C1256.77 184.736 1256.63 184.888 1256.43 185.016C1255.9 185.4 1255.27 185.696 1254.55 185.904C1253.83 186.112 1253.12 186.216 1252.42 186.216ZM579.488 222.288C579.216 222.288 579.008 222.208 578.864 222.048C578.72 221.888 578.648 221.664 578.648 221.376V218.4C578.648 217.76 578.968 217.44 579.608 217.44H580.76L579.608 217.848C580.04 217.272 580.384 216.648 580.64 215.976C580.912 215.288 581.112 214.52 581.24 213.672C581.368 212.824 581.432 211.856 581.432 210.768V208.44C581.432 208.072 581.528 207.8 581.72 207.624C581.912 207.432 582.184 207.336 582.536 207.336H588.584C588.952 207.336 589.224 207.432 589.4 207.624C589.592 207.8 589.688 208.072 589.688 208.44V218.328L588.8 217.44H590.576C590.88 217.44 591.112 217.52 591.272 217.68C591.448 217.84 591.536 218.08 591.536 218.4V221.376C591.536 221.984 591.256 222.288 590.696 222.288C590.424 222.288 590.216 222.208 590.072 222.048C589.928 221.888 589.856 221.664 589.856 221.376V219H580.304V221.376C580.304 221.984 580.032 222.288 579.488 222.288ZM581.744 217.44H587.84V208.872H583.16V211.104C583.16 212.304 583.04 213.464 582.8 214.584C582.56 215.688 582.208 216.64 581.744 217.44ZM598.995 219.216C597.859 219.216 596.875 218.968 596.043 218.472C595.211 217.976 594.563 217.28 594.099 216.384C593.651 215.472 593.427 214.4 593.427 213.168C593.427 212.24 593.555 211.408 593.811 210.672C594.067 209.92 594.443 209.28 594.939 208.752C595.435 208.224 596.019 207.824 596.691 207.552C597.379 207.264 598.147 207.12 598.995 207.12C600.131 207.12 601.115 207.368 601.947 207.864C602.779 208.36 603.419 209.064 603.867 209.976C604.331 210.872 604.563 211.936 604.563 213.168C604.563 214.096 604.435 214.928 604.179 215.664C603.923 216.4 603.547 217.04 603.051 217.584C602.555 218.112 601.963 218.52 601.275 218.808C600.603 219.08 599.843 219.216 598.995 219.216ZM598.995 217.656C599.715 217.656 600.347 217.48 600.891 217.128C601.435 216.776 601.851 216.264 602.139 215.592C602.443 214.92 602.595 214.112 602.595 213.168C602.595 211.712 602.267 210.6 601.611 209.832C600.971 209.064 600.099 208.68 598.995 208.68C598.259 208.68 597.619 208.856 597.075 209.208C596.547 209.544 596.131 210.048 595.827 210.72C595.539 211.376 595.395 212.192 595.395 213.168C595.395 214.608 595.723 215.72 596.379 216.504C597.035 217.272 597.907 217.656 598.995 217.656ZM612.685 219.216C611.517 219.216 610.509 218.96 609.661 218.448C608.813 217.936 608.157 217.224 607.693 216.312C607.245 215.384 607.021 214.312 607.021 213.096C607.021 212.168 607.149 211.336 607.405 210.6C607.661 209.864 608.037 209.24 608.533 208.728C609.029 208.2 609.621 207.8 610.309 207.528C611.013 207.256 611.805 207.12 612.685 207.12C613.261 207.12 613.861 207.208 614.485 207.384C615.109 207.56 615.677 207.864 616.189 208.296C616.349 208.408 616.453 208.544 616.501 208.704C616.549 208.864 616.549 209.024 616.501 209.184C616.453 209.328 616.373 209.456 616.261 209.568C616.149 209.664 616.005 209.72 615.829 209.736C615.669 209.752 615.501 209.696 615.325 209.568C614.909 209.248 614.485 209.024 614.053 208.896C613.621 208.768 613.205 208.704 612.805 208.704C612.181 208.704 611.637 208.808 611.173 209.016C610.709 209.208 610.317 209.488 609.997 209.856C609.677 210.224 609.429 210.68 609.253 211.224C609.093 211.768 609.013 212.4 609.013 213.12C609.013 214.512 609.341 215.616 609.997 216.432C610.653 217.232 611.589 217.632 612.805 217.632C613.205 217.632 613.613 217.568 614.029 217.44C614.461 217.312 614.893 217.088 615.325 216.768C615.501 216.64 615.669 216.584 615.829 216.6C615.989 216.616 616.125 216.68 616.237 216.792C616.349 216.888 616.421 217.016 616.453 217.176C616.501 217.336 616.501 217.496 616.453 217.656C616.405 217.8 616.301 217.928 616.141 218.04C615.629 218.456 615.069 218.76 614.461 218.952C613.853 219.128 613.261 219.216 612.685 219.216ZM622.469 219.168C622.165 219.168 621.925 219.08 621.749 218.904C621.573 218.728 621.485 218.48 621.485 218.16V208.896H617.981C617.373 208.896 617.069 208.632 617.069 208.104C617.069 207.864 617.149 207.68 617.309 207.552C617.469 207.408 617.693 207.336 617.981 207.336H626.957C627.549 207.336 627.845 207.592 627.845 208.104C627.845 208.36 627.765 208.56 627.605 208.704C627.461 208.832 627.245 208.896 626.957 208.896H623.429V218.16C623.429 218.48 623.349 218.728 623.189 218.904C623.045 219.08 622.805 219.168 622.469 219.168ZM633.421 219.216C632.621 219.216 631.901 219.064 631.261 218.76C630.637 218.44 630.141 218.008 629.773 217.464C629.405 216.92 629.221 216.312 629.221 215.64C629.221 214.776 629.437 214.096 629.869 213.6C630.317 213.104 631.045 212.752 632.053 212.544C633.077 212.336 634.469 212.232 636.229 212.232H637.309V213.504H636.253C634.957 213.504 633.933 213.568 633.181 213.696C632.445 213.808 631.925 214.008 631.621 214.296C631.333 214.584 631.189 214.992 631.189 215.52C631.189 216.176 631.413 216.712 631.861 217.128C632.325 217.544 632.949 217.752 633.733 217.752C634.373 217.752 634.933 217.6 635.413 217.296C635.909 216.992 636.293 216.576 636.565 216.048C636.853 215.52 636.997 214.912 636.997 214.224V211.488C636.997 210.496 636.797 209.784 636.397 209.352C635.997 208.904 635.341 208.68 634.429 208.68C633.869 208.68 633.309 208.752 632.749 208.896C632.189 209.04 631.597 209.272 630.973 209.592C630.749 209.704 630.557 209.744 630.397 209.712C630.237 209.664 630.109 209.576 630.013 209.448C629.917 209.32 629.861 209.176 629.845 209.016C629.829 208.84 629.861 208.672 629.941 208.512C630.037 208.352 630.181 208.224 630.373 208.128C631.077 207.776 631.773 207.52 632.461 207.36C633.149 207.2 633.805 207.12 634.429 207.12C635.437 207.12 636.269 207.288 636.925 207.624C637.581 207.944 638.069 208.44 638.389 209.112C638.709 209.768 638.869 210.616 638.869 211.656V218.16C638.869 218.48 638.789 218.728 638.629 218.904C638.485 219.08 638.269 219.168 637.981 219.168C637.677 219.168 637.445 219.08 637.285 218.904C637.125 218.728 637.045 218.48 637.045 218.16V216.288H637.261C637.133 216.896 636.885 217.416 636.517 217.848C636.165 218.28 635.725 218.616 635.197 218.856C634.669 219.096 634.077 219.216 633.421 219.216ZM643.67 219C643.35 219 643.102 218.912 642.926 218.736C642.75 218.56 642.662 218.312 642.662 217.992V208.344C642.662 208.024 642.75 207.776 642.926 207.6C643.102 207.424 643.35 207.336 643.67 207.336H648.35C649.278 207.336 650.038 207.456 650.63 207.696C651.222 207.92 651.662 208.264 651.95 208.728C652.238 209.176 652.382 209.736 652.382 210.408C652.382 211.144 652.118 211.768 651.59 212.28C651.078 212.792 650.406 213.096 649.574 213.192V212.88C650.566 212.912 651.342 213.192 651.902 213.72C652.478 214.248 652.766 214.936 652.766 215.784C652.766 216.776 652.398 217.56 651.662 218.136C650.926 218.712 649.886 219 648.542 219H643.67ZM644.51 217.68H648.47C649.254 217.68 649.854 217.512 650.27 217.176C650.702 216.824 650.918 216.328 650.918 215.688C650.918 215.048 650.702 214.56 650.27 214.224C649.854 213.888 649.254 213.72 648.47 213.72H644.51V217.68ZM644.51 212.4H648.254C648.974 212.4 649.534 212.232 649.934 211.896C650.35 211.56 650.558 211.096 650.558 210.504C650.558 209.912 650.35 209.456 649.934 209.136C649.534 208.816 648.974 208.656 648.254 208.656H644.51V212.4ZM656.771 219.168C656.451 219.168 656.203 219.08 656.027 218.904C655.867 218.728 655.787 218.48 655.787 218.16V208.224C655.787 207.888 655.867 207.64 656.027 207.48C656.203 207.304 656.451 207.216 656.771 207.216C657.075 207.216 657.307 207.304 657.467 207.48C657.643 207.64 657.731 207.888 657.731 208.224V212.208H659.915L663.467 207.648C663.627 207.456 663.803 207.336 663.995 207.288C664.187 207.224 664.363 207.224 664.523 207.288C664.699 207.336 664.835 207.432 664.931 207.576C665.043 207.704 665.099 207.864 665.099 208.056C665.099 208.248 665.027 208.448 664.883 208.656L661.499 213L660.947 212.376C661.395 212.424 661.787 212.536 662.123 212.712C662.459 212.888 662.779 213.152 663.083 213.504C663.387 213.856 663.715 214.344 664.067 214.968L665.795 217.824C665.907 218.048 665.947 218.248 665.915 218.424C665.899 218.6 665.819 218.76 665.675 218.904C665.531 219.032 665.363 219.112 665.171 219.144C664.995 219.176 664.819 219.152 664.643 219.072C664.467 218.992 664.307 218.848 664.163 218.64L662.267 215.472C661.995 215.024 661.739 214.68 661.499 214.44C661.259 214.184 660.987 214.008 660.683 213.912C660.379 213.816 660.003 213.768 659.555 213.768H657.731V218.16C657.731 218.48 657.643 218.728 657.467 218.904C657.307 219.08 657.075 219.168 656.771 219.168ZM671.036 223.488C670.796 223.488 670.604 223.424 670.46 223.296C670.316 223.168 670.228 222.992 670.196 222.768C670.18 222.56 670.22 222.344 670.316 222.12L671.972 218.4V219.24L667.364 208.536C667.268 208.296 667.236 208.072 667.268 207.864C667.3 207.656 667.396 207.488 667.556 207.36C667.716 207.232 667.94 207.168 668.228 207.168C668.484 207.168 668.684 207.224 668.828 207.336C668.972 207.448 669.1 207.648 669.212 207.936L673.148 217.584H672.5L676.484 207.936C676.612 207.648 676.748 207.448 676.892 207.336C677.036 207.224 677.244 207.168 677.516 207.168C677.772 207.168 677.964 207.232 678.092 207.36C678.236 207.488 678.316 207.656 678.332 207.864C678.364 208.056 678.332 208.272 678.236 208.512L672.092 222.72C671.964 223.008 671.82 223.208 671.66 223.32C671.516 223.432 671.308 223.488 671.036 223.488Z" fill="#F2F2F2"/>
</g>
<line x1="571" y1="143" x2="1323" y2="143" stroke="#D9D9D9" stroke-opacity="0.8" stroke-width="2"/>
<g filter="url(#filter1_bd_89_543)">
<path d="M604.812 95.125C604.812 98.8125 604.521 102.115 603.938 105.031C603.375 107.927 602.479 110.385 601.25 112.406C600.021 114.427 598.417 115.969 596.438 117.031C594.458 118.094 592.062 118.625 589.25 118.625C585.729 118.625 582.823 117.698 580.531 115.844C578.24 113.969 576.542 111.281 575.438 107.781C574.333 104.26 573.781 100.042 573.781 95.125C573.781 90.2083 574.281 86 575.281 82.5C576.302 78.9792 577.948 76.2812 580.219 74.4062C582.49 72.5312 585.5 71.5938 589.25 71.5938C592.792 71.5938 595.708 72.5312 598 74.4062C600.312 76.2604 602.021 78.9479 603.125 82.4688C604.25 85.9688 604.812 90.1875 604.812 95.125ZM581.188 95.125C581.188 98.9792 581.438 102.198 581.938 104.781C582.458 107.365 583.312 109.302 584.5 110.594C585.688 111.865 587.271 112.5 589.25 112.5C591.229 112.5 592.812 111.865 594 110.594C595.188 109.323 596.042 107.396 596.562 104.812C597.104 102.229 597.375 99 597.375 95.125C597.375 91.2917 597.115 88.0833 596.594 85.5C596.073 82.9167 595.219 80.9792 594.031 79.6875C592.844 78.375 591.25 77.7188 589.25 77.7188C587.25 77.7188 585.656 78.375 584.469 79.6875C583.302 80.9792 582.458 82.9167 581.938 85.5C581.438 88.0833 581.188 91.2917 581.188 95.125ZM639.688 82.75C639.688 84.8125 639.271 86.6042 638.438 88.125C637.604 89.6458 636.458 90.8958 635 91.875C633.562 92.8333 631.896 93.5208 630 93.9375V94.1562C633.646 94.6146 636.396 95.7604 638.25 97.5938C640.125 99.4271 641.062 101.854 641.062 104.875C641.062 107.521 640.427 109.885 639.156 111.969C637.885 114.031 635.938 115.656 633.312 116.844C630.688 118.031 627.312 118.625 623.188 118.625C620.708 118.625 618.406 118.427 616.281 118.031C614.177 117.635 612.177 117 610.281 116.125V109.594C612.219 110.552 614.281 111.292 616.469 111.812C618.656 112.333 620.729 112.594 622.688 112.594C626.5 112.594 629.219 111.885 630.844 110.469C632.469 109.031 633.281 107.052 633.281 104.531C633.281 102.906 632.854 101.573 632 100.531C631.167 99.4896 629.865 98.7083 628.094 98.1875C626.344 97.6667 624.083 97.4062 621.312 97.4062H617.281V91.5H621.344C623.99 91.5 626.115 91.1875 627.719 90.5625C629.323 89.9167 630.479 89.0312 631.188 87.9062C631.917 86.7812 632.281 85.4688 632.281 83.9688C632.281 82.0104 631.646 80.4896 630.375 79.4062C629.104 78.3021 627.219 77.75 624.719 77.75C623.177 77.75 621.771 77.9271 620.5 78.2812C619.25 78.6354 618.094 79.0833 617.031 79.625C615.969 80.1667 614.958 80.75 614 81.375L610.469 76.2812C612.198 74.9896 614.26 73.8958 616.656 73C619.052 72.1042 621.844 71.6562 625.031 71.6562C629.719 71.6562 633.333 72.6667 635.875 74.6875C638.417 76.6875 639.688 79.375 639.688 82.75ZM648.438 114.125C648.438 112.417 648.875 111.219 649.75 110.531C650.646 109.823 651.729 109.469 653 109.469C654.271 109.469 655.354 109.823 656.25 110.531C657.167 111.219 657.625 112.417 657.625 114.125C657.625 115.792 657.167 117 656.25 117.75C655.354 118.479 654.271 118.844 653 118.844C651.729 118.844 650.646 118.479 649.75 117.75C648.875 117 648.438 115.792 648.438 114.125Z" fill="url(#paint1_linear_89_543)" fill-opacity="0.9" shape-rendering="crispEdges"/>
</g>
<g filter="url(#filter2_bd_89_543)">
<path d="M720.922 94.8203C720.922 97.4609 720.586 99.8672 719.914 102.039C719.258 104.195 718.266 106.055 716.938 107.617C715.609 109.164 713.945 110.359 711.945 111.203C709.945 112.047 707.602 112.469 704.914 112.469C702.18 112.469 699.805 112.047 697.789 111.203C695.789 110.359 694.125 109.156 692.797 107.594C691.484 106.031 690.5 104.164 689.844 101.992C689.188 99.8203 688.859 97.4141 688.859 94.7734C688.859 91.2422 689.438 88.1641 690.594 85.5391C691.766 82.8984 693.539 80.8516 695.914 79.3984C698.305 77.9297 701.32 77.1953 704.961 77.1953C708.523 77.1953 711.484 77.9219 713.844 79.375C716.203 80.8281 717.969 82.875 719.141 85.5156C720.328 88.1406 720.922 91.2422 720.922 94.8203ZM694.766 94.8203C694.766 97.4609 695.125 99.75 695.844 101.688C696.562 103.609 697.664 105.094 699.148 106.141C700.648 107.172 702.57 107.688 704.914 107.688C707.273 107.688 709.195 107.172 710.68 106.141C712.164 105.094 713.258 103.609 713.961 101.688C714.664 99.75 715.016 97.4609 715.016 94.8203C715.016 90.8047 714.211 87.6641 712.602 85.3984C711.008 83.1172 708.461 81.9766 704.961 81.9766C702.617 81.9766 700.688 82.4922 699.172 83.5234C697.672 84.5547 696.562 86.0312 695.844 87.9531C695.125 89.8594 694.766 92.1484 694.766 94.8203ZM746.281 77.2422V81.4609C749.953 81.5391 752.875 82.1641 755.047 83.3359C757.234 84.4922 758.805 86.0156 759.758 87.9062C760.727 89.7969 761.211 91.8984 761.211 94.2109C761.211 95.7422 760.961 97.2656 760.461 98.7812C759.961 100.297 759.141 101.68 758 102.93C756.859 104.18 755.328 105.188 753.406 105.953C751.484 106.719 749.109 107.133 746.281 107.195V112.469H741.031V107.195C738.141 107.133 735.734 106.711 733.812 105.93C731.891 105.148 730.359 104.133 729.219 102.883C728.094 101.617 727.289 100.234 726.805 98.7344C726.336 97.2188 726.102 95.7188 726.102 94.2344C726.102 92.5312 726.359 90.9219 726.875 89.4062C727.406 87.8906 728.258 86.5469 729.43 85.375C730.602 84.2031 732.141 83.2734 734.047 82.5859C735.953 81.8984 738.281 81.5234 741.031 81.4609V77.2422H746.281ZM741.031 85.9844C738.703 86.0625 736.844 86.4531 735.453 87.1562C734.062 87.8438 733.062 88.7891 732.453 89.9922C731.844 91.1953 731.539 92.5938 731.539 94.1875C731.539 95.8906 731.875 97.3672 732.547 98.6172C733.219 99.8672 734.258 100.852 735.664 101.57C737.07 102.273 738.859 102.664 741.031 102.742V85.9844ZM746.281 85.9844V102.742C748.5 102.664 750.305 102.266 751.695 101.547C753.102 100.828 754.133 99.8438 754.789 98.5938C755.461 97.3281 755.797 95.8516 755.797 94.1641C755.797 92.5547 755.492 91.1562 754.883 89.9688C754.273 88.7656 753.273 87.8203 751.883 87.1328C750.492 86.4453 748.625 86.0625 746.281 85.9844ZM798.5 94.8203C798.5 97.4609 798.164 99.8672 797.492 102.039C796.836 104.195 795.844 106.055 794.516 107.617C793.188 109.164 791.523 110.359 789.523 111.203C787.523 112.047 785.18 112.469 782.492 112.469C779.758 112.469 777.383 112.047 775.367 111.203C773.367 110.359 771.703 109.156 770.375 107.594C769.062 106.031 768.078 104.164 767.422 101.992C766.766 99.8203 766.438 97.4141 766.438 94.7734C766.438 91.2422 767.016 88.1641 768.172 85.5391C769.344 82.8984 771.117 80.8516 773.492 79.3984C775.883 77.9297 778.898 77.1953 782.539 77.1953C786.102 77.1953 789.062 77.9219 791.422 79.375C793.781 80.8281 795.547 82.875 796.719 85.5156C797.906 88.1406 798.5 91.2422 798.5 94.8203ZM772.344 94.8203C772.344 97.4609 772.703 99.75 773.422 101.688C774.141 103.609 775.242 105.094 776.727 106.141C778.227 107.172 780.148 107.688 782.492 107.688C784.852 107.688 786.773 107.172 788.258 106.141C789.742 105.094 790.836 103.609 791.539 101.688C792.242 99.75 792.594 97.4609 792.594 94.8203C792.594 90.8047 791.789 87.6641 790.18 85.3984C788.586 83.1172 786.039 81.9766 782.539 81.9766C780.195 81.9766 778.266 82.4922 776.75 83.5234C775.25 84.5547 774.141 86.0312 773.422 87.9531C772.703 89.8594 772.344 92.1484 772.344 94.8203ZM815.82 77.7344C820.242 77.7344 823.469 78.6406 825.5 80.4531C827.531 82.2656 828.547 84.8047 828.547 88.0703C828.547 89.5547 828.312 90.9688 827.844 92.3125C827.391 93.6406 826.641 94.8203 825.594 95.8516C824.547 96.8672 823.164 97.6719 821.445 98.2656C819.742 98.8594 817.641 99.1562 815.141 99.1562H811.484V112H805.859V77.7344H815.82ZM815.445 82.3984H811.484V94.4688H814.555C816.32 94.4688 817.82 94.2656 819.055 93.8594C820.289 93.4375 821.227 92.7734 821.867 91.8672C822.508 90.9609 822.828 89.7656 822.828 88.2812C822.828 86.2969 822.227 84.8203 821.023 83.8516C819.836 82.8828 817.977 82.3984 815.445 82.3984ZM850.18 112L840.312 83.3828H840.102C840.148 84.0234 840.203 84.8984 840.266 86.0078C840.328 87.1172 840.383 88.3047 840.43 89.5703C840.477 90.8359 840.5 92.0469 840.5 93.2031V112H835.391V77.7344H843.289L852.781 105.086H852.922L862.742 77.7344H870.617V112H865.25V92.9219C865.25 91.875 865.266 90.7422 865.297 89.5234C865.344 88.3047 865.391 87.1484 865.438 86.0547C865.5 84.9609 865.547 84.0859 865.578 83.4297H865.391L855.148 112H850.18ZM905.398 112H899.773V82.5156H890.023C889.82 84.125 889.602 85.8438 889.367 87.6719C889.133 89.4844 888.891 91.3047 888.641 93.1328C888.391 94.9609 888.133 96.6953 887.867 98.3359C887.617 99.9766 887.359 101.422 887.094 102.672C886.688 104.766 886.156 106.547 885.5 108.016C884.859 109.469 883.992 110.578 882.898 111.344C881.805 112.109 880.375 112.492 878.609 112.492C878.016 112.492 877.438 112.438 876.875 112.328C876.312 112.234 875.805 112.109 875.352 111.953V107.312C875.727 107.453 876.125 107.578 876.547 107.688C876.984 107.781 877.445 107.828 877.93 107.828C878.742 107.828 879.391 107.531 879.875 106.938C880.375 106.328 880.789 105.469 881.117 104.359C881.445 103.234 881.758 101.906 882.055 100.375C882.227 99.4531 882.438 98.2344 882.688 96.7188C882.938 95.1875 883.211 93.4219 883.508 91.4219C883.805 89.4219 884.109 87.2656 884.422 84.9531C884.75 82.625 885.062 80.2188 885.359 77.7344H905.398V112ZM933.828 112H914.422V77.7344H933.828V82.4688H920.047V91.7734H932.961V96.4844H920.047V107.242H933.828V112ZM968.258 112H962.656V96.5312H946.859V112H941.234V77.7344H946.859V91.75H962.656V77.7344H968.258V112ZM977.352 77.7344H982.484V95.8984C982.484 96.6797 982.477 97.5391 982.461 98.4766C982.445 99.4141 982.414 100.328 982.367 101.219C982.336 102.109 982.305 102.906 982.273 103.609C982.242 104.297 982.211 104.797 982.18 105.109H982.344L999.781 77.7344H1006.32V112H1001.23V93.9766C1001.23 93.1328 1001.25 92.2188 1001.28 91.2344C1001.31 90.25 1001.35 89.2969 1001.4 88.375C1001.45 87.4531 1001.49 86.6406 1001.54 85.9375C1001.59 85.2344 1001.62 84.7344 1001.63 84.4375H1001.42L983.938 112H977.352V77.7344ZM1034.75 112H1015.34V77.7344H1034.75V82.4688H1020.97V91.7734H1033.88V96.4844H1020.97V107.242H1034.75V112ZM1076.47 85.75C1076.47 88.0625 1075.7 89.9141 1074.15 91.3047C1072.62 92.6797 1070.62 93.5547 1068.15 93.9297V94.0938C1071.12 94.4531 1073.39 95.3438 1074.97 96.7656C1076.55 98.1719 1077.34 100.016 1077.34 102.297C1077.34 104.297 1076.81 106.062 1075.77 107.594C1074.72 109.125 1073.16 110.32 1071.08 111.18C1069 112.039 1066.42 112.469 1063.34 112.469C1061.11 112.469 1059.07 112.312 1057.23 112C1055.38 111.703 1053.74 111.234 1052.3 110.594V105.719C1053.29 106.188 1054.37 106.594 1055.54 106.938C1056.73 107.266 1057.93 107.523 1059.15 107.711C1060.38 107.883 1061.54 107.969 1062.62 107.969C1065.68 107.969 1067.95 107.453 1069.44 106.422C1070.92 105.391 1071.66 103.93 1071.66 102.039C1071.66 100.102 1070.7 98.6875 1068.78 97.7969C1066.86 96.9062 1064.23 96.4609 1060.88 96.4609H1056.8V91.9609H1060.62C1063.11 91.9609 1065.1 91.7422 1066.6 91.3047C1068.1 90.8672 1069.19 90.2422 1069.86 89.4297C1070.53 88.6172 1070.87 87.6484 1070.87 86.5234C1070.87 85.0391 1070.27 83.8828 1069.09 83.0547C1067.91 82.2109 1066.29 81.7891 1064.21 81.7891C1062.24 81.7891 1060.52 82.0547 1059.03 82.5859C1057.55 83.1172 1056.13 83.8125 1054.79 84.6719L1052.23 80.8984C1053.28 80.1797 1054.42 79.5469 1055.66 79C1056.91 78.4531 1058.28 78.0234 1059.78 77.7109C1061.28 77.3984 1062.93 77.2422 1064.73 77.2422C1067.23 77.2422 1069.34 77.6094 1071.08 78.3438C1072.83 79.0625 1074.16 80.0625 1075.09 81.3438C1076.01 82.625 1076.47 84.0938 1076.47 85.75ZM1105.44 112L1102.09 102.484H1088.98L1085.63 112H1079.7L1092.45 77.5938H1098.69L1111.41 112H1105.44ZM1100.63 97.6562L1097.38 88.2812C1097.25 87.875 1097.07 87.3047 1096.84 86.5703C1096.6 85.8203 1096.37 85.0625 1096.13 84.2969C1095.9 83.5156 1095.7 82.8594 1095.55 82.3281C1095.39 82.9688 1095.2 83.6875 1094.96 84.4844C1094.74 85.2656 1094.52 86 1094.3 86.6875C1094.1 87.375 1093.95 87.9062 1093.84 88.2812L1090.55 97.6562H1100.63ZM1142.19 112H1135.65L1121.56 94.6094V112H1115.94V77.7344H1121.56V94.3281L1135.39 77.7344H1141.53L1127.7 94.2812L1142.19 112ZM1167.97 112L1164.62 102.484H1151.52L1148.16 112H1142.23L1154.98 77.5938H1161.22L1173.95 112H1167.97ZM1163.16 97.6562L1159.91 88.2812C1159.78 87.875 1159.6 87.3047 1159.37 86.5703C1159.13 85.8203 1158.9 85.0625 1158.66 84.2969C1158.43 83.5156 1158.23 82.8594 1158.08 82.3281C1157.92 82.9688 1157.73 83.6875 1157.49 84.4844C1157.27 85.2656 1157.05 86 1156.84 86.6875C1156.63 87.375 1156.48 87.9062 1156.37 88.2812L1153.09 97.6562H1163.16ZM1200.31 85.75C1200.31 88.0625 1199.54 89.9141 1197.99 91.3047C1196.46 92.6797 1194.46 93.5547 1191.99 93.9297V94.0938C1194.96 94.4531 1197.23 95.3438 1198.81 96.7656C1200.39 98.1719 1201.18 100.016 1201.18 102.297C1201.18 104.297 1200.66 106.062 1199.61 107.594C1198.56 109.125 1197 110.32 1194.92 111.18C1192.84 112.039 1190.27 112.469 1187.19 112.469C1184.95 112.469 1182.91 112.312 1181.07 112C1179.23 111.703 1177.59 111.234 1176.15 110.594V105.719C1177.13 106.188 1178.21 106.594 1179.38 106.938C1180.57 107.266 1181.77 107.523 1182.99 107.711C1184.23 107.883 1185.38 107.969 1186.46 107.969C1189.52 107.969 1191.8 107.453 1193.28 106.422C1194.77 105.391 1195.51 103.93 1195.51 102.039C1195.51 100.102 1194.55 98.6875 1192.62 97.7969C1190.7 96.9062 1188.07 96.4609 1184.73 96.4609H1180.65V91.9609H1184.47C1186.95 91.9609 1188.95 91.7422 1190.45 91.3047C1191.95 90.8672 1193.03 90.2422 1193.7 89.4297C1194.38 88.6172 1194.71 87.6484 1194.71 86.5234C1194.71 85.0391 1194.12 83.8828 1192.93 83.0547C1191.76 82.2109 1190.13 81.7891 1188.05 81.7891C1186.09 81.7891 1184.36 82.0547 1182.88 82.5859C1181.39 83.1172 1179.98 83.8125 1178.63 84.6719L1176.08 80.8984C1177.12 80.1797 1178.27 79.5469 1179.5 79C1180.75 78.4531 1182.12 78.0234 1183.62 77.7109C1185.12 77.3984 1186.77 77.2422 1188.57 77.2422C1191.07 77.2422 1193.19 77.6094 1194.92 78.3438C1196.67 79.0625 1198.01 80.0625 1198.93 81.3438C1199.85 82.625 1200.31 84.0938 1200.31 85.75ZM1229.28 112L1225.93 102.484H1212.83L1209.48 112H1203.55L1216.3 77.5938H1222.53L1235.26 112H1229.28ZM1224.48 97.6562L1221.22 88.2812C1221.09 87.875 1220.91 87.3047 1220.68 86.5703C1220.45 85.8203 1220.21 85.0625 1219.98 84.2969C1219.74 83.5156 1219.55 82.8594 1219.39 82.3281C1219.23 82.9688 1219.04 83.6875 1218.8 84.4844C1218.59 85.2656 1218.37 86 1218.15 86.6875C1217.95 87.375 1217.79 87.9062 1217.68 88.2812L1214.4 97.6562H1224.48Z" fill="url(#paint2_linear_89_543)" fill-opacity="0.9" shape-rendering="crispEdges"/>
</g>
<path d="M232.952 314.775C226.803 313.653 221.867 310.881 216.911 305.769C213.389 302.136 212.4 300.609 210.483 295.842L209.421 293.201L202.554 292.971L195.686 292.742L194 290.924L192.315 289.105V279.782V270.459H191.037C189.672 270.459 188.306 269.722 186.527 268.025L185.575 267.116L185.576 228.513C185.577 185.723 185.639 182.854 186.582 181.452C187.511 180.072 189.238 179.21 191.084 179.204C192.884 179.198 194.074 179.722 195.612 181.198L196.711 182.252V220.78V259.308H270.857H345.003V208.25V157.191L320.019 157.182C306.165 157.177 294.089 157.05 292.912 156.896C289.997 156.517 289.133 156.008 288.275 154.164C287.028 151.483 287.583 149.127 289.934 147.111L291.213 146.015L321.845 146.101C344.705 146.165 352.673 146.275 353.253 146.535C354.497 147.093 355.541 148.421 355.977 150.001C356.524 151.98 356.72 157.103 356.723 169.442L356.726 179.786H372.374H388.023L388.951 180.844C390.584 182.706 395.498 190.626 403.328 204.014C409.581 214.706 408.209 213.196 417.575 219.702C430.499 228.68 432.321 230.253 434.264 234.117C435.93 237.429 435.96 237.963 435.981 264.737L436 289.093L435.267 290.402C433.731 293.148 433.371 293.227 421.2 293.516C416.929 293.618 413.223 293.813 412.966 293.95C412.709 294.088 412.262 294.834 411.973 295.608C410.514 299.521 406.812 305.161 404.304 307.291C398.459 312.257 393.321 314.563 387.242 314.95C376.516 315.633 366.1 309.261 360.434 298.551C359.856 297.459 359.228 296.046 359.039 295.412C358.849 294.777 358.481 294.16 358.222 294.041C357.613 293.759 322.615 293.421 289.826 293.38L264.102 293.347L263.805 294.154C262.351 298.099 261.761 299.338 260.29 301.535C255.965 307.994 250.624 312.029 243.748 314.031C240.83 314.881 235.53 315.246 232.952 314.775ZM240.734 303.194C243.454 302.708 245.576 301.771 247.594 300.164C249.307 298.8 251.518 295.634 252.223 293.536C253.354 290.168 253.494 285.511 252.568 282.006C251.582 278.27 248.393 274.347 244.973 272.662C238.004 269.228 229.381 270.504 224.495 275.69C221.478 278.892 220.181 283.11 220.554 288.506C220.894 293.421 222.065 296.154 225.114 299.147C229.063 303.025 234.211 304.358 240.734 303.194ZM390.254 303.038C391.499 302.719 393.304 302.039 394.266 301.525C397.622 299.734 400.856 295.329 401.566 291.583C401.944 289.583 401.941 284.477 401.559 282.457C400.928 279.112 397.2 274.312 393.956 272.666C390.69 271.009 385.403 270.362 381.636 271.16C377.001 272.141 373.359 274.702 371.262 278.456C369.796 281.081 369.327 283.195 369.327 287.185C369.327 292.762 370.384 295.587 373.719 298.927C374.769 299.978 376.313 301.203 377.149 301.65C380.753 303.573 385.996 304.129 390.254 303.038ZM359.048 279.251C359.6 277.614 360.743 275.065 361.588 273.587L363.125 270.899L358.24 270.747C351.695 270.542 278.817 270.536 268.024 270.739C263.322 270.827 259.375 271 259.253 271.122C259.131 271.245 259.377 271.707 259.799 272.149C260.682 273.072 262.935 277.727 263.702 280.214L264.222 281.899L282.266 281.974C292.19 282.016 313.3 282.09 329.177 282.139L358.044 282.228L359.048 279.251ZM424.424 276.307V270.417L416.389 270.512C411.969 270.563 408.271 270.688 408.171 270.789C408.071 270.889 408.653 272.078 409.464 273.43C410.276 274.782 411.428 277.236 412.025 278.883L413.109 281.878L414.737 281.982C415.632 282.039 418.178 282.111 420.394 282.141L424.424 282.197V276.307ZM210.47 278.583C210.961 277.322 212.088 275.025 212.975 273.478C213.862 271.931 214.588 270.619 214.588 270.562C214.588 270.505 212.116 270.459 209.093 270.459L203.598 270.459L203.684 275.667C203.731 278.532 203.823 281.036 203.89 281.232C203.969 281.464 204.9 281.616 206.589 281.672C208.652 281.74 209.208 281.669 209.373 281.316C209.486 281.074 209.98 279.844 210.47 278.583ZM424.422 249.698C424.421 244.132 424.296 239.639 424.125 239.021C423.817 237.912 422.085 236.639 404.868 224.867L400.698 222.016L397.834 217.146C396.259 214.468 392.181 207.574 388.771 201.826L382.572 191.377L378.807 191.19C376.736 191.087 370.921 190.988 365.884 190.97L356.726 190.937V225.122V259.308H390.575H424.424L424.422 249.698ZM220.303 175.374C210.231 174.48 199.362 170.193 190.85 163.759C188.036 161.632 182.327 156.002 179.429 152.496C174.87 146.981 170.575 138.411 168.764 131.219C167.286 125.347 167.005 123.058 167 116.843C166.995 110.575 167.32 107.86 168.757 102.186C172.722 86.5213 185.066 71.4538 200.082 63.9484C209.912 59.0349 220.305 57.2018 232.026 58.3142C238.378 58.917 243.983 60.552 250.465 63.6929C266.297 71.3635 278.019 85.5962 282.569 102.671C284.812 111.086 284.942 121.786 282.9 129.795C280.962 137.393 277.02 145.741 272.668 151.462C270.683 154.071 264.064 160.748 261.039 163.192C255.805 167.422 248.881 170.962 241.257 173.309C235.292 175.144 226.961 175.966 220.303 175.374ZM230.252 163.928C236.733 163.313 242.561 161.662 247.892 158.931C256.857 154.338 263.472 147.641 268.039 138.533C271.533 131.566 272.693 126.16 272.725 116.696C272.742 111.682 272.635 109.815 272.203 107.599C270.561 99.1815 267.427 92.436 262.064 85.7773C255.991 78.2382 245.109 71.9153 235.241 70.1922C231.119 69.4725 224.195 69.1208 220.434 69.4401C213.361 70.0406 204.002 73.4973 198.032 77.7142C194.651 80.1022 188.887 85.874 186.499 89.2614C183.15 94.0125 180.534 100.274 179.083 107.012C178.502 109.71 178.419 110.934 178.419 116.843C178.419 122.724 178.503 123.978 179.072 126.599C180.415 132.792 182.942 138.936 186.088 143.666C188.189 146.824 194.812 153.542 198.05 155.801C207.061 162.085 218.707 165.024 230.252 163.928ZM223.816 121.943C221.852 120.897 219.304 118.519 206.749 106.012L194.66 93.9704V91.7808C194.66 88.249 195.779 86.5819 198.798 85.6167C199.521 85.3855 200.246 85.3648 201.076 85.5515C202.647 85.9048 204.744 87.7936 216.566 99.5038L225.724 108.575L231.663 102.709C234.929 99.4823 238.173 96.4635 238.873 96.0003C241.288 94.3994 244.621 95.0488 246.192 97.4266C246.839 98.4049 246.972 98.9374 246.972 100.543C246.972 102.266 246.867 102.623 246.022 103.774C243.358 107.401 229.642 120.875 227.5 121.97C226.022 122.724 225.273 122.719 223.816 121.943Z" fill="#F2F2F2"/>
<defs>
<filter id="filter0_b_89_543" x="568.648" y="158.792" width="698.475" height="74.6958" filterUnits="userSpaceOnUse" color-interpolation-filters="sRGB">
<feFlood flood-opacity="0" result="BackgroundImageFix"/>
<feGaussianBlur in="BackgroundImageFix" stdDeviation="5"/>
<feComposite in2="SourceAlpha" operator="in" result="effect1_backgroundBlur_89_543"/>
<feBlend mode="normal" in="SourceGraphic" in2="effect1_backgroundBlur_89_543" result="shape"/>
</filter>
<filter id="filter1_bd_89_543" x="563.781" y="61.5938" width="103.844" height="67.25" filterUnits="userSpaceOnUse" color-interpolation-filters="sRGB">
<feFlood flood-opacity="0" result="BackgroundImageFix"/>
<feGaussianBlur in="BackgroundImageFix" stdDeviation="5"/>
<feComposite in2="SourceAlpha" operator="in" result="effect1_backgroundBlur_89_543"/>
<feColorMatrix in="SourceAlpha" type="matrix" values="0 0 0 0 0 0 0 0 0 0 0 0 0 0 0 0 0 0 127 0" result="hardAlpha"/>
<feOffset dx="6" dy="5"/>
<feGaussianBlur stdDeviation="2"/>
<feComposite in2="hardAlpha" operator="out"/>
<feColorMatrix type="matrix" values="0 0 0 0 0 0 0 0 0 0 0 0 0 0 0 0 0 0 0.25 0"/>
<feBlend mode="normal" in2="effect1_backgroundBlur_89_543" result="effect2_dropShadow_89_543"/>
<feBlend mode="normal" in="SourceGraphic" in2="effect2_dropShadow_89_543" result="shape"/>
</filter>
<filter id="filter2_bd_89_543" x="678.859" y="67.1953" width="566.398" height="55.2969" filterUnits="userSpaceOnUse" color-interpolation-filters="sRGB">
<feFlood flood-opacity="0" result="BackgroundImageFix"/>
<feGaussianBlur in="BackgroundImageFix" stdDeviation="5"/>
<feComposite in2="SourceAlpha" operator="in" result="effect1_backgroundBlur_89_543"/>
<feColorMatrix in="SourceAlpha" type="matrix" values="0 0 0 0 0 0 0 0 0 0 0 0 0 0 0 0 0 0 127 0" result="hardAlpha"/>
<feOffset dx="6" dy="5"/>
<feGaussianBlur stdDeviation="2"/>
<feComposite in2="hardAlpha" operator="out"/>
<feColorMatrix type="matrix" values="0 0 0 0 0 0 0 0 0 0 0 0 0 0 0 0 0 0 0.25 0"/>
<feBlend mode="normal" in2="effect1_backgroundBlur_89_543" result="effect2_dropShadow_89_543"/>
<feBlend mode="normal" in="SourceGraphic" in2="effect2_dropShadow_89_543" result="shape"/>
</filter>
<linearGradient id="paint0_linear_89_543" x1="-418" y1="-134.667" x2="1209.32" y2="730.613" gradientUnits="userSpaceOnUse">
<stop offset="0.0747882" stop-color="#B195C2" stop-opacity="0.02"/>
<stop offset="0.503125" stop-color="#7C77B8"/>
<stop offset="0.722009" stop-color="#6F85B3"/>
<stop offset="1" stop-color="#4AADA7"/>
</linearGradient>
<linearGradient id="paint1_linear_89_543" x1="571" y1="107.5" x2="1030.86" y2="99.5488" gradientUnits="userSpaceOnUse">
<stop offset="0.334" stop-color="#E9E8F1"/>
<stop offset="1" stop-color="#6F85B3"/>
</linearGradient>
<linearGradient id="paint2_linear_89_543" x1="686" y1="104.5" x2="1556.87" y2="66.7472" gradientUnits="userSpaceOnUse">
<stop offset="0.334" stop-color="#E9E8F1"/>
<stop offset="1" stop-color="#6F85B3"/>
</linearGradient>
</defs>
</svg>
