<svg width="29" height="28" viewBox="0 0 29 28" fill="none" xmlns="http://www.w3.org/2000/svg">
<path d="M27.1126 27.1814C27.0207 27.1498 26.8849 27.0589 26.7951 26.9689C26.6224 26.7958 26.5988 26.7318 26.4384 26.0048C25.8807 23.4773 24.4104 21.1179 22.3497 19.4439C20.1119 17.6259 17.4081 16.671 14.4988 16.671C12.2527 16.671 10.1229 17.2433 8.21392 18.3599C5.22328 20.1092 3.16386 22.9716 2.48472 26.323C2.4114 26.6848 2.33526 26.84 2.15551 26.9937C1.96913 27.1531 1.81918 27.2069 1.561 27.2069C1.30283 27.2069 1.15288 27.1531 0.966497 26.9937C0.704105 26.7693 0.616086 26.4805 0.689765 26.0859C1.46008 21.9596 4.1898 18.3586 8.00629 16.4342C8.55031 16.1599 9.35002 15.8197 9.79907 15.6716C9.94877 15.6222 10.1191 15.5636 10.1776 15.5414L10.284 15.5011L10.0143 15.3322C9.32267 14.8989 8.50164 14.146 7.97555 13.4625C6.4673 11.5031 5.97902 8.97699 6.64528 6.58043C7.33676 4.09316 9.32459 2.03537 11.8495 1.19302C14.2591 0.389154 16.943 0.729091 19.0326 2.10283C21.7927 3.91729 23.1363 7.11471 22.4802 10.307C22.3035 11.1662 21.8831 12.187 21.397 12.9366C20.8007 13.8564 19.8677 14.7787 18.9471 15.3584C18.8076 15.4462 18.737 15.5098 18.7674 15.5204C18.7949 15.53 18.997 15.6002 19.2166 15.6765C23.6533 17.2171 27.0294 20.8558 28.1271 25.28C28.3808 26.3023 28.3929 26.5107 28.2158 26.8051C27.9956 27.1712 27.5373 27.3276 27.1126 27.1814ZM15.7439 14.7653C18.2978 14.2401 20.2172 12.3553 20.7303 9.86906C20.7994 9.53418 20.8114 9.36114 20.8119 8.69828C20.8123 8.01984 20.8018 7.87202 20.7292 7.54135C20.5019 6.50625 20.0768 5.60926 19.4511 4.84452C19.2416 4.58846 18.6715 4.03808 18.4099 3.83925C16.0917 2.07747 12.8249 2.09757 10.5284 3.88775C10.1152 4.20978 9.5385 4.82367 9.24305 5.25588C8.76327 5.95776 8.45978 6.66937 8.26835 7.54135C8.19592 7.87125 8.1851 8.02142 8.18497 8.69828C8.18486 9.36334 8.19656 9.53278 8.26588 9.86702C8.7827 12.3596 10.7521 14.2878 13.2649 14.7614C13.8035 14.8629 13.7861 14.8618 14.6076 14.8516C15.2246 14.844 15.441 14.8276 15.7439 14.7653Z" fill="#F2F2F2"/>
</svg>
