<svg width="80" height="60" viewBox="0 0 80 60" fill="none" xmlns="http://www.w3.org/2000/svg">
<path d="M6.62659 53.0001V46.0002L3.9813 45.9728L1.33601 45.9455V38.9438V31.9421L3.9813 31.9147L6.62659 31.8874V28.109V24.3307L3.9813 24.3033L1.33601 24.276V17.2743V10.2726L3.9813 10.2452L6.62659 10.2179V6.38663V2.55537H3.31329H0V1.27768V0H4.6493H9.2986V3.83305V7.6661H43.3206C80.8833 7.6661 77.9448 7.6131 78.8888 8.30756C79.1352 8.48883 79.4861 8.89012 79.6684 9.19932L80 9.7615V28.109V46.4566L79.6684 47.0187C79.4861 47.3279 79.1352 47.7292 78.8888 47.9105C78.0076 48.5588 78.1015 48.552 70.0407 48.552H62.7388V51.1073V53.6627H48.0428H33.3467V51.1073V48.552H30.6747H28.0027V51.1073V53.6627H19.9866H11.9706V51.1073V48.552H10.6346H9.2986V54.276V60H7.96259H6.62659V53.0001ZM18.7041 49.8296V48.552H16.6733H14.6426V49.8296V51.1073H16.6733H18.7041V49.8296ZM25.3307 49.8296V48.552H23.3534H21.3761V49.8296V51.1073H23.3534H25.3307V49.8296ZM40.0567 49.8041L40.0867 48.552H38.0527H36.0187V49.8319V51.1118L38.0227 51.084L40.0267 51.0562L40.0567 49.8041ZM46.7067 49.8296V48.552H44.676H42.6453V49.7615C42.6453 50.4267 42.6774 51.0017 42.7165 51.0392C42.7557 51.0767 43.6696 51.1073 44.7473 51.1073H46.7067V49.8296ZM53.3333 49.8296V48.552H51.356H49.3788V49.8296V51.1073H51.356H53.3333V49.8296ZM60.0668 49.8296V48.552H58.0361H56.0053V49.8296V51.1073H58.0361H60.0668V49.8296ZM77.2532 45.8739C77.4397 45.6955 77.4397 10.5225 77.2532 10.3441C77.154 10.2492 69.4462 10.2215 43.2118 10.2215H9.2986V28.109V45.9966H43.2118C69.4462 45.9966 77.154 45.9688 77.2532 45.8739ZM57.9292 43.2854C55.8872 43.0133 53.2698 42.126 51.6774 41.1659C46.4376 38.0066 43.5706 32.5395 44.1206 26.7555C44.7195 20.4576 49.1474 15.2816 55.501 13.4525C57.1165 12.9875 58.3253 12.8286 60.1737 12.8385C64.5423 12.8619 68.3382 14.403 71.4496 17.4165C74.4291 20.3022 76.0225 24.0311 76.0184 28.109C76.0126 34.0363 72.5379 39.3295 66.9606 41.9073C64.2585 43.1562 60.8563 43.6753 57.9292 43.2854ZM62.3718 40.6756C63.2662 40.5231 64.7006 40.0993 65.5177 39.7462C66.3012 39.4075 67.6553 38.6482 67.6553 38.5475C67.6553 38.5111 67.3307 38.3942 66.9339 38.2877C65.9642 38.0276 65.3311 37.7128 64.8518 37.2524C64.6185 37.0283 63.8492 35.8264 62.997 34.3547C62.1961 32.9715 61.4816 31.7801 61.4092 31.707C61.3012 31.5979 61.2583 31.5979 61.1701 31.707C61.0253 31.8861 59.6368 37.2789 59.6359 37.6661C59.6354 37.8348 59.9126 38.6046 60.2518 39.3769L60.8684 40.781L61.303 40.7823C61.5421 40.7834 62.023 40.735 62.3718 40.6756ZM57.7849 40.3492C57.704 40.1665 57.5051 39.7181 57.3429 39.3526C57.1312 38.8757 57.0346 38.4576 57.0004 37.8705C56.9568 37.121 57.0113 36.8318 57.6548 34.4018C58.0408 32.9438 58.3567 31.6625 58.3567 31.5545C58.3567 31.412 58.307 31.3763 58.1761 31.4243C57.8906 31.5291 52.3547 34.648 51.9875 34.911C51.6811 35.1304 51.6436 35.2282 51.4727 36.2535C51.3713 36.8618 51.265 37.4378 51.2364 37.5336C51.1471 37.833 53.1331 39.1299 54.7228 39.8104C55.4783 40.1338 57.3016 40.6652 57.6901 40.6752C57.9223 40.6812 57.9261 40.668 57.7849 40.3492ZM70.5959 35.9029C71.7728 34.478 72.7807 32.3727 73.1409 30.5873L73.2079 30.2546L72.6779 30.5114C72.0264 30.8272 71.068 31.0734 70.4919 31.0729C70.2544 31.0729 68.6204 30.7533 66.8607 30.363C65.1011 29.9728 63.6221 29.6767 63.5742 29.705C63.4186 29.7969 63.4781 29.9494 64.0616 30.9533C64.3777 31.4971 65.0777 32.701 65.6172 33.6286C66.1567 34.5562 66.6797 35.3926 66.7794 35.4873C66.9189 35.6199 69.636 36.4528 70.0318 36.4844C70.0751 36.4878 70.3289 36.2262 70.5959 35.9029ZM49.0575 34.753C49.0629 34.4447 49.5747 33.5676 49.9633 33.2009C50.1828 32.9938 51.4516 32.215 52.783 31.4704C54.1144 30.7257 55.4849 29.959 55.8286 29.7665C56.2369 29.5378 56.417 29.3818 56.3486 29.3163C56.2909 29.2612 54.6882 28.9881 52.787 28.7096L49.3302 28.203L48.1456 28.5724C47.4941 28.7756 46.9105 28.9729 46.8487 29.0109C46.5631 29.1867 47.1453 31.7353 47.7985 33.1687C48.2986 34.266 48.8734 35.1794 48.9712 35.0322C49.0172 34.963 49.056 34.8373 49.0575 34.753ZM60.8791 28.8859C61.177 28.601 61.2425 28.461 61.2425 28.109C61.2425 27.7571 61.177 27.6171 60.8791 27.3322C60.5813 27.0474 60.4347 26.9847 60.0673 26.9847C59.4952 26.9847 59.0386 27.2878 58.9029 27.7576C58.6755 28.5454 59.2096 29.232 60.0508 29.2329C60.4374 29.2329 60.5769 29.1748 60.8791 28.8859ZM72.0776 27.9316L73.3469 27.3435L73.2835 26.6259C73.1507 25.1231 72.4586 23.1411 71.548 21.6556C70.8267 20.479 70.8471 20.4784 70.3768 21.6936C69.805 23.1712 69.4399 23.8345 68.9911 24.2113C68.7773 24.3909 67.4932 25.0685 66.1376 25.7172C64.7153 26.3978 63.7127 26.9348 63.7671 26.9868C63.8835 27.0981 70.0446 28.4933 70.4876 28.5087C70.6787 28.5153 71.3211 28.2822 72.0776 27.9316ZM56.5184 26.452C56.5498 26.2971 53.1575 21.0631 52.8138 20.7363C52.7174 20.6447 52.0374 20.3791 51.3026 20.1462L49.9666 19.7226L49.7217 20.0061C49.2252 20.5809 48.5025 21.6825 48.0473 22.5587C47.423 23.7603 46.653 26.2692 46.9085 26.2692C46.9533 26.2692 47.3471 26.147 47.7836 25.9978C48.8892 25.6197 49.7532 25.6519 53.3333 26.205C54.9499 26.4547 56.3206 26.648 56.3794 26.6345C56.4382 26.621 56.5007 26.5389 56.5184 26.452ZM64.6382 23.5722L67.2841 22.3062L68.0041 20.4625C68.4001 19.4485 68.7241 18.572 68.7241 18.5147C68.7241 18.407 67.8211 17.7242 67.0602 17.2566C65.8957 16.5409 63.7044 15.7277 62.5438 15.5805L62.0111 15.5129L62.3852 16.4656C62.9072 17.7945 63.093 18.7061 63.0189 19.5741C62.9853 19.9676 62.6753 21.2785 62.33 22.4872C61.9847 23.6959 61.7219 24.7193 61.7459 24.7615C61.7699 24.8037 61.8351 24.8382 61.8909 24.8382C61.9467 24.8382 63.183 24.2685 64.6382 23.5722ZM58.9998 24.4038C59.1031 24.1754 59.9453 21.2598 60.2472 20.0852C60.4698 19.2189 60.3787 18.6528 59.7539 17.0187C59.453 16.2317 59.1882 15.5375 59.1657 15.4762C59.1138 15.3353 58.023 15.461 56.7535 15.754C55.386 16.0696 53.4042 16.9249 52.5028 17.5884C52.2621 17.7655 52.2699 17.7702 53.4113 18.1361L54.5625 18.5051L55.1428 19.3974C55.462 19.8881 55.9223 20.5886 56.1656 20.954C56.4089 21.3194 57.0564 22.2969 57.6043 23.1261C58.1523 23.9553 58.667 24.6337 58.7482 24.6337C58.8293 24.6337 58.9425 24.5302 58.9998 24.4038ZM6.62659 38.9406V34.44L5.3173 34.4687L4.00802 34.4974L3.98017 38.9693L3.95233 43.4412H5.28946H6.62659V38.9406ZM6.62659 17.2743V12.7768H5.29058H3.95458V17.2061C3.95458 19.6423 3.98664 21.6661 4.02583 21.7036C4.06502 21.7411 4.66622 21.7717 5.36184 21.7717H6.62659V17.2743Z" fill="#F2F2F2"/>
<path d="M13.7845 24.2642V17.106H16.1038C16.9827 17.106 17.5556 17.1418 17.8225 17.2134C18.2327 17.3208 18.5761 17.5552 18.8528 17.9165C19.1295 18.2746 19.2679 18.7384 19.2679 19.3081C19.2679 19.7476 19.1881 20.117 19.0286 20.4165C18.8691 20.716 18.6656 20.952 18.4182 21.1245C18.1741 21.2938 17.9251 21.4061 17.6712 21.4614C17.3261 21.5298 16.8264 21.564 16.1721 21.564H15.2298V24.2642H13.7845ZM15.2298 18.3169V20.3481H16.0208C16.5904 20.3481 16.9713 20.3107 17.1634 20.2358C17.3554 20.161 17.5052 20.0438 17.6126 19.8843C17.7233 19.7248 17.7786 19.5392 17.7786 19.3276C17.7786 19.0672 17.7021 18.8524 17.5491 18.6831C17.3961 18.5138 17.2024 18.408 16.968 18.3657C16.7955 18.3332 16.4488 18.3169 15.928 18.3169H15.2298ZM20.4104 24.2642V17.106H21.8557V24.2642H20.4104ZM22.51 24.2642L24.9563 20.5288L22.7395 17.106H24.429L25.8645 19.4058L27.2708 17.106H28.9456L26.719 20.5825L29.1653 24.2642H27.4221L25.8352 21.7886L24.2434 24.2642H22.51ZM29.9075 24.2642V17.106H35.2151V18.3169H31.3528V19.9038H34.9466V21.1099H31.3528V23.0581H35.3518V24.2642H29.9075ZM36.6165 24.2642V17.1646H38.0618V23.0581H41.6555V24.2642H36.6165Z" fill="#F2F2F2"/>
<path d="M18.3645 32.6323L19.7659 33.0767C19.5511 33.8579 19.193 34.439 18.6917 34.8198C18.1936 35.1974 17.5605 35.3862 16.7923 35.3862C15.8417 35.3862 15.0605 35.0623 14.4485 34.4146C13.8365 33.7635 13.5305 32.8748 13.5305 31.7485C13.5305 30.5571 13.8382 29.6326 14.4534 28.9751C15.0686 28.3143 15.8776 27.9839 16.8802 27.9839C17.7558 27.9839 18.4671 28.2427 19.0139 28.7603C19.3395 29.0662 19.5836 29.5057 19.7464 30.0786L18.3157 30.4204C18.2311 30.0493 18.0537 29.7563 17.7835 29.5415C17.5166 29.3267 17.191 29.2192 16.8069 29.2192C16.2763 29.2192 15.845 29.4097 15.513 29.7905C15.1842 30.1714 15.0198 30.7882 15.0198 31.6411C15.0198 32.5461 15.1826 33.1906 15.5081 33.5747C15.8336 33.9588 16.2568 34.1509 16.7776 34.1509C17.1617 34.1509 17.4921 34.0288 17.7688 33.7847C18.0455 33.5405 18.2441 33.1564 18.3645 32.6323ZM20.718 31.729C20.718 30.9998 20.8271 30.3879 21.0452 29.8931C21.208 29.5285 21.4293 29.2013 21.7093 28.9116C21.9925 28.6219 22.3017 28.4071 22.637 28.2671C23.083 28.0783 23.5973 27.9839 24.18 27.9839C25.2346 27.9839 26.0777 28.311 26.7093 28.9653C27.344 29.6196 27.6614 30.5295 27.6614 31.6948C27.6614 32.8504 27.3473 33.7554 26.719 34.4097C26.0908 35.0607 25.2509 35.3862 24.1995 35.3862C23.135 35.3862 22.2887 35.0623 21.6604 34.4146C21.0322 33.7635 20.718 32.8683 20.718 31.729ZM22.2073 31.6802C22.2073 32.4907 22.3945 33.106 22.7688 33.5259C23.1432 33.9425 23.6184 34.1509 24.1946 34.1509C24.7708 34.1509 25.2428 33.9442 25.6106 33.5308C25.9817 33.1141 26.1673 32.4907 26.1673 31.6606C26.1673 30.8403 25.9866 30.2284 25.6253 29.8247C25.2672 29.4211 24.7903 29.2192 24.1946 29.2192C23.5989 29.2192 23.1188 29.4243 22.7542 29.8345C22.3896 30.2414 22.2073 30.8566 22.2073 31.6802ZM28.7991 35.2642V28.106H31.8411C32.6061 28.106 33.1611 28.1711 33.5061 28.3013C33.8544 28.4282 34.1328 28.6561 34.3411 28.9849C34.5494 29.3136 34.6536 29.6896 34.6536 30.1128C34.6536 30.6499 34.4957 31.0942 34.18 31.4458C33.8642 31.7941 33.3922 32.0138 32.7639 32.105C33.0764 32.2873 33.3336 32.4875 33.5354 32.7056C33.7405 32.9237 34.0156 33.311 34.3606 33.8677L35.2346 35.2642H33.5061L32.4612 33.7065C32.0901 33.1499 31.8362 32.8 31.6995 32.6567C31.5628 32.5103 31.4179 32.411 31.2649 32.3589C31.1119 32.3035 30.8694 32.2759 30.5374 32.2759H30.2444V35.2642H28.7991ZM30.2444 31.1333H31.3138C32.0071 31.1333 32.4401 31.104 32.6126 31.0454C32.7851 30.9868 32.9202 30.8859 33.0179 30.7427C33.1155 30.5994 33.1643 30.4204 33.1643 30.2056C33.1643 29.9647 33.0992 29.771 32.969 29.6245C32.8421 29.4748 32.6614 29.3804 32.427 29.3413C32.3098 29.325 31.9583 29.3169 31.3723 29.3169H30.2444V31.1333ZM36.0208 35.2642V28.106H41.3284V29.3169H37.4661V30.9038H41.0598V32.1099H37.4661V34.0581H41.4651V35.2642H36.0208Z" fill="#F2F2F2"/>
</svg>
