<svg width="24" height="19" viewBox="0 0 24 19" fill="none" xmlns="http://www.w3.org/2000/svg">
<path d="M3.10934 18.676C2.00793 18.5476 1.14753 17.72 0.980026 16.6279C0.952229 16.4467 0.952208 2.8963 0.980003 2.71485C1.14064 1.66629 1.92269 0.870717 2.9756 0.684782C3.12075 0.659149 3.45585 0.658203 12.3846 0.658203C21.3134 0.658203 21.6485 0.659146 21.7937 0.684782C22.6248 0.831547 23.2964 1.36005 23.624 2.12509C23.6863 2.27057 23.7395 2.44996 23.7817 2.65712C23.8052 2.77222 23.807 3.19577 23.8117 9.51263C23.815 14.102 23.8118 16.3121 23.8015 16.4547C23.7768 16.7978 23.7135 17.0332 23.5628 17.3423C23.4561 17.5612 23.3532 17.7153 23.2063 17.8766C22.7852 18.3388 22.2637 18.6057 21.6432 18.6767C21.4838 18.6949 3.2658 18.6943 3.10934 18.676ZM21.405 10.7513V5.2211L21.3663 5.25608C21.3303 5.28867 17.094 9.29126 14.7227 11.5332C14.1472 12.0774 13.6244 12.5669 13.5609 12.621C13.2207 12.9111 12.8043 13.1194 12.4279 13.1877C12.2281 13.224 11.9157 13.2208 11.7252 13.1805C11.3611 13.1036 11.0292 12.9383 10.696 12.6681C10.6365 12.6198 10.0357 12.0344 9.361 11.3672C7.7549 9.77912 3.5184 5.5979 3.43178 5.51538L3.36424 5.45104V10.8663V16.2815H12.3846H21.405V10.7513ZM15.3285 7.65119C17.079 5.99633 18.8685 4.30521 19.3051 3.89315C19.7417 3.48109 20.1182 3.12534 20.1419 3.10259L20.1849 3.06124H12.2802H4.37555L4.86936 3.55034C5.14095 3.81935 6.87957 5.53673 8.73295 7.36674C11.5381 10.1365 12.1063 10.6912 12.1242 10.677C12.136 10.6677 13.5779 9.30605 15.3285 7.65119Z" fill="white"/>
</svg>
