<svg width="28" height="29" viewBox="0 0 28 29" fill="none" xmlns="http://www.w3.org/2000/svg">
<path fill-rule="evenodd" clip-rule="evenodd" d="M27.3333 14.5C27.3333 22.0939 21.3638 28.25 14 28.25C6.63619 28.25 0.666656 22.0939 0.666656 14.5C0.666656 6.90609 6.63619 0.75 14 0.75C21.3638 0.75 27.3333 6.90609 27.3333 14.5ZM14.4778 10.9009C13.1809 11.4571 10.589 12.6085 6.70207 14.3549C6.07089 14.6137 5.74025 14.8669 5.71015 15.1145C5.65928 15.533 6.16742 15.6978 6.85938 15.9221C6.9535 15.9527 7.05103 15.9843 7.15101 16.0178C7.83178 16.246 8.74755 16.513 9.22362 16.5236C9.65546 16.5332 10.1374 16.3496 10.6696 15.9728C14.3013 13.4447 16.1759 12.1669 16.2936 12.1393C16.3767 12.1199 16.4917 12.0955 16.5697 12.1669C16.6477 12.2384 16.64 12.3737 16.6317 12.41C16.5814 12.6313 14.5868 14.5437 13.5545 15.5333C13.2328 15.8418 13.0045 16.0607 12.9578 16.1106C12.8533 16.2226 12.7468 16.3285 12.6444 16.4303C12.0119 17.059 11.5376 17.5305 12.6706 18.3005C13.2151 18.6705 13.6508 18.9765 14.0854 19.2817C14.5601 19.6151 15.0336 19.9476 15.6462 20.3617C15.8023 20.4672 15.9513 20.5768 16.0965 20.6835C16.6489 21.0897 17.1452 21.4546 17.7584 21.3964C18.1147 21.3626 18.4827 21.0171 18.6696 19.9867C19.1113 17.5515 19.9795 12.2753 20.1802 10.1011C20.1978 9.91064 20.1757 9.66685 20.1579 9.55984C20.1402 9.45282 20.103 9.30035 19.9681 9.18747C19.8084 9.05379 19.5618 9.02561 19.4515 9.02761C18.95 9.03672 18.1806 9.31262 14.4778 10.9009Z" fill="#F2F2F2"/>
</svg>
