<svg width="25" height="34" viewBox="0 0 25 34" fill="none" xmlns="http://www.w3.org/2000/svg">
<path d="M4.35208 33.8797C4.12152 33.817 3.77989 33.6752 3.59292 33.5646C3.1647 33.3112 2.51364 32.6209 2.2954 32.189C1.87825 31.3633 1.89275 31.8073 1.89275 19.8522V8.75983H1.07689C0.386664 8.75983 0.240942 8.7374 0.13052 8.6142C0.0146182 8.48488 0 8.17411 0 5.83932C0 3.39329 0.0100482 3.20089 0.144222 3.07828C0.273789 2.95988 0.638446 2.94649 3.73255 2.94649H7.17666V1.63829V0.330099L7.38445 0.165049C7.58961 0.00209469 7.65446 0 12.4931 0C16.8011 0 17.4151 0.0149959 17.5692 0.123967C17.7386 0.243778 17.7445 0.293183 17.7445 1.59721V2.94649H21.2145C24.5794 2.94649 24.6893 2.95131 24.8423 3.10576C24.9935 3.25845 25 3.37121 25 5.83794C25 7.93127 24.9792 8.43966 24.8883 8.56543C24.7933 8.69704 24.6497 8.72593 23.9222 8.75983L23.0678 8.79965L23.0284 20.1476L22.989 31.4956L22.7415 32.023C22.3079 32.947 21.6236 33.5515 20.6772 33.8467C20.1888 33.999 19.9267 34.0039 12.472 33.9988C6.05325 33.9944 4.70151 33.9746 4.35208 33.8797ZM20.5277 32.8885C21.0774 32.6809 21.5169 32.2946 21.8085 31.763L22.0426 31.3363L22.0634 20.0477L22.0841 8.75919L12.4813 8.77943L2.87855 8.79965V19.9485C2.87855 30.7229 2.88359 31.1106 3.02885 31.4909C3.28158 32.1526 3.94058 32.7544 4.653 32.974C4.76143 33.0074 8.28238 33.0378 12.4773 33.0416C19.9302 33.0483 20.1142 33.0448 20.5277 32.8885ZM6.70347 20.9041V12.1841H7.17666H7.64984V20.9041V29.6241H7.17666H6.70347V20.9041ZM11.9874 20.9041V12.1841H12.4606H12.9338V20.9041V29.6241H12.4606H11.9874V20.9041ZM17.2713 20.9041V12.1841H17.7445H18.2177V20.9041V29.6241H17.7445H17.2713V20.9041ZM24.0353 5.83325L24.0564 3.90211H12.5014H0.946372V5.85342V7.80474L12.4803 7.78456L24.0142 7.76439L24.0353 5.83325ZM16.7981 1.95037V0.954258L12.4803 0.974846L8.16246 0.995435L8.13993 1.8663C8.12754 2.34528 8.13532 2.78426 8.15717 2.84183C8.18935 2.92651 9.01766 2.94649 12.4975 2.94649H16.7981L16.7981 1.95037Z" fill="white"/>
</svg>
