<svg width="36" height="21" viewBox="0 0 36 21" fill="none" xmlns="http://www.w3.org/2000/svg">
<path d="M17.306 20.5822C17.0802 20.5792 16.957 20.5726 16.9625 20.5638C16.9678 20.5553 16.9199 20.5496 16.8344 20.5488C16.7446 20.5479 16.7098 20.5436 16.7327 20.5362C16.7561 20.5288 16.7241 20.5243 16.6353 20.5227C16.5529 20.5213 16.5136 20.5162 16.531 20.5092C16.5503 20.5015 16.5246 20.4951 16.4475 20.4884C16.3863 20.4831 16.3236 20.4734 16.3083 20.4668C16.2669 20.449 16.2061 20.4368 16.1205 20.4292C16.0784 20.4256 16.038 20.4168 16.0308 20.4098C16.0235 20.4028 15.9937 20.3971 15.9647 20.3971C15.9356 20.3971 15.9118 20.3909 15.9118 20.3832C15.9118 20.3751 15.8674 20.3693 15.8066 20.3693C15.74 20.3693 15.7046 20.3642 15.71 20.3553C15.7154 20.3465 15.6798 20.3414 15.6126 20.3414C15.5455 20.3414 15.5098 20.3363 15.5152 20.3275C15.5206 20.319 15.4973 20.3136 15.4549 20.3136C15.4065 20.3136 15.3836 20.3074 15.378 20.2927C15.3736 20.2812 15.3576 20.2719 15.3425 20.2719C15.3275 20.2719 15.3112 20.2656 15.3065 20.2579C15.3017 20.2503 15.2767 20.244 15.2508 20.244C15.225 20.244 15.1999 20.2378 15.1952 20.2301C15.1904 20.2225 15.1591 20.2162 15.1256 20.2162C15.0921 20.2162 15.0608 20.21 15.056 20.2023C15.0513 20.1947 15.029 20.1884 15.0065 20.1884C14.984 20.1884 14.9656 20.1821 14.9656 20.1745C14.9656 20.1668 14.95 20.1605 14.9308 20.1605C14.9117 20.1605 14.896 20.1543 14.896 20.1466C14.896 20.139 14.8769 20.1327 14.8535 20.1327C14.8286 20.1327 14.8145 20.1269 14.8195 20.1188C14.8249 20.11 14.7939 20.1049 14.736 20.1049C14.6854 20.1049 14.6474 20.0993 14.6516 20.0924C14.6603 20.0784 14.6283 20.0631 14.5901 20.0631C14.5682 20.0631 14.5271 20.0459 14.4197 19.9918C14.4064 19.9851 14.3739 19.9796 14.3474 19.9796C14.321 19.9796 14.2955 19.9734 14.2908 19.9657C14.286 19.9581 14.2603 19.9518 14.2335 19.9518C14.2045 19.9518 14.1883 19.9462 14.1934 19.9379C14.1981 19.9303 14.1891 19.924 14.1733 19.924C14.1576 19.924 14.1447 19.9177 14.1447 19.9101C14.1447 19.9024 14.1297 19.8962 14.1114 19.8962C14.0931 19.8962 14.0745 19.8868 14.0701 19.8753C14.0651 19.8623 14.0439 19.8544 14.0137 19.8544C13.9872 19.8544 13.9616 19.8482 13.9568 19.8405C13.9521 19.8329 13.9267 19.8266 13.9003 19.8266C13.874 19.8266 13.8525 19.8204 13.8525 19.8127C13.8525 19.805 13.8399 19.7988 13.8246 19.7988C13.8093 19.7988 13.7968 19.7925 13.7968 19.7848C13.7968 19.7772 13.7843 19.7709 13.769 19.7709C13.7537 19.7709 13.7411 19.7647 13.7411 19.757C13.7411 19.7494 13.7224 19.7431 13.6994 19.7431C13.6764 19.7431 13.6576 19.7369 13.6576 19.7292C13.6576 19.7215 13.6347 19.7153 13.6066 19.7153C13.5786 19.7153 13.5596 19.7112 13.5645 19.7063C13.5771 19.6938 13.4537 19.6179 13.4206 19.6179C13.4056 19.6179 13.3933 19.6116 13.3933 19.6039C13.3933 19.5963 13.3745 19.59 13.3515 19.59C13.3286 19.59 13.3098 19.5838 13.3098 19.5761C13.3098 19.5685 13.2941 19.5622 13.275 19.5622C13.2559 19.5622 13.2402 19.556 13.2402 19.5483C13.2402 19.5407 13.2277 19.5344 13.2124 19.5344C13.1971 19.5344 13.1845 19.5281 13.1845 19.5205C13.1845 19.5128 13.1689 19.5065 13.1498 19.5065C13.1306 19.5065 13.115 19.5007 13.115 19.4936C13.115 19.4776 13.0354 19.437 13.0042 19.437C12.9915 19.437 12.9676 19.4244 12.9512 19.4091C12.9348 19.3938 12.9117 19.3813 12.8999 19.3813C12.8881 19.3813 12.8784 19.3751 12.8784 19.3674C12.8784 19.3598 12.8597 19.3535 12.8367 19.3535C12.8137 19.3535 12.7949 19.3472 12.7949 19.3396C12.7949 19.3319 12.7793 19.3256 12.7602 19.3256C12.741 19.3256 12.7254 19.3194 12.7254 19.3117C12.7254 19.3041 12.7157 19.2978 12.7038 19.2978C12.692 19.2978 12.6678 19.2822 12.6501 19.263C12.6323 19.2439 12.608 19.2282 12.5959 19.2282C12.5838 19.2282 12.5701 19.222 12.5654 19.2143C12.5606 19.2067 12.5446 19.2004 12.5298 19.2004C12.5149 19.2004 12.5027 19.1942 12.5027 19.1865C12.5027 19.1789 12.4902 19.1726 12.4749 19.1726C12.4596 19.1726 12.4471 19.1663 12.4471 19.1587C12.4471 19.151 12.4342 19.1447 12.4184 19.1447C12.4027 19.1447 12.3937 19.1385 12.3984 19.1308C12.4032 19.123 12.3916 19.1169 12.3714 19.1169C12.3518 19.1169 12.3358 19.1107 12.3358 19.103C12.3358 19.0954 12.3232 19.0891 12.3079 19.0891C12.2926 19.0891 12.2801 19.0826 12.2801 19.0747C12.2801 19.0669 12.2692 19.0562 12.2558 19.0511C12.2424 19.046 12.2193 19.0305 12.2044 19.0167C12.1896 19.003 12.1692 18.9917 12.1592 18.9917C12.1492 18.9917 12.141 18.9855 12.141 18.9778C12.141 18.9701 12.1253 18.9639 12.1062 18.9639C12.087 18.9639 12.0714 18.9576 12.0714 18.9499C12.0714 18.9423 12.062 18.936 12.0505 18.936C12.039 18.936 12.0297 18.9298 12.0297 18.9221C12.0297 18.9145 12.0171 18.9082 12.0018 18.9082C11.9865 18.9082 11.974 18.902 11.974 18.8943C11.974 18.8866 11.9621 18.8804 11.9477 18.8804C11.9332 18.8804 11.9177 18.871 11.9133 18.8595C11.9089 18.848 11.8956 18.8386 11.8838 18.8386C11.8566 18.8386 11.807 18.811 11.7777 18.7795C11.7653 18.7661 11.748 18.7551 11.7393 18.7551C11.7306 18.7551 11.7235 18.7489 11.7235 18.7412C11.7235 18.7336 11.711 18.7273 11.6957 18.7273C11.6804 18.7273 11.6679 18.7211 11.6679 18.7134C11.6679 18.7058 11.655 18.6995 11.6392 18.6995C11.6235 18.6995 11.6144 18.6932 11.6192 18.6856C11.6239 18.6779 11.6215 18.6716 11.6138 18.6716C11.6061 18.6716 11.5829 18.656 11.5622 18.6369C11.5416 18.6177 11.5162 18.6021 11.5058 18.6021C11.4955 18.6021 11.487 18.5958 11.487 18.5882C11.487 18.5805 11.4788 18.5742 11.4687 18.5742C11.4587 18.5742 11.4371 18.5617 11.4206 18.5464C11.4042 18.5311 11.3839 18.5186 11.3754 18.5186C11.367 18.5186 11.364 18.5123 11.3687 18.5047C11.3735 18.497 11.3644 18.4907 11.3487 18.4907C11.3329 18.4907 11.32 18.4848 11.32 18.4775C11.32 18.4702 11.2981 18.4538 11.2713 18.4411C11.2445 18.4284 11.2226 18.4136 11.2226 18.4083C11.2226 18.4029 11.2007 18.3899 11.1739 18.3794C11.1471 18.3689 11.1252 18.3552 11.1252 18.349C11.1252 18.3428 11.1158 18.3377 11.1043 18.3377C11.0929 18.3377 11.0835 18.3315 11.0835 18.3238C11.0835 18.3162 11.0741 18.3099 11.0626 18.3099C11.0511 18.3099 11.0417 18.3036 11.0417 18.296C11.0417 18.2883 11.0359 18.282 11.0288 18.282C11.0217 18.282 10.9927 18.2601 10.9643 18.2333C10.9359 18.2066 10.9055 18.1846 10.8968 18.1846C10.888 18.1846 10.8719 18.1721 10.8609 18.1568C10.8498 18.1415 10.8293 18.129 10.8152 18.129C10.8011 18.129 10.7935 18.1227 10.7982 18.1151C10.803 18.1074 10.7974 18.1011 10.786 18.1011C10.7745 18.1011 10.7374 18.0739 10.7037 18.0406C10.6699 18.0073 10.6225 17.9713 10.5985 17.9607C10.5744 17.95 10.5547 17.9366 10.5547 17.9308C10.5547 17.925 10.5467 17.9203 10.5369 17.9203C10.5271 17.9203 10.5101 17.9077 10.4991 17.8924C10.488 17.8771 10.4746 17.8646 10.4692 17.8646C10.4638 17.8646 10.4411 17.8474 10.4186 17.8263C10.3362 17.7491 10.2895 17.7115 10.2762 17.7115C10.2687 17.7115 10.2625 17.7053 10.2625 17.6976C10.2625 17.69 10.2565 17.6837 10.2493 17.6837C10.242 17.6837 10.2147 17.6618 10.1887 17.635C10.1627 17.6082 10.1369 17.5863 10.1313 17.5863C10.1257 17.5863 10.0971 17.5613 10.0677 17.5307C10.0383 17.5 10.0106 17.475 10.0061 17.475C10.0016 17.475 9.97021 17.4468 9.93626 17.4124C9.90231 17.3779 9.8679 17.3498 9.85981 17.3498C9.85169 17.3498 9.84509 17.3435 9.84509 17.3358C9.84509 17.3282 9.83829 17.3219 9.83 17.3219C9.82171 17.3219 9.76841 17.275 9.71157 17.2176C9.65472 17.1602 9.60543 17.1132 9.60202 17.1132C9.59858 17.1132 9.54296 17.06 9.47834 16.9949C9.41373 16.9299 9.35549 16.8767 9.34891 16.8767C9.34235 16.8767 9.31823 16.8544 9.29534 16.8273C9.21193 16.7283 9.17964 16.6958 9.16466 16.6958C9.15625 16.6958 9.14937 16.6899 9.14937 16.6827C9.14937 16.6756 9.12136 16.6396 9.08715 16.6027C9.05293 16.5659 9.02475 16.5311 9.02453 16.5253C9.02431 16.5196 9.01723 16.5149 9.00884 16.5149C9.00044 16.5149 8.97504 16.4945 8.9524 16.4697C8.85231 16.3597 8.77028 16.2784 8.75946 16.2784C8.75298 16.2784 8.74375 16.2658 8.73889 16.2505C8.73405 16.2352 8.72385 16.2227 8.71626 16.2227C8.70863 16.2227 8.70598 16.217 8.71027 16.21C8.71462 16.203 8.69586 16.1764 8.66868 16.1509C8.6415 16.1253 8.60546 16.0896 8.58861 16.0716C8.57176 16.0535 8.53136 16.0119 8.49884 15.979C8.46632 15.9462 8.4397 15.915 8.4397 15.9096C8.4397 15.9043 8.42091 15.8824 8.39795 15.8609C8.37499 15.8395 8.35621 15.8177 8.35621 15.8126C8.35621 15.8074 8.34842 15.7951 8.33882 15.7851C8.32925 15.7751 8.31203 15.753 8.30055 15.736C8.28907 15.7189 8.2562 15.6791 8.2275 15.6473C8.1988 15.6156 8.17532 15.5847 8.17532 15.5788C8.17532 15.5729 8.14871 15.5405 8.11618 15.5069C8.08366 15.4734 8.03826 15.4228 8.01531 15.3946C7.99235 15.3664 7.95165 15.3191 7.92486 15.2895C7.85364 15.2107 7.84138 15.1953 7.84138 15.1843C7.84138 15.1788 7.81477 15.1477 7.78224 15.1152C7.70763 15.0406 7.67945 15.0068 7.68831 15.0025C7.69217 15.0006 7.67492 14.9775 7.65005 14.9512C7.62518 14.9248 7.60483 14.8964 7.60483 14.8881C7.60483 14.8798 7.59958 14.873 7.59315 14.873C7.58675 14.873 7.57397 14.8565 7.56479 14.8364C7.54873 14.8012 7.49918 14.7407 7.44829 14.6942C7.4349 14.682 7.42393 14.6672 7.42393 14.6613C7.42393 14.6512 7.41631 14.641 7.34394 14.5553C7.32673 14.5349 7.31264 14.5132 7.31263 14.5071C7.31262 14.501 7.29853 14.481 7.28131 14.4625C7.23368 14.4116 7.21522 14.3881 7.21522 14.3782C7.21522 14.3733 7.1933 14.3474 7.16652 14.3206C7.13973 14.2938 7.11782 14.2665 7.11782 14.2599C7.11782 14.2533 7.10463 14.2356 7.08851 14.2206C7.07239 14.2056 7.0627 14.1877 7.06696 14.1808C7.07123 14.1739 7.05311 14.1478 7.0267 14.1229C7.00029 14.098 6.97868 14.0687 6.97868 14.0579C6.97868 14.047 6.97401 14.0381 6.96822 14.0381C6.96248 14.0381 6.94281 14.0099 6.92454 13.9755C6.90627 13.9411 6.88574 13.9129 6.87891 13.9129C6.8721 13.9129 6.86243 13.9019 6.85746 13.8885C6.85246 13.8751 6.83607 13.8532 6.82098 13.8398C6.80588 13.8264 6.79788 13.8155 6.80318 13.8155C6.80851 13.8155 6.79695 13.7983 6.77749 13.7774C6.75804 13.7564 6.74214 13.7342 6.74214 13.7281C6.74214 13.7161 6.72577 13.6947 6.67541 13.6409C6.65785 13.6221 6.6478 13.6068 6.65309 13.6068C6.65842 13.6068 6.64612 13.5914 6.62589 13.5726C6.60565 13.5539 6.58907 13.5318 6.58907 13.5235C6.58907 13.5152 6.56872 13.4871 6.54385 13.461C6.47671 13.3905 6.46467 13.374 6.47363 13.3651C6.47805 13.3606 6.47141 13.353 6.45887 13.3482C6.4463 13.3433 6.43601 13.3304 6.43601 13.3194C6.43601 13.3085 6.42349 13.286 6.40818 13.2696C6.39287 13.2532 6.38035 13.2315 6.38035 13.2215C6.38035 13.2114 6.37412 13.2032 6.36644 13.2032C6.35881 13.2032 6.35252 13.1939 6.35252 13.1824C6.35252 13.1709 6.34629 13.1615 6.3386 13.1615C6.33098 13.1615 6.32469 13.1505 6.32469 13.137C6.32469 13.1235 6.30904 13.1007 6.2899 13.0863C6.27077 13.072 6.25512 13.0516 6.25512 13.0411C6.25512 13.0307 6.2426 13.0114 6.22729 12.9983C6.21198 12.9852 6.19946 12.9658 6.19946 12.9553C6.19946 12.9447 6.18067 12.9186 6.15771 12.8971C6.13475 12.8757 6.11597 12.8489 6.11597 12.8376C6.11597 12.8263 6.10664 12.8093 6.09525 12.7999C6.08385 12.7904 6.07725 12.7782 6.08058 12.7729C6.08395 12.7674 6.07133 12.7465 6.05261 12.7263C6.03388 12.7061 6.01857 12.6845 6.01857 12.6782C6.01857 12.6719 6.00605 12.6577 5.99074 12.6467C5.97543 12.6356 5.96277 12.617 5.9626 12.6053C5.96243 12.5936 5.95005 12.5684 5.93508 12.5493C5.92012 12.5301 5.90774 12.509 5.90756 12.5022C5.90739 12.4955 5.8903 12.4753 5.86959 12.4575C5.84888 12.4397 5.8363 12.4208 5.84164 12.4155C5.84697 12.4101 5.83073 12.3857 5.80553 12.3612C5.78033 12.3368 5.74125 12.2814 5.71869 12.2382C5.69613 12.1951 5.67261 12.1597 5.66642 12.1597C5.66018 12.1597 5.65871 12.1539 5.66305 12.1469C5.6674 12.1398 5.65526 12.1217 5.63604 12.1066C5.61684 12.0915 5.60113 12.0691 5.60113 12.0568C5.60113 12.0445 5.59489 12.0344 5.58721 12.0344C5.57959 12.0344 5.5733 12.0219 5.5733 12.0066C5.5733 11.9913 5.56706 11.9788 5.55938 11.9788C5.55175 11.9788 5.54547 11.9704 5.54547 11.9601C5.54547 11.9498 5.53294 11.93 5.51763 11.9162C5.50233 11.9023 5.4898 11.8826 5.4898 11.8723C5.4898 11.862 5.47968 11.8536 5.46731 11.8536C5.45167 11.8536 5.44703 11.8451 5.45209 11.8257C5.45611 11.8104 5.45414 11.7979 5.44766 11.7979C5.44127 11.7979 5.43154 11.7838 5.42611 11.7666C5.42069 11.7494 5.4046 11.7251 5.39039 11.7128C5.37618 11.7004 5.36455 11.68 5.36455 11.6676C5.36455 11.6551 5.35832 11.6448 5.35063 11.6448C5.34301 11.6448 5.33672 11.6323 5.33672 11.617C5.33672 11.6017 5.3318 11.5892 5.3258 11.5892C5.31982 11.5892 5.30373 11.5703 5.29008 11.5472C5.27644 11.5241 5.25877 11.5092 5.25081 11.5141C5.24154 11.5199 5.23971 11.5124 5.24572 11.4935C5.25261 11.472 5.24925 11.464 5.2333 11.464C5.22077 11.464 5.21149 11.4521 5.21149 11.4361C5.21149 11.4208 5.2064 11.4083 5.20024 11.4083C5.19401 11.4083 5.16811 11.3692 5.1426 11.3213C5.11709 11.2735 5.08759 11.2293 5.07703 11.2231C5.06648 11.2168 5.06167 11.2056 5.06636 11.198C5.07103 11.1905 5.05865 11.1692 5.03882 11.1508C5.01899 11.1325 5.00277 11.1077 5.00277 11.0959C5.00277 11.084 4.99654 11.0743 4.98886 11.0743C4.98123 11.0743 4.97494 11.0618 4.97494 11.0465C4.97494 11.0312 4.96871 11.0187 4.96103 11.0187C4.9534 11.0187 4.94711 11.0062 4.94711 10.9909C4.94711 10.9755 4.94088 10.963 4.9332 10.963C4.92557 10.963 4.91928 10.9552 4.91928 10.9455C4.91928 10.9358 4.90404 10.9164 4.88541 10.9025C4.86647 10.8882 4.85486 10.8684 4.85908 10.8574C4.86326 10.8466 4.86014 10.8378 4.85219 10.8378C4.83652 10.8378 4.79403 10.7608 4.79403 10.7325C4.79403 10.7228 4.78935 10.7128 4.78359 10.7102C4.77052 10.7044 4.72533 10.6303 4.71501 10.5978C4.71075 10.5844 4.70176 10.5734 4.69499 10.5734C4.68827 10.5734 4.6827 10.5606 4.6827 10.5449C4.6827 10.5293 4.66852 10.5026 4.6512 10.4858C4.63387 10.4689 4.61039 10.4364 4.59902 10.4134C4.57456 10.364 4.56936 10.3565 4.52212 10.3025C4.50224 10.2798 4.48258 10.2442 4.47842 10.2234C4.47424 10.2026 4.46218 10.1823 4.45156 10.1782C4.44094 10.1741 4.43225 10.1581 4.43225 10.1426C4.43225 10.1271 4.41973 10.1066 4.40442 10.0971C4.38911 10.0875 4.37659 10.0687 4.37659 10.0552C4.37659 10.0418 4.37036 10.0307 4.36267 10.0307C4.35505 10.0307 4.34876 10.012 4.34876 9.989C4.34876 9.96604 4.34253 9.94726 4.33484 9.94726C4.32722 9.94726 4.32093 9.93787 4.32093 9.92639C4.32093 9.91491 4.31469 9.90552 4.30701 9.90552C4.29938 9.90552 4.2931 9.89568 4.2931 9.88366C4.2931 9.87163 4.28531 9.85306 4.2757 9.84239C4.23242 9.79413 4.22353 9.78008 4.22353 9.76001C4.22353 9.74821 4.21688 9.73855 4.20879 9.73855C4.20067 9.73855 4.19795 9.73223 4.20272 9.72453C4.20748 9.71682 4.20158 9.70676 4.18963 9.70217C4.17766 9.69758 4.16787 9.6851 4.16787 9.67444C4.16787 9.66378 4.16164 9.65505 4.15396 9.65505C4.14633 9.65505 4.14004 9.64567 4.14004 9.63419C4.14004 9.62271 4.13512 9.61332 4.12917 9.61332C4.12318 9.61332 4.10997 9.58514 4.09981 9.5507C4.08964 9.51626 4.07651 9.48808 4.07063 9.48808C4.06473 9.48808 4.05215 9.4693 4.04265 9.44634C4.03314 9.42338 4.01673 9.40459 4.00618 9.40459C3.99562 9.40459 3.987 9.39207 3.987 9.37676C3.987 9.36146 3.98077 9.34893 3.97308 9.34893C3.96546 9.34893 3.95917 9.33328 3.95917 9.31415C3.95917 9.29502 3.95293 9.27936 3.94525 9.27936C3.93763 9.27936 3.93134 9.26684 3.93134 9.25153C3.93134 9.23622 3.92551 9.2237 3.91836 9.2237C3.91123 9.2237 3.90164 9.21193 3.89708 9.19753C3.89248 9.18313 3.87656 9.15727 3.86164 9.14008C3.84673 9.12287 3.83791 9.1033 3.84207 9.09658C3.84625 9.08986 3.83986 9.08061 3.82787 9.07602C3.8159 9.07143 3.80611 9.05582 3.80611 9.04133C3.80611 9.02684 3.79988 9.015 3.7922 9.015C3.78457 9.015 3.77828 9.00247 3.77828 8.98716C3.77828 8.97185 3.77205 8.95933 3.76437 8.95933C3.75674 8.95933 3.75045 8.94368 3.75045 8.92455C3.75045 8.90542 3.74422 8.88976 3.73654 8.88976C3.72891 8.88976 3.72262 8.87724 3.72262 8.86193C3.72262 8.84663 3.71713 8.8341 3.7104 8.8341C3.70367 8.8341 3.69058 8.81577 3.68129 8.79336C3.67201 8.77095 3.65495 8.74898 3.64338 8.74453C3.63136 8.73994 3.62584 8.72732 3.6305 8.71518C3.63509 8.70313 3.62972 8.69046 3.61803 8.68598C3.60668 8.68163 3.59739 8.66621 3.59739 8.65172C3.59739 8.63723 3.59116 8.62538 3.58348 8.62538C3.57585 8.62538 3.56956 8.61424 3.56956 8.60062C3.56956 8.587 3.55704 8.56684 3.54173 8.55581C3.52642 8.54478 3.5139 8.52148 3.5139 8.50404C3.5139 8.48659 3.5084 8.47233 3.50172 8.47233C3.495 8.47233 3.48584 8.45379 3.48131 8.43115C3.4768 8.4085 3.45409 8.37181 3.43087 8.34963C3.40766 8.32745 3.38867 8.29902 3.38867 8.28646C3.38867 8.2739 3.38244 8.26361 3.37475 8.26361C3.36713 8.26361 3.36084 8.24483 3.36084 8.22187C3.36084 8.19891 3.35461 8.18012 3.34692 8.18012C3.3393 8.18012 3.33301 8.1676 3.33301 8.15229C3.33301 8.13698 3.32677 8.12446 3.31909 8.12446C3.31147 8.12446 3.30518 8.11507 3.30518 8.10359C3.30518 8.09211 3.29894 8.08272 3.29126 8.08272C3.28363 8.08272 3.27734 8.07086 3.27734 8.05638C3.27734 8.04189 3.26805 8.02648 3.25671 8.02212C3.24536 8.01778 3.23945 8.00539 3.24359 7.9946C3.24778 7.98382 3.24072 7.97101 3.22801 7.96613C3.2153 7.96129 3.20828 7.94845 3.21242 7.93766C3.21652 7.92688 3.21094 7.9146 3.19995 7.91039C3.18895 7.90621 3.17995 7.89138 3.17995 7.87752C3.17995 7.86366 3.16743 7.8433 3.15212 7.83228C3.13681 7.82125 3.12429 7.80108 3.12429 7.78746C3.12429 7.77385 3.11954 7.76271 3.11376 7.76271C3.10794 7.76271 3.09521 7.73697 3.08538 7.7055C3.07557 7.67404 3.05995 7.63982 3.05069 7.62946C3.00779 7.58147 2.99906 7.56762 2.99906 7.54762C2.99906 7.53582 2.99283 7.52616 2.98515 7.52616C2.97752 7.52616 2.97123 7.51051 2.97123 7.49138C2.97123 7.47225 2.965 7.45659 2.95732 7.45659C2.94969 7.45659 2.9434 7.44545 2.9434 7.43184C2.9434 7.41822 2.93088 7.39805 2.91557 7.38702C2.90026 7.37599 2.88774 7.35582 2.88774 7.34221C2.88774 7.3286 2.88151 7.31745 2.87382 7.31745C2.8662 7.31745 2.85991 7.29621 2.85991 7.27025C2.85991 7.24136 2.85187 7.21996 2.83927 7.21512C2.82753 7.21061 2.82217 7.19798 2.82685 7.1858C2.83136 7.17404 2.82857 7.1644 2.82061 7.1644C2.81266 7.1644 2.80215 7.15179 2.79725 7.13637C2.79233 7.12096 2.78254 7.11194 2.77544 7.11633C2.76831 7.12075 2.76252 7.10829 2.76252 7.0887C2.76252 7.06912 2.75629 7.0531 2.74861 7.0531C2.74098 7.0531 2.73469 7.03744 2.73469 7.01831C2.73469 6.99918 2.72846 6.98353 2.72078 6.98353C2.71315 6.98353 2.70686 6.9733 2.70686 6.96081C2.70686 6.94831 2.69524 6.92796 2.68102 6.91558C2.66681 6.90321 2.65071 6.8789 2.64524 6.86157C2.63975 6.84423 2.62948 6.83365 2.62238 6.83804C2.61524 6.84247 2.60946 6.83001 2.60946 6.81042C2.60946 6.79083 2.60323 6.77481 2.59555 6.77481C2.58792 6.77481 2.58163 6.7667 2.58163 6.75672C2.58163 6.73112 2.54891 6.66374 2.53641 6.66361C2.53067 6.66355 2.52597 6.6541 2.52597 6.64262C2.52597 6.63114 2.52105 6.62175 2.5151 6.62175C2.50911 6.62175 2.49544 6.59201 2.48471 6.55566C2.45853 6.46698 2.41367 6.38521 2.39121 6.38521C2.38115 6.38521 2.37291 6.37269 2.37291 6.35738C2.37291 6.34207 2.36668 6.32955 2.359 6.32955C2.35137 6.32955 2.34508 6.30763 2.34508 6.28085C2.34508 6.25407 2.33885 6.23215 2.33117 6.23215C2.32354 6.23215 2.31725 6.21963 2.31725 6.20432C2.31725 6.18901 2.312 6.17649 2.30557 6.17649C2.29046 6.17649 2.2616 6.1131 2.2616 6.07992C2.2616 6.06579 2.2515 6.05036 2.23915 6.04562C2.22441 6.03996 2.21932 6.02697 2.22433 6.00781C2.22925 5.98903 2.22113 5.96699 2.20156 5.94603C2.14712 5.8877 2.13637 5.87187 2.13637 5.85008C2.13637 5.83828 2.13014 5.82862 2.12245 5.82862C2.11483 5.82862 2.10854 5.81297 2.10854 5.79384C2.10854 5.77471 2.1023 5.75905 2.09462 5.75905C2.087 5.75905 2.08071 5.74939 2.08071 5.73758C2.08071 5.72576 2.0656 5.69981 2.04714 5.67989C2.02867 5.65998 2.01682 5.6352 2.0208 5.62484C2.02506 5.61382 2.01875 5.606 2.00567 5.606C1.9901 5.606 1.98331 5.59332 1.98331 5.56425C1.98331 5.54129 1.97707 5.52251 1.96939 5.52251C1.96176 5.52251 1.95548 5.51036 1.95548 5.4955C1.95548 5.48065 1.94924 5.46462 1.94156 5.45989C1.93393 5.45514 1.92764 5.43914 1.92764 5.42429C1.92764 5.40944 1.92141 5.39728 1.91373 5.39728C1.9061 5.39728 1.89981 5.38476 1.89981 5.36945C1.89981 5.35415 1.89489 5.34162 1.88894 5.34162C1.88295 5.34162 1.86938 5.31187 1.85877 5.27552C1.8353 5.19513 1.81533 5.16073 1.79211 5.16073C1.78248 5.16073 1.77459 5.14821 1.77459 5.1329C1.77459 5.11759 1.76836 5.10507 1.76068 5.10507C1.75305 5.10507 1.74676 5.08628 1.74676 5.06332C1.74676 5.04036 1.74053 5.02158 1.73285 5.02158C1.72522 5.02158 1.71893 5.00592 1.71893 4.98679C1.71893 4.96766 1.7127 4.95201 1.70501 4.95201C1.69739 4.95201 1.6911 4.94236 1.6911 4.93056C1.6911 4.91876 1.67858 4.89566 1.66327 4.87923C1.64796 4.8628 1.63544 4.83833 1.63544 4.82485C1.63544 4.81137 1.62511 4.79456 1.61249 4.78749C1.59764 4.77918 1.59226 4.76419 1.59727 4.74506C1.60243 4.72524 1.5985 4.71547 1.58543 4.71547C1.57467 4.71547 1.56587 4.70332 1.56587 4.68846C1.56587 4.67361 1.55964 4.65758 1.55195 4.65286C1.54433 4.6481 1.53804 4.6321 1.53804 4.61725C1.53804 4.6024 1.53181 4.59024 1.52412 4.59024C1.5165 4.59024 1.51021 4.57772 1.51021 4.56241C1.51021 4.5471 1.50398 4.53458 1.49629 4.53458C1.48867 4.53458 1.48238 4.51579 1.48238 4.49283C1.48238 4.46987 1.47737 4.45109 1.47126 4.45109C1.46514 4.45109 1.45221 4.42917 1.44253 4.40239C1.43284 4.3756 1.41593 4.35369 1.40495 4.35369C1.39292 4.35369 1.38498 4.33985 1.38498 4.3189C1.38498 4.29977 1.37871 4.28412 1.37106 4.28412C1.36341 4.28412 1.35715 4.25908 1.35715 4.22846C1.35715 4.19785 1.35088 4.1728 1.34323 4.1728C1.33558 4.1728 1.32932 4.16166 1.32932 4.14805C1.32932 4.13444 1.31679 4.11426 1.30149 4.10323C1.28618 4.0922 1.27366 4.0724 1.27366 4.05924C1.27366 4.04608 1.26739 4.03144 1.25974 4.0267C1.25209 4.02195 1.24583 4.00036 1.24583 3.97867C1.24583 3.95665 1.23672 3.93574 1.22519 3.93131C1.21384 3.92697 1.20794 3.91458 1.21208 3.90379C1.21622 3.89301 1.2092 3.8802 1.19649 3.87532C1.1828 3.87008 1.1767 3.85778 1.18154 3.84517C1.18616 3.83313 1.18075 3.82046 1.16907 3.81597C1.15772 3.81163 1.14843 3.7962 1.14843 3.78171C1.14843 3.76722 1.14216 3.75537 1.13452 3.75537C1.12686 3.75537 1.1206 3.73659 1.1206 3.71363C1.1206 3.69067 1.11434 3.67188 1.10669 3.67188C1.09904 3.67188 1.09277 3.65623 1.09277 3.6371C1.09277 3.61797 1.08651 3.60231 1.07886 3.60231C1.07121 3.60231 1.06494 3.58979 1.06494 3.57448C1.06494 3.55918 1.0591 3.54665 1.05197 3.54665C1.04483 3.54665 1.03499 3.53404 1.03009 3.51862C1.02512 3.50295 1.01446 3.49476 1.00592 3.50003C0.996297 3.50602 0.993739 3.50143 0.999006 3.48768C1.00361 3.47569 0.998609 3.45431 0.987898 3.44017C0.977188 3.42604 0.968226 3.39726 0.967982 3.37621C0.967739 3.35516 0.961274 3.33794 0.953626 3.33794C0.945975 3.33794 0.939711 3.32542 0.939711 3.31011C0.939711 3.2948 0.933446 3.28228 0.925796 3.28228C0.918146 3.28228 0.911882 3.27013 0.911882 3.25527C0.911882 3.24042 0.905617 3.2244 0.897967 3.21967C0.890317 3.21491 0.884053 3.19891 0.884053 3.18406C0.884053 3.16921 0.877788 3.15705 0.870138 3.15705C0.862487 3.15705 0.856223 3.14735 0.856223 3.13549C0.856223 3.10976 0.816078 3.02841 0.797436 3.01635C0.790195 3.01168 0.78481 3.00384 0.785463 2.99896C0.789883 2.96595 0.784635 2.94794 0.772738 2.95529C0.764849 2.96013 0.758823 2.94849 0.758823 2.92828C0.758823 2.9087 0.752558 2.89268 0.744908 2.89268C0.737258 2.89268 0.730994 2.88052 0.730994 2.86567C0.730994 2.85082 0.724729 2.83479 0.717079 2.83006C0.709429 2.82531 0.703165 2.80931 0.703165 2.79446C0.703165 2.77961 0.6969 2.76745 0.68925 2.76745C0.6816 2.76745 0.675335 2.75493 0.675335 2.73962C0.675335 2.72431 0.670596 2.71178 0.664809 2.71178C0.651212 2.71178 0.619678 2.6109 0.619678 2.56739C0.619678 2.54896 0.610286 2.53027 0.598807 2.52587C0.58503 2.52062 0.577935 2.49879 0.577935 2.46177C0.577935 2.43092 0.57167 2.40567 0.56402 2.40567C0.55637 2.40567 0.550106 2.38741 0.550106 2.36509C0.550106 2.34277 0.542275 2.3219 0.532713 2.31871C0.519652 2.31436 0.51532 2.25012 0.51532 2.06075C0.51532 1.82487 0.517116 1.80722 0.543148 1.78754C0.558454 1.77597 0.566034 1.7663 0.559993 1.76605C0.553949 1.76581 0.55563 1.75778 0.563732 1.74822C0.617316 1.68491 0.633614 1.66227 0.640057 1.64221C0.644067 1.62973 0.66615 1.60699 0.689131 1.59168C0.712112 1.57637 0.730933 1.55916 0.730955 1.55342C0.730983 1.54768 0.743887 1.54298 0.759645 1.54298C0.775403 1.54298 0.784426 1.53675 0.779696 1.52907C0.774965 1.52144 0.781123 1.51515 0.793371 1.51515C0.805622 1.51515 0.829087 1.50263 0.845517 1.48732C0.861945 1.47201 0.883599 1.45949 0.893635 1.45949C0.903671 1.45949 0.911883 1.45326 0.911883 1.44557C0.911883 1.43795 0.930298 1.43166 0.952806 1.43166C0.975313 1.43166 0.997597 1.42543 1.00233 1.41774C1.00706 1.41012 1.03836 1.40383 1.0719 1.40383C1.10543 1.40383 1.13629 1.39825 1.14048 1.39152C1.14466 1.38471 1.1774 1.37482 1.21322 1.36944C1.25947 1.36247 1.27263 1.35605 1.25861 1.34718C1.24562 1.33896 1.26648 1.33461 1.3197 1.33447C1.36999 1.33433 1.39728 1.32898 1.39193 1.32034C1.38621 1.31109 2.29649 1.30643 4.11219 1.30643C5.92789 1.30643 6.83817 1.3111 6.83245 1.32034C6.82745 1.32846 6.84186 1.33426 6.86724 1.33426C6.8911 1.33426 6.90706 1.34 6.90272 1.34704C6.89837 1.35409 6.91358 1.36394 6.93653 1.36899C6.95946 1.37399 6.98181 1.38393 6.98617 1.39099C6.99052 1.39804 7.01216 1.40383 7.03421 1.40383C7.05626 1.40383 7.07817 1.41006 7.08291 1.41774C7.08766 1.42537 7.11618 1.43166 7.14634 1.43166C7.1765 1.43166 7.20117 1.43789 7.20117 1.44557C7.20117 1.4532 7.21683 1.45949 7.23596 1.45949C7.25509 1.45949 7.27074 1.46572 7.27074 1.4734C7.27074 1.48103 7.28013 1.48732 7.29161 1.48732C7.30309 1.48732 7.31248 1.49355 7.31248 1.50124C7.31248 1.50886 7.325 1.51515 7.34031 1.51515C7.35562 1.51515 7.36814 1.52138 7.36814 1.52907C7.36814 1.53669 7.38103 1.54298 7.39679 1.54298C7.41255 1.54298 7.42185 1.5488 7.41747 1.5559C7.41304 1.56303 7.4205 1.57238 7.43404 1.57673C7.44754 1.58108 7.4786 1.60346 7.50306 1.62643C7.52752 1.64941 7.55413 1.66821 7.5622 1.66821C7.57023 1.66821 7.57686 1.67444 7.57686 1.68213C7.57686 1.68975 7.58375 1.69604 7.59216 1.69604C7.61022 1.69604 7.68818 1.77669 7.68818 1.79538C7.68818 1.80251 7.70854 1.82943 7.73341 1.85527C7.79999 1.92445 7.84084 1.97895 7.84106 1.99887C7.84131 2.02302 7.86979 2.07063 7.9076 2.11012C7.92497 2.12826 7.93553 2.149 7.93107 2.15621C7.92664 2.16343 7.93279 2.17308 7.94471 2.17767C7.95928 2.18325 7.96647 2.2039 7.96647 2.24019C7.96647 2.26998 7.9727 2.29436 7.98038 2.29436C7.98801 2.29436 7.9943 2.30688 7.9943 2.32219C7.9943 2.3375 8.00682 2.36254 8.02213 2.37784C8.03744 2.39315 8.04996 2.41469 8.04996 2.42572C8.04996 2.43675 8.05619 2.44964 8.06387 2.45437C8.0715 2.45913 8.07779 2.48415 8.07779 2.51003C8.07779 2.53591 8.08402 2.56097 8.09171 2.56569C8.09933 2.57044 8.10562 2.58577 8.10562 2.59981C8.10562 2.61385 8.11501 2.62893 8.12649 2.63334C8.13797 2.63777 8.14736 2.65094 8.14736 2.66265C8.14736 2.67437 8.15359 2.68396 8.16127 2.68396C8.1689 2.68396 8.17519 2.69649 8.17519 2.7118C8.17519 2.72711 8.18142 2.73963 8.18911 2.73963C8.19673 2.73963 8.20302 2.76155 8.20302 2.78833C8.20302 2.81511 8.20925 2.83703 8.21694 2.83703C8.22456 2.83703 8.23085 2.85581 8.23085 2.87877C8.23085 2.90173 8.23667 2.92052 8.24386 2.92052C8.251 2.92052 8.2648 2.94244 8.27449 2.96922C8.28418 2.996 8.29711 3.01792 8.30322 3.01792C8.30937 3.01792 8.31434 3.03603 8.31434 3.05817C8.31434 3.08112 8.32332 3.10187 8.33521 3.10644C8.34741 3.11111 8.35608 3.13197 8.35608 3.15663C8.35608 3.17983 8.36231 3.19881 8.37 3.19881C8.37762 3.19881 8.38391 3.2176 8.38391 3.24056C8.38391 3.26352 8.39014 3.2823 8.39783 3.2823C8.40545 3.2823 8.41174 3.29482 8.41174 3.31013C8.41174 3.32544 8.41798 3.33796 8.42566 3.33796C8.43328 3.33796 8.43957 3.34746 8.43957 3.35905C8.43957 3.39279 8.47317 3.49102 8.48471 3.49102C8.49053 3.49102 8.49524 3.50206 8.49524 3.51555C8.49524 3.52904 8.51089 3.55183 8.53002 3.5662C8.54915 3.58057 8.5648 3.60397 8.5648 3.6182C8.5648 3.63244 8.57104 3.64408 8.57872 3.64408C8.58635 3.64408 8.59264 3.66287 8.59264 3.68583C8.59264 3.70879 8.59887 3.72758 8.60655 3.72758C8.61418 3.72758 8.62047 3.73973 8.62047 3.75459C8.62047 3.76944 8.6267 3.78546 8.63438 3.79019C8.64201 3.79495 8.6483 3.80826 8.6483 3.81983C8.6483 3.83141 8.65768 3.85026 8.66915 3.86173C8.68061 3.87319 8.6942 3.8993 8.69933 3.91973C8.70449 3.94017 8.71705 3.96529 8.7273 3.97554C8.73756 3.9858 8.74238 4 8.73799 4.00709C8.73364 4.01414 8.73979 4.02374 8.75177 4.02833C8.76374 4.03292 8.77353 4.04852 8.77353 4.06301C8.77353 4.0775 8.77976 4.08935 8.78744 4.08935C8.79507 4.08935 8.80136 4.10187 8.80136 4.11718C8.80136 4.13249 8.80759 4.14501 8.81527 4.14501C8.8229 4.14501 8.82919 4.16693 8.82919 4.19371C8.82919 4.22049 8.83542 4.24241 8.8431 4.24241C8.85073 4.24241 8.85702 4.25493 8.85702 4.27024C8.85702 4.28554 8.86325 4.29807 8.87094 4.29807C8.87856 4.29807 8.88485 4.3106 8.88485 4.32591C8.88485 4.34121 8.89108 4.35374 8.89877 4.35374C8.90639 4.35374 8.91268 4.36645 8.91268 4.382C8.91268 4.39755 8.92207 4.41387 8.93355 4.41828C8.94558 4.42287 8.95442 4.44369 8.95442 4.46736C8.95442 4.4912 8.96024 4.50483 8.96834 4.49984C8.97629 4.49492 8.98225 4.50689 8.98225 4.52767C8.98225 4.5484 8.98824 4.56039 8.99617 4.5555C9.00379 4.55074 9.01008 4.55664 9.01008 4.56859C9.01008 4.58052 9.01631 4.59028 9.024 4.59028C9.03162 4.59028 9.03791 4.60594 9.03791 4.62507C9.03791 4.6442 9.04308 4.65985 9.04931 4.65985C9.05554 4.65985 9.06924 4.69116 9.07965 4.72942C9.09007 4.76768 9.10304 4.79899 9.10849 4.79899C9.1139 4.79899 9.12237 4.8149 9.12725 4.83435C9.13217 4.85379 9.14213 4.86599 9.14947 4.86146C9.15693 4.85686 9.15915 4.86277 9.15456 4.8748C9.14923 4.88879 9.15414 4.89639 9.16863 4.89639C9.1842 4.89639 9.19099 4.90906 9.19099 4.93813C9.19099 4.96109 9.19722 4.97988 9.2049 4.97988C9.21253 4.97988 9.21882 4.99553 9.21882 5.01466C9.21882 5.0338 9.22505 5.04945 9.23274 5.04945C9.24036 5.04945 9.24665 5.06059 9.24665 5.0742C9.24665 5.08782 9.25917 5.10799 9.27448 5.11902C9.28978 5.13005 9.30231 5.15022 9.30231 5.16383C9.30231 5.17744 9.30854 5.18859 9.31623 5.18859C9.32385 5.18859 9.33014 5.2105 9.33014 5.23729C9.33014 5.27286 9.33621 5.28599 9.35264 5.28599C9.36776 5.28599 9.3729 5.29451 9.36832 5.31202C9.36422 5.3277 9.37218 5.34569 9.38824 5.35724C9.42107 5.38082 9.45537 5.44701 9.45537 5.48681C9.45537 5.50308 9.46789 5.52542 9.4832 5.53645C9.49851 5.54748 9.51103 5.56536 9.51103 5.57619C9.51103 5.58702 9.52668 5.61038 9.54581 5.62811C9.56494 5.64584 9.5806 5.67004 9.5806 5.68189C9.5806 5.69374 9.58683 5.70342 9.59451 5.70342C9.60214 5.70342 9.60843 5.71594 9.60843 5.73125C9.60843 5.74656 9.61466 5.75909 9.62234 5.75909C9.62997 5.75909 9.63626 5.77109 9.63626 5.78575C9.63626 5.80042 9.64118 5.81451 9.64723 5.81706C9.6533 5.8196 9.68245 5.8731 9.71208 5.93593C9.74172 5.99876 9.77122 6.04691 9.77764 6.04294C9.78404 6.03901 9.78932 6.0486 9.78932 6.06438C9.78932 6.08014 9.79555 6.09303 9.80323 6.09303C9.81086 6.09303 9.81715 6.10555 9.81715 6.12086C9.81715 6.13617 9.82338 6.14869 9.83107 6.14869C9.83869 6.14869 9.84498 6.16121 9.84498 6.17652C9.84498 6.19183 9.85121 6.20435 9.8589 6.20435C9.86652 6.20435 9.87281 6.21569 9.87281 6.22956C9.87281 6.24343 9.88533 6.26821 9.90064 6.28464C9.91595 6.30107 9.92847 6.32416 9.92847 6.33596C9.92847 6.34776 9.93471 6.35741 9.94239 6.35741C9.95001 6.35741 9.9563 6.36993 9.9563 6.38524C9.9563 6.40055 9.96213 6.41308 9.96928 6.41308C9.97642 6.41308 9.98641 6.42716 9.99147 6.44438C9.99656 6.4616 10.0173 6.49134 10.0377 6.51048C10.0581 6.52961 10.0834 6.57031 10.094 6.60092C10.1047 6.63153 10.127 6.66933 10.1437 6.68491C10.1603 6.7005 10.1714 6.72084 10.1683 6.73014C10.1652 6.73943 10.1726 6.74702 10.1847 6.74702C10.1975 6.74702 10.2068 6.75874 10.2068 6.77485C10.2068 6.79016 10.213 6.80268 10.2207 6.80268C10.2283 6.80268 10.2346 6.81402 10.2346 6.82789C10.2346 6.84175 10.2456 6.86555 10.2589 6.88078C10.2934 6.91991 10.3181 6.9657 10.3181 6.99034C10.3181 7.00193 10.3243 7.0114 10.332 7.0114C10.3396 7.0114 10.3459 7.02347 10.3459 7.03822C10.3459 7.05297 10.3616 7.07735 10.3807 7.09241C10.3998 7.10745 10.4155 7.12982 10.4155 7.14211C10.4155 7.1544 10.4217 7.16446 10.4294 7.16446C10.437 7.16446 10.4433 7.17411 10.4433 7.18591C10.4433 7.19771 10.4548 7.21973 10.4689 7.23485C10.483 7.24996 10.5034 7.27944 10.5141 7.30036C10.5249 7.32127 10.54 7.346 10.5477 7.3553C10.5553 7.3646 10.5694 7.38155 10.579 7.39298C10.5885 7.4044 10.5964 7.4234 10.5964 7.4352C10.5964 7.447 10.603 7.45666 10.6111 7.45666C10.6192 7.45666 10.6223 7.4624 10.6179 7.46946C10.6136 7.47651 10.6257 7.49462 10.6449 7.50973C10.6641 7.52483 10.6798 7.54725 10.6798 7.55954C10.6798 7.57183 10.6861 7.58189 10.6938 7.58189C10.7014 7.58189 10.7077 7.59441 10.7077 7.60972C10.7077 7.62502 10.7139 7.63755 10.7216 7.63755C10.7292 7.63755 10.7355 7.64663 10.7355 7.65773C10.7355 7.66883 10.7465 7.68404 10.7599 7.69154C10.7732 7.699 10.7834 7.7103 10.7825 7.71658C10.7791 7.73957 10.7946 7.76278 10.8135 7.76278C10.8242 7.76278 10.8329 7.7753 10.8329 7.79061C10.8329 7.80592 10.8391 7.81844 10.8468 7.81844C10.8544 7.81844 10.8607 7.83004 10.8607 7.84421C10.8607 7.85838 10.8795 7.88963 10.9025 7.91365C10.9254 7.93768 10.9442 7.9641 10.9442 7.97236C10.9442 7.98064 10.952 7.99613 10.9616 8.0068C11.0042 8.05431 11.0142 8.0689 11.0039 8.06892C10.9978 8.06893 11.0101 8.08374 11.0312 8.10184C11.0522 8.11994 11.0694 8.14498 11.0694 8.15748C11.0694 8.16998 11.0757 8.18021 11.0834 8.18021C11.091 8.18021 11.0973 8.19273 11.0973 8.20804C11.0973 8.22335 11.1029 8.23587 11.1096 8.23587C11.1164 8.23587 11.1317 8.25642 11.1436 8.28154C11.1626 8.32166 11.1777 8.34309 11.2353 8.4118C11.2426 8.42055 11.2449 8.4315 11.2403 8.43615C11.2356 8.44083 11.24 8.44459 11.25 8.44459C11.2733 8.44459 11.305 8.48621 11.3056 8.51765C11.3058 8.53104 11.3115 8.542 11.3182 8.542C11.325 8.542 11.3377 8.55946 11.3465 8.58079C11.3554 8.60212 11.3781 8.63118 11.3969 8.64535C11.4158 8.65953 11.4313 8.67965 11.4313 8.69005C11.4313 8.70046 11.4375 8.70898 11.4452 8.70898C11.4528 8.70898 11.4591 8.71836 11.4591 8.72984C11.4591 8.74132 11.4653 8.75071 11.473 8.75071C11.4806 8.75071 11.4869 8.76032 11.4869 8.77205C11.4869 8.78378 11.5073 8.81476 11.5321 8.84087C11.5976 8.90957 11.6078 8.92366 11.6032 8.93886C11.6009 8.94632 11.6206 8.96813 11.647 8.98726C11.6733 9.00639 11.695 9.03301 11.6953 9.0464C11.6955 9.05979 11.7019 9.07075 11.7096 9.07075C11.7172 9.07075 11.7236 9.07854 11.7238 9.08814C11.7239 9.09771 11.7458 9.12426 11.7725 9.14715C11.7991 9.17004 11.8209 9.19664 11.8209 9.20629C11.8209 9.21592 11.8264 9.22381 11.8331 9.22381C11.8398 9.22381 11.8531 9.2426 11.8626 9.26556C11.8721 9.28852 11.8854 9.3073 11.8921 9.3073C11.8988 9.3073 11.9044 9.3137 11.9044 9.32149C11.9044 9.33494 11.9453 9.38042 12.1303 9.57233C12.1742 9.61789 12.2068 9.65516 12.2027 9.65516C12.1986 9.65516 12.2253 9.68562 12.262 9.72283C12.2987 9.76005 12.3379 9.80388 12.3492 9.82023C12.3605 9.83658 12.3777 9.84996 12.3875 9.84996C12.3973 9.84996 12.4053 9.85619 12.4053 9.86388C12.4053 9.8715 12.4147 9.87779 12.4261 9.87779C12.4376 9.87779 12.4454 9.88337 12.4435 9.89019C12.4395 9.90462 12.4928 9.95379 12.5479 9.98638C12.5689 9.99883 12.5861 10.0139 12.5861 10.0199C12.5861 10.0259 12.5973 10.0309 12.6109 10.0309C12.6245 10.0309 12.6447 10.0434 12.6557 10.0587C12.6667 10.074 12.6838 10.0865 12.6936 10.0865C12.7034 10.0865 12.7114 10.0947 12.7114 10.1048C12.7114 10.1148 12.7333 10.1317 12.7601 10.1422C12.7869 10.1527 12.8088 10.1664 12.8088 10.1726C12.8088 10.1788 12.8168 10.1839 12.8266 10.1839C12.8364 10.1839 12.8534 10.1964 12.8644 10.2117C12.8755 10.2271 12.8988 10.2396 12.9162 10.2396C12.9337 10.2396 12.9479 10.2458 12.9479 10.2535C12.9479 10.2611 12.9667 10.2674 12.9897 10.2674C13.0126 10.2674 13.0314 10.2736 13.0314 10.2813C13.0314 10.2889 13.0471 10.2952 13.0662 10.2952C13.0853 10.2952 13.101 10.3011 13.101 10.3082C13.101 10.3292 13.2451 10.3648 13.3301 10.3648C13.4116 10.3648 13.5463 10.3291 13.5463 10.3075C13.5463 10.3007 13.5654 10.2952 13.5888 10.2952C13.6137 10.2952 13.6278 10.2894 13.6228 10.2813C13.6179 10.2734 13.6296 10.2674 13.6498 10.2674C13.6694 10.2674 13.6854 10.2612 13.6854 10.2535C13.6854 10.2459 13.6932 10.2395 13.7028 10.2395C13.7124 10.2393 13.7358 10.2195 13.755 10.1953C13.7741 10.1711 13.8057 10.1351 13.8251 10.1154C13.884 10.0556 13.9359 9.98091 13.9359 9.95583C13.9359 9.94279 13.9499 9.91834 13.9672 9.90149C13.9844 9.88464 14.0005 9.86152 14.0031 9.85011C14.0056 9.8387 14.0125 9.82618 14.0184 9.82228C14.0399 9.808 14.0611 9.75331 14.0611 9.71175C14.0611 9.68829 14.0673 9.66909 14.075 9.66909C14.0826 9.66909 14.0889 9.65657 14.0889 9.64126C14.0889 9.62596 14.0936 9.61338 14.0993 9.61332C14.1147 9.61317 14.1446 9.54311 14.1446 9.50712C14.1446 9.48997 14.1508 9.47206 14.1585 9.46733C14.1661 9.46257 14.1728 9.42935 14.1734 9.39345C14.1741 9.34597 14.1774 9.33576 14.1856 9.35601C14.1943 9.37762 14.1988 9.36829 14.2059 9.31426C14.2197 9.20783 14.2451 9.09313 14.2581 9.07841C14.2645 9.07112 14.2698 9.0414 14.2698 9.01232C14.2698 8.98325 14.276 8.95945 14.2837 8.95945C14.2919 8.95945 14.2976 8.9087 14.2976 8.83504C14.2976 8.76662 14.3039 8.70676 14.3115 8.70203C14.3194 8.6972 14.3255 8.62973 14.3255 8.54733C14.3255 8.45347 14.3305 8.40431 14.3394 8.40983C14.3479 8.41508 14.3533 8.39347 14.3533 8.35417C14.3533 8.31487 14.3587 8.29325 14.3672 8.29851C14.3762 8.30408 14.3812 8.2441 14.3813 8.12888C14.3815 8.01997 14.3863 7.95822 14.3939 7.97011C14.4382 8.04018 14.4578 6.53068 14.4267 5.4391C14.4177 5.12151 14.4093 4.85853 14.4082 4.8547C14.4071 4.85085 14.4012 4.8634 14.395 4.88253C14.3885 4.90301 14.3832 4.81433 14.3823 4.66686C14.3812 4.49953 14.3762 4.42333 14.3672 4.43727C14.3578 4.45181 14.3536 4.42753 14.3535 4.35726C14.3534 4.29943 14.3473 4.25638 14.3394 4.25638C14.3311 4.25638 14.3255 4.20304 14.3255 4.1242C14.3255 4.04534 14.3199 3.99201 14.3115 3.99201C14.3032 3.99201 14.2976 3.93867 14.2976 3.85982C14.2976 3.78097 14.292 3.72764 14.2837 3.72764C14.2761 3.72764 14.2698 3.7101 14.2698 3.68868C14.2698 3.66725 14.2641 3.64377 14.2573 3.6365C14.2504 3.6292 14.2416 3.59824 14.2376 3.56763C14.2335 3.53702 14.2263 3.49319 14.2214 3.47023C14.2165 3.44727 14.2095 3.41414 14.2059 3.39661C14.2023 3.37908 14.1933 3.36849 14.1859 3.37308C14.178 3.37792 14.1724 3.35792 14.1724 3.32495C14.1724 3.29389 14.1662 3.26847 14.1585 3.26847C14.1509 3.26847 14.1446 3.24968 14.1446 3.22672C14.1446 3.20376 14.1383 3.18498 14.1307 3.18498C14.123 3.18498 14.1167 3.17245 14.1167 3.15714C14.1167 3.14183 14.1105 3.12931 14.1028 3.12931C14.0952 3.12931 14.0889 3.11679 14.0889 3.10148C14.0889 3.08617 14.0827 3.07365 14.075 3.07365C14.0674 3.07365 14.0611 3.05173 14.0611 3.02495C14.0611 2.99817 14.0548 2.97625 14.0472 2.97625C14.0395 2.97625 14.0332 2.96425 14.0332 2.94959C14.0332 2.93492 14.0274 2.92083 14.0204 2.91828C14.0133 2.91574 14.0055 2.9044 14.003 2.8931C13.9986 2.87348 13.9928 2.86453 13.9532 2.8173C13.9437 2.80588 13.9358 2.79001 13.9358 2.78204C13.9358 2.77408 13.9296 2.76753 13.9219 2.76753C13.9143 2.76753 13.908 2.75752 13.908 2.74528C13.908 2.73305 13.8892 2.70549 13.8663 2.68405C13.8433 2.6626 13.8245 2.63626 13.8245 2.62552C13.8245 2.60566 13.7379 2.50316 13.7211 2.50316C13.7047 2.50316 13.6451 2.43678 13.6538 2.4281C13.6584 2.42343 13.6518 2.41967 13.639 2.41967C13.6262 2.41967 13.6042 2.40872 13.5901 2.39532C13.5424 2.35024 13.5043 2.32226 13.4904 2.32226C13.4829 2.32226 13.4767 2.31718 13.4767 2.31095C13.4767 2.30472 13.4547 2.29103 13.428 2.28052C13.4012 2.27001 13.3793 2.25632 13.3793 2.2501C13.3793 2.24386 13.3699 2.23878 13.3584 2.23878C13.3469 2.23878 13.3375 2.23255 13.3375 2.22486C13.3375 2.21724 13.3288 2.21095 13.3181 2.21095C13.3075 2.21095 13.2952 2.20156 13.2908 2.19008C13.2863 2.1786 13.2673 2.16921 13.2483 2.16921C13.2294 2.16921 13.2101 2.16298 13.2053 2.1553C13.2006 2.14767 13.1846 2.14138 13.1697 2.14138C13.1549 2.14138 13.1427 2.13515 13.1427 2.12746C13.1427 2.11984 13.1333 2.11355 13.1219 2.11355C13.1104 2.11355 13.101 2.10732 13.101 2.09963C13.101 2.09201 13.0916 2.08572 13.0801 2.08572C13.0686 2.08572 13.0593 2.07949 13.0593 2.0718C13.0593 2.06418 13.0307 2.05789 12.9958 2.05789C12.9571 2.05789 12.9357 2.05248 12.941 2.04397C12.9462 2.03548 12.9249 2.03006 12.8862 2.03006C12.8513 2.03006 12.8227 2.02382 12.8227 2.01614C12.8227 2.00852 12.8077 2.00223 12.7894 2.00223C12.7711 2.00223 12.7525 1.99284 12.7481 1.98136C12.7437 1.96988 12.7278 1.96049 12.7127 1.96049C12.6976 1.96049 12.6813 1.95426 12.6766 1.94657C12.6719 1.93895 12.6218 1.93266 12.5653 1.93266C12.5088 1.93266 12.4587 1.92643 12.454 1.91874C12.4492 1.91112 12.4207 1.90483 12.3905 1.90483C12.3604 1.90483 12.3357 1.89859 12.3357 1.89091C12.3357 1.88329 12.329 1.877 12.3208 1.877C12.2847 1.877 12.2661 1.83488 12.2661 1.75276C12.2661 1.70572 12.2723 1.66828 12.2801 1.66828C12.2877 1.66828 12.294 1.65263 12.294 1.6335C12.294 1.61437 12.3002 1.59871 12.3079 1.59871C12.3155 1.59871 12.3218 1.57993 12.3218 1.55697C12.3218 1.52913 12.3288 1.51522 12.3427 1.51522C12.3542 1.51522 12.3635 1.50735 12.3635 1.49779C12.3635 1.47471 12.6368 1.19519 12.6593 1.19519C12.669 1.19519 12.6956 1.17341 12.7185 1.14679C12.7414 1.12017 12.7679 1.09825 12.7775 1.09809C12.7871 1.09792 12.7949 1.09153 12.7949 1.08387C12.7949 1.07624 12.8074 1.06996 12.8227 1.06996C12.838 1.06996 12.8505 1.06372 12.8505 1.05604C12.8505 1.04841 12.8604 1.04212 12.8724 1.04212C12.8843 1.04212 12.9148 1.02021 12.9401 0.993424C12.9653 0.966643 12.9966 0.944724 13.0095 0.944724C13.0225 0.944724 13.0292 0.938493 13.0245 0.930809C13.0195 0.922691 13.0336 0.916894 13.0584 0.916894C13.0819 0.916894 13.101 0.910661 13.101 0.902978C13.101 0.895352 13.1167 0.889063 13.1358 0.889063C13.1549 0.889063 13.1706 0.882831 13.1706 0.875148C13.1706 0.867522 13.1831 0.861232 13.1984 0.861232C13.2137 0.861232 13.2262 0.855 13.2262 0.847317C13.2262 0.839691 13.2419 0.833402 13.261 0.833402C13.2802 0.833402 13.2958 0.827169 13.2958 0.819486C13.2958 0.81186 13.3205 0.805571 13.3506 0.805571C13.3808 0.805571 13.4093 0.799339 13.4141 0.791655C13.4188 0.784029 13.4382 0.777739 13.4571 0.777739C13.476 0.777739 13.4951 0.768351 13.4995 0.756871C13.5039 0.745391 13.5193 0.736002 13.5338 0.736002C13.5483 0.736002 13.5602 0.72977 13.5602 0.722087C13.5602 0.714461 13.579 0.708171 13.6019 0.708171C13.6249 0.708171 13.6437 0.701939 13.6437 0.694256C13.6437 0.68663 13.6781 0.680341 13.7202 0.680341C13.7623 0.680341 13.7967 0.674108 13.7967 0.666425C13.7967 0.658717 13.8338 0.652509 13.8802 0.652509C13.9261 0.652509 13.9637 0.646933 13.9637 0.640054C13.9637 0.633166 13.9872 0.62422 14.0159 0.620079C14.0446 0.615979 14.0994 0.605565 14.1376 0.597004C14.2164 0.57939 14.3464 0.558135 14.3881 0.556061C14.4113 0.554913 14.4124 0.552453 14.3951 0.541186C14.3811 0.532133 14.4451 0.527304 14.5899 0.526508C14.7235 0.525771 14.7949 0.520769 14.7777 0.513356C14.7599 0.50573 14.8086 0.501039 14.9122 0.500416C15.029 0.499712 15.0762 0.494512 15.0803 0.482048C15.0889 0.456505 18.613 0.456505 18.6216 0.482048C18.6257 0.494618 18.6717 0.49944 18.787 0.49944C18.8899 0.49944 18.9436 0.50436 18.9381 0.513356C18.9326 0.522302 18.9823 0.527271 19.0772 0.527271C19.167 0.527271 19.2218 0.532436 19.2168 0.540481C19.2084 0.55415 19.2162 0.555782 19.4251 0.584047C19.494 0.593363 19.5563 0.606319 19.5636 0.612829C19.5709 0.619307 19.5908 0.624671 19.608 0.624671C19.6251 0.624671 19.643 0.630902 19.6477 0.638586C19.6525 0.646212 19.6904 0.652501 19.732 0.652501C19.7737 0.652501 19.8078 0.658733 19.8078 0.666417C19.8078 0.674453 19.8518 0.680332 19.9121 0.680332C19.9724 0.680332 20.0165 0.686236 20.0165 0.694247C20.0165 0.701873 20.0353 0.708163 20.0582 0.708163C20.0812 0.708163 20.1 0.714395 20.1 0.722078C20.1 0.729704 20.1149 0.735993 20.1333 0.735993C20.1516 0.735993 20.1702 0.745383 20.1746 0.756863C20.179 0.768343 20.1981 0.777732 20.217 0.777732C20.2359 0.777732 20.2552 0.783963 20.26 0.791647C20.2647 0.799273 20.287 0.805563 20.3095 0.805563C20.332 0.805563 20.3504 0.811794 20.3504 0.819478C20.3504 0.827104 20.3618 0.833393 20.3756 0.833393C20.3895 0.833393 20.4143 0.845915 20.4307 0.861224C20.4471 0.876533 20.4702 0.889055 20.482 0.889055C20.4938 0.889055 20.5035 0.895287 20.5035 0.90297C20.5035 0.910596 20.5195 0.916885 20.5391 0.916885C20.5593 0.916885 20.571 0.922872 20.5661 0.930801C20.5613 0.938427 20.5673 0.944716 20.5793 0.944716C20.5912 0.944716 20.6288 0.972891 20.6628 1.00733C20.6967 1.04177 20.7283 1.06995 20.7329 1.06995C20.7375 1.06995 20.7569 1.0856 20.7761 1.10473C20.7952 1.12386 20.8072 1.13952 20.8027 1.13952C20.7982 1.13952 20.8105 1.15667 20.8299 1.17764C20.8493 1.1986 20.8653 1.22365 20.8653 1.2333C20.8653 1.24294 20.8704 1.25083 20.8768 1.25083C20.8832 1.25083 20.8972 1.26805 20.9079 1.2891C20.9187 1.31015 20.9417 1.34115 20.959 1.358C20.9763 1.37486 20.9905 1.39834 20.9905 1.41018C20.9905 1.42203 20.9967 1.43171 21.0044 1.43171C21.012 1.43171 21.0183 1.4505 21.0183 1.47346C21.0183 1.49642 21.0245 1.51521 21.0322 1.51521C21.0399 1.51521 21.0461 1.53697 21.0461 1.56357C21.0461 1.59017 21.0586 1.63243 21.0739 1.65749C21.0892 1.68255 21.1017 1.7142 21.1017 1.72784C21.1017 1.74147 21.1112 1.75623 21.1227 1.76063C21.1373 1.76621 21.1435 1.78905 21.1435 1.83673C21.1435 1.87417 21.1498 1.90481 21.1575 1.90481C21.1658 1.90481 21.1714 1.96047 21.1714 2.04396C21.1714 2.12744 21.1769 2.1831 21.1853 2.1831C21.1937 2.1831 21.1992 2.24107 21.1992 2.3292C21.1992 2.41733 21.2047 2.4753 21.2131 2.4753C21.2221 2.4753 21.227 2.62836 21.227 2.90665C21.227 3.14389 21.2224 3.338 21.2166 3.33802C21.2109 3.33803 21.2039 3.52431 21.2012 3.75197C21.1984 3.97963 21.1906 4.16799 21.1838 4.17054C21.1768 4.17316 21.1709 4.44704 21.1704 4.79668C21.1698 5.15652 21.1644 5.40648 21.1575 5.39036C21.1506 5.3744 21.1441 5.77788 21.1423 6.33654C21.1405 6.87225 21.1352 7.27611 21.1305 7.23402C21.1157 7.10201 21.0985 7.66423 21.1038 8.10251C21.1076 8.40848 21.1129 8.50627 21.1261 8.51067C21.1389 8.51493 21.1435 8.56494 21.1435 8.69701C21.1435 8.81383 21.1485 8.87452 21.1575 8.86896C21.1663 8.86346 21.1714 8.90592 21.1714 8.98641C21.1714 9.06117 21.177 9.11246 21.1853 9.11246C21.1929 9.11246 21.1992 9.14027 21.1992 9.17426C21.1992 9.20824 21.2054 9.23992 21.2131 9.24464C21.2207 9.2494 21.227 9.26861 21.227 9.2874C21.227 9.30619 21.2333 9.33399 21.241 9.34919C21.2486 9.3644 21.2611 9.38928 21.2688 9.40447C21.2764 9.41967 21.2827 9.45679 21.2827 9.48696C21.2827 9.51713 21.2918 9.55091 21.3029 9.56203C21.314 9.57314 21.3195 9.58582 21.3152 9.59019C21.3051 9.60025 21.3453 9.64121 21.3652 9.64121C21.3734 9.64121 21.3801 9.65686 21.3801 9.67599C21.3801 9.69512 21.3863 9.71077 21.394 9.71077C21.4016 9.71077 21.4079 9.73176 21.4079 9.75741C21.4079 9.79024 21.4203 9.81697 21.4497 9.84772C21.4726 9.87175 21.4914 9.89706 21.4914 9.90396C21.4914 9.91085 21.5012 9.92027 21.5132 9.92486C21.5251 9.92945 21.531 9.93957 21.5262 9.94733C21.5214 9.95512 21.5257 9.97003 21.5358 9.98051C21.5458 9.99099 21.5632 10.0129 21.5745 10.0291C21.5858 10.0453 21.5999 10.0586 21.606 10.0586C21.6121 10.0586 21.6573 10.0993 21.7066 10.1491C21.7558 10.1988 21.8058 10.2395 21.8177 10.2395C21.8296 10.2395 21.8393 10.2458 21.8393 10.2534C21.8393 10.2611 21.8647 10.2674 21.8958 10.2674C21.9299 10.2674 21.9488 10.2728 21.9436 10.2813C21.9382 10.2902 21.9855 10.2952 22.0758 10.2952C22.1661 10.2952 22.2135 10.2902 22.208 10.2813C22.2028 10.2728 22.2241 10.2674 22.2629 10.2674C22.2977 10.2674 22.3263 10.2611 22.3263 10.2534C22.3263 10.2458 22.3419 10.2395 22.3611 10.2395C22.3802 10.2395 22.3959 10.2333 22.3959 10.2256C22.3959 10.218 22.4052 10.2117 22.4167 10.2117C22.4282 10.2117 22.4376 10.207 22.4377 10.2013C22.4377 10.1955 22.4518 10.1838 22.469 10.1752C22.5623 10.1287 22.5907 10.111 22.5907 10.0994C22.5907 10.0923 22.5987 10.0865 22.6085 10.0865C22.6182 10.0865 22.6353 10.0739 22.6463 10.0586C22.6573 10.0433 22.6744 10.0308 22.6842 10.0308C22.694 10.0308 22.702 10.0246 22.702 10.0169C22.702 10.0093 22.7081 10.003 22.7157 10.003C22.7328 10.003 22.7689 9.97346 22.8563 9.88817C22.8935 9.85182 22.928 9.82208 22.9329 9.82208C22.9379 9.82208 22.9879 9.77512 23.0442 9.71772C23.1005 9.66032 23.1506 9.61336 23.1554 9.61336C23.1676 9.61336 23.2585 9.51315 23.2585 9.49972C23.2585 9.49382 23.2992 9.44901 23.349 9.40024C23.3987 9.35147 23.4394 9.30719 23.4394 9.30186C23.4394 9.28891 23.4603 9.26427 23.5473 9.17452C23.5874 9.13306 23.6203 9.09273 23.6203 9.08492C23.6203 9.07713 23.6266 9.0707 23.6342 9.0707C23.6419 9.0707 23.6482 9.05818 23.6482 9.04287C23.6482 9.02756 23.6547 9.01504 23.6627 9.01504C23.6846 9.01504 23.7482 8.94703 23.7394 8.93289C23.7352 8.92609 23.7411 8.91696 23.7526 8.91257C23.764 8.90815 23.7734 8.8973 23.7734 8.8884C23.7734 8.87948 23.7843 8.86207 23.7977 8.84969C23.836 8.81428 23.9125 8.71205 23.9125 8.69629C23.9125 8.68842 23.9344 8.66011 23.9612 8.63332C23.988 8.60654 24.0099 8.57791 24.0099 8.56972C24.0099 8.56152 24.0379 8.52768 24.072 8.4945C24.1061 8.46133 24.1313 8.43142 24.1279 8.42805C24.1246 8.42469 24.1426 8.39986 24.1681 8.37289C24.1935 8.34592 24.2231 8.30405 24.2338 8.27984C24.2445 8.25564 24.258 8.23584 24.2638 8.23584C24.2696 8.23584 24.2743 8.22332 24.2743 8.20801C24.2743 8.1927 24.2805 8.18017 24.2882 8.18017C24.2959 8.18017 24.3021 8.17166 24.3021 8.16125C24.3021 8.15084 24.3178 8.13057 24.3369 8.1162C24.3561 8.10183 24.3717 8.07729 24.3717 8.06166C24.3717 8.04603 24.3842 8.02422 24.3995 8.01319C24.4149 8.00216 24.4274 7.98446 24.4274 7.97385C24.4274 7.96325 24.4431 7.94222 24.4623 7.92711C24.4815 7.912 24.4936 7.89388 24.4893 7.88684C24.485 7.87978 24.488 7.87404 24.4961 7.87404C24.5042 7.87404 24.5108 7.86438 24.5108 7.85258C24.5108 7.83099 24.5215 7.81517 24.5743 7.75832C24.5901 7.74133 24.612 7.70719 24.623 7.68246C24.6339 7.65773 24.6476 7.63749 24.6534 7.63749C24.6592 7.63749 24.6639 7.62603 24.6639 7.61202C24.6639 7.598 24.6798 7.57804 24.6992 7.56766C24.7193 7.5569 24.7314 7.54071 24.7272 7.53C24.7233 7.51967 24.7287 7.50787 24.7394 7.50378C24.7501 7.49968 24.7626 7.48126 24.7672 7.46282C24.7718 7.44439 24.7974 7.40748 24.8241 7.38081C24.8508 7.35413 24.8726 7.3227 24.8726 7.31097C24.8726 7.29924 24.8789 7.28963 24.8865 7.28963C24.8942 7.28963 24.9005 7.27692 24.9005 7.26137C24.9005 7.24582 24.9093 7.22972 24.92 7.22558C24.9308 7.22148 24.9472 7.19973 24.9565 7.17732C24.9658 7.15491 24.9777 7.13657 24.983 7.13657C24.9884 7.13657 25.0013 7.11465 25.0118 7.08787C25.0223 7.06108 25.036 7.03917 25.0422 7.03917C25.0484 7.03917 25.0535 7.02815 25.0535 7.01469C25.0535 7.00122 25.066 6.98239 25.0813 6.97283C25.0966 6.96327 25.1092 6.94365 25.1092 6.92923C25.1092 6.9148 25.1184 6.89944 25.1298 6.89508C25.1415 6.89057 25.1469 6.87793 25.1423 6.86588C25.1376 6.85374 25.1432 6.84113 25.1551 6.83653C25.1667 6.8321 25.1838 6.81011 25.1931 6.78771C25.2023 6.7653 25.2154 6.74697 25.2222 6.74697C25.2289 6.74697 25.2344 6.73444 25.2344 6.71914C25.2344 6.70383 25.2406 6.6913 25.2483 6.6913C25.2559 6.6913 25.2622 6.68035 25.2622 6.66695C25.2622 6.64577 25.2791 6.62062 25.3461 6.54154C25.3543 6.53189 25.3572 6.51775 25.3525 6.51014C25.3478 6.50251 25.3537 6.49255 25.3657 6.48796C25.3776 6.48337 25.3874 6.46824 25.3874 6.45434C25.3874 6.44044 25.4125 6.40452 25.4431 6.37451C25.4748 6.34338 25.4987 6.30672 25.4987 6.28913C25.4987 6.27213 25.505 6.26216 25.5127 6.26691C25.5208 6.27191 25.5266 6.2575 25.5266 6.23213C25.5266 6.20675 25.5323 6.19231 25.5405 6.19734C25.5481 6.2021 25.5544 6.19972 25.5544 6.19218C25.5544 6.18463 25.5631 6.16974 25.5737 6.15912C25.5994 6.13347 25.6518 6.02394 25.6518 5.99602C25.6518 5.98384 25.6643 5.96485 25.6796 5.95382C25.6949 5.94279 25.7075 5.92652 25.7075 5.91766C25.7075 5.90881 25.7165 5.89408 25.7275 5.88493C25.7385 5.87577 25.7437 5.85833 25.7391 5.84616C25.7334 5.83148 25.736 5.82741 25.7468 5.83408C25.756 5.83974 25.7638 5.83613 25.7647 5.82596C25.7678 5.79142 25.7713 5.77979 25.7903 5.74165C25.8008 5.7206 25.8146 5.70339 25.821 5.70339C25.8274 5.70339 25.8327 5.69087 25.8327 5.67556C25.8327 5.66025 25.8389 5.64773 25.8466 5.64773C25.8543 5.64773 25.8605 5.63834 25.8605 5.62686C25.8605 5.61538 25.8668 5.60599 25.8745 5.60599C25.8821 5.60599 25.8884 5.58721 25.8884 5.56425C25.8884 5.54129 25.8946 5.5225 25.9023 5.5225C25.9099 5.5225 25.9162 5.50894 25.9162 5.49235C25.9162 5.47577 25.9201 5.46617 25.925 5.471C25.937 5.48297 25.9858 5.4192 25.9858 5.39159C25.9858 5.37941 25.992 5.36944 25.9997 5.36944C26.0073 5.36944 26.0136 5.35692 26.0136 5.34161C26.0136 5.3263 26.0198 5.31378 26.0275 5.31378C26.0352 5.31378 26.0414 5.30126 26.0414 5.28595C26.0414 5.27064 26.0477 5.25811 26.0554 5.25811C26.063 5.25811 26.0693 5.24873 26.0693 5.23725C26.0693 5.22577 26.0755 5.21638 26.0832 5.21638C26.0908 5.21638 26.0971 5.20386 26.0971 5.18855C26.0971 5.17324 26.1033 5.16071 26.111 5.16071C26.1186 5.16071 26.1249 5.1426 26.1249 5.12046C26.1249 5.09772 26.1339 5.07676 26.1456 5.07229C26.1573 5.06778 26.1627 5.05513 26.158 5.04309C26.1534 5.03094 26.1589 5.01834 26.1709 5.01373C26.1825 5.0093 26.1996 4.98732 26.2088 4.96492C26.2181 4.94251 26.2312 4.92417 26.2379 4.92417C26.2447 4.92417 26.2502 4.90538 26.2502 4.88242C26.2502 4.85946 26.2564 4.84068 26.2641 4.84068C26.2717 4.84068 26.278 4.8294 26.278 4.81563C26.278 4.78453 26.3091 4.71571 26.3232 4.71556C26.329 4.7155 26.3337 4.69943 26.3337 4.67984C26.3337 4.65964 26.3396 4.64796 26.3476 4.65283C26.3618 4.66165 26.3667 4.63632 26.3618 4.57822C26.3601 4.55742 26.3647 4.54881 26.3744 4.55479C26.3837 4.56053 26.393 4.54766 26.3982 4.52156C26.4028 4.4981 26.4113 4.4789 26.4169 4.4789C26.4226 4.4789 26.4421 4.45073 26.4604 4.41629C26.4787 4.38185 26.4983 4.35367 26.5041 4.35367C26.5098 4.35367 26.5145 4.33488 26.5145 4.31192C26.5145 4.28896 26.5208 4.27018 26.5285 4.27018C26.5361 4.27018 26.5424 4.26123 26.5424 4.2503C26.5424 4.23937 26.5522 4.22058 26.5642 4.20855C26.5763 4.19653 26.5821 4.18668 26.5772 4.18668C26.5722 4.18668 26.5781 4.17684 26.5901 4.16482C26.6021 4.15279 26.612 4.13088 26.612 4.11612C26.612 4.10136 26.6182 4.08929 26.6259 4.08929C26.6335 4.08929 26.6398 4.06737 26.6398 4.04059C26.6398 4.0138 26.646 3.99189 26.6537 3.99189C26.6613 3.99189 26.6676 3.97741 26.6676 3.95973C26.6676 3.94204 26.6801 3.91412 26.6954 3.89769C26.7107 3.88126 26.7233 3.85817 26.7233 3.84637C26.7233 3.83457 26.7295 3.82492 26.7372 3.82492C26.7448 3.82492 26.7511 3.80576 26.7511 3.78235C26.7511 3.75752 26.7569 3.74337 26.765 3.74839C26.7778 3.75634 26.7803 3.75068 26.7847 3.70418C26.7855 3.69518 26.8003 3.67565 26.8174 3.6608C26.8345 3.64595 26.8485 3.62045 26.8485 3.60413C26.8485 3.58781 26.8547 3.57446 26.8624 3.57446C26.8701 3.57446 26.8763 3.55567 26.8763 3.53271C26.8763 3.50975 26.8826 3.49096 26.8903 3.49096C26.8979 3.49096 26.9042 3.47285 26.9042 3.45071C26.9042 3.42621 26.9131 3.40702 26.927 3.40168C26.9396 3.39684 26.9462 3.38918 26.9416 3.38463C26.937 3.38003 26.9422 3.36751 26.9529 3.35672C26.9637 3.34593 26.969 3.32795 26.9648 3.31675C26.9604 3.30535 26.9667 3.29264 26.9793 3.28784C26.9925 3.28276 27.0016 3.26319 27.0016 3.23985C27.0016 3.21816 27.0078 3.19654 27.0155 3.19181C27.0231 3.18706 27.0294 3.17106 27.0294 3.15621C27.0294 3.14136 27.0356 3.1292 27.0433 3.1292C27.0509 3.1292 27.0572 3.11668 27.0572 3.10137C27.0572 3.08606 27.0635 3.07353 27.0711 3.07353C27.0788 3.07353 27.0851 3.06101 27.0851 3.0457C27.0851 3.03039 27.0913 3.01787 27.099 3.01787C27.1066 3.01787 27.1129 2.99595 27.1129 2.96917C27.1129 2.94239 27.1191 2.92047 27.1268 2.92047C27.1344 2.92047 27.1407 2.89819 27.1407 2.87095C27.1407 2.84148 27.1464 2.82491 27.1546 2.83004C27.1664 2.83733 27.1705 2.82446 27.1681 2.7878C27.1678 2.7837 27.1756 2.77139 27.1854 2.76045C27.1953 2.74951 27.2096 2.73251 27.2173 2.72268C27.239 2.69473 27.266 2.60924 27.266 2.56815C27.266 2.54765 27.2722 2.53087 27.2799 2.53087C27.2875 2.53087 27.2938 2.51835 27.2938 2.50304C27.2938 2.48774 27.2985 2.47516 27.3042 2.47511C27.3168 2.47498 27.3494 2.40751 27.3494 2.38156C27.3494 2.37137 27.3576 2.35991 27.3675 2.35611C27.3793 2.3516 27.3835 2.3318 27.3796 2.29899C27.3755 2.26389 27.3786 2.25173 27.3896 2.25856C27.3996 2.26479 27.4086 2.25257 27.414 2.22538C27.4188 2.20176 27.4281 2.17906 27.4347 2.17494C27.4414 2.17084 27.4469 2.1553 27.4469 2.14044C27.4469 2.12559 27.4531 2.11343 27.4608 2.11343C27.4684 2.11343 27.4747 2.10091 27.4747 2.0856C27.4747 2.07029 27.4809 2.05777 27.4886 2.05777C27.4962 2.05777 27.5025 2.03585 27.5025 2.00907C27.5025 1.98228 27.5087 1.96037 27.5164 1.96037C27.5241 1.96037 27.5303 1.94829 27.5303 1.93353C27.5303 1.91877 27.5523 1.88345 27.579 1.85506C27.6058 1.82666 27.6277 1.79177 27.6277 1.77753C27.6277 1.7633 27.634 1.75165 27.6417 1.75165C27.6493 1.75165 27.6556 1.74315 27.6556 1.73276C27.6556 1.71124 27.8994 1.45946 27.9202 1.45946C27.9277 1.45946 27.9339 1.45322 27.9339 1.44554C27.9339 1.43791 27.946 1.43162 27.9609 1.43162C27.9757 1.43162 27.9918 1.42539 27.9965 1.41771C28.0012 1.41008 28.023 1.40379 28.0449 1.40379C28.0852 1.40379 28.1702 1.36376 28.1703 1.34466C28.1703 1.33892 28.1861 1.33422 28.2052 1.33422C28.2243 1.33422 28.24 1.32798 28.24 1.3203C28.24 1.31107 29.3349 1.30639 31.4968 1.30639C33.6644 1.30639 34.7507 1.31106 34.745 1.3203C34.7396 1.32894 34.766 1.33422 34.8145 1.33422C34.8631 1.33422 34.8894 1.33946 34.8841 1.34813C34.8793 1.35576 34.8859 1.36205 34.8986 1.36205C34.9112 1.36205 34.9414 1.37103 34.9655 1.38202C34.9896 1.39301 35.0406 1.40536 35.0789 1.40948C35.2319 1.42593 35.2807 1.43498 35.2807 1.44693C35.2807 1.45382 35.2932 1.45945 35.3085 1.45945C35.3238 1.45945 35.3363 1.46568 35.3363 1.47336C35.3363 1.48099 35.3457 1.48728 35.3572 1.48728C35.3687 1.48728 35.3781 1.49351 35.3781 1.50119C35.3781 1.50882 35.3941 1.51511 35.4137 1.51511C35.4339 1.51511 35.4455 1.52109 35.4407 1.52902C35.4357 1.53714 35.4501 1.54294 35.4755 1.54294C35.5008 1.54294 35.5153 1.54868 35.5102 1.55685C35.5055 1.56448 35.5099 1.57077 35.5199 1.57077C35.53 1.57077 35.5584 1.59269 35.583 1.61947C35.6075 1.64625 35.6316 1.66817 35.6364 1.66817C35.644 1.66817 35.6933 1.7193 35.7408 1.77643C35.7489 1.78622 35.7535 1.805 35.751 1.81817C35.7485 1.83133 35.7621 1.85566 35.7814 1.87223L35.8163 1.90237V2.24933C35.8163 2.59634 35.8155 2.60385 35.766 2.70113C35.7593 2.71442 35.7537 2.74766 35.7537 2.775C35.7537 2.80234 35.7481 2.82123 35.7412 2.81696C35.7343 2.8127 35.7215 2.8452 35.7126 2.88919C35.7038 2.93317 35.6931 2.98638 35.6888 3.00743C35.6846 3.02848 35.6754 3.04569 35.6687 3.04569C35.6619 3.04569 35.6563 3.05821 35.6563 3.07352C35.6563 3.08883 35.6501 3.10135 35.6424 3.10135C35.6348 3.10135 35.6285 3.11664 35.6285 3.13532C35.6285 3.154 35.6223 3.17315 35.6146 3.17788C35.607 3.18264 35.6007 3.20803 35.6007 3.23436C35.6007 3.2607 35.5944 3.28224 35.5868 3.28224C35.5791 3.28224 35.5728 3.29477 35.5728 3.31008C35.5728 3.32538 35.5666 3.33791 35.5589 3.33791C35.5513 3.33791 35.545 3.34749 35.545 3.35922C35.545 3.37094 35.5365 3.38378 35.5261 3.38777C35.5157 3.39179 35.499 3.4213 35.4889 3.45343C35.4788 3.48556 35.4654 3.51779 35.4591 3.52505C35.4528 3.53235 35.4476 3.55267 35.4476 3.57028C35.4476 3.58788 35.4414 3.60228 35.4337 3.60228C35.4261 3.60228 35.4198 3.61167 35.4198 3.62315C35.4198 3.63463 35.4135 3.64402 35.4059 3.64402C35.3982 3.64402 35.3919 3.65654 35.3919 3.67185C35.3919 3.68716 35.3857 3.69968 35.378 3.69968C35.3704 3.69968 35.3641 3.71884 35.3641 3.74225C35.3641 3.76708 35.3583 3.78123 35.3502 3.77621C35.3426 3.77146 35.3355 3.77424 35.3345 3.78236C35.3336 3.79048 35.3318 3.8018 35.3304 3.80754C35.3272 3.82167 35.272 3.91129 35.2537 3.93218C35.2455 3.94142 35.2389 3.9614 35.2389 3.97658C35.2389 3.99176 35.2327 4.00804 35.225 4.01278C35.2174 4.01753 35.2111 4.03666 35.2111 4.05534C35.2111 4.07402 35.2049 4.08931 35.1972 4.08931C35.1896 4.08931 35.1833 4.10183 35.1833 4.11714C35.1833 4.13342 35.174 4.14497 35.1609 4.14497C35.1455 4.14497 35.1414 4.15235 35.1477 4.1689C35.1528 4.18206 35.1524 4.18834 35.1469 4.18286C35.1324 4.16833 35.0859 4.25106 35.0859 4.29141C35.0859 4.31036 35.0796 4.32586 35.072 4.32586C35.0643 4.32586 35.058 4.33428 35.058 4.34457C35.058 4.35486 35.0446 4.37521 35.0283 4.38979C35.0119 4.40437 34.9899 4.43664 34.9794 4.46152C34.9689 4.48639 34.9537 4.50674 34.9457 4.50674C34.9377 4.50674 34.9343 4.51182 34.9382 4.51812C34.942 4.52435 34.9314 4.54473 34.9146 4.56334C34.8978 4.58196 34.8689 4.63006 34.8504 4.67024C34.8319 4.71042 34.8115 4.74329 34.8052 4.74329C34.7989 4.74329 34.7936 4.75171 34.7936 4.762C34.7936 4.77229 34.7817 4.79154 34.7671 4.80477C34.7524 4.818 34.7367 4.84402 34.732 4.86258C34.7273 4.88116 34.7174 4.89634 34.7099 4.89634C34.7023 4.89634 34.6962 4.90749 34.6962 4.9211C34.6962 4.93472 34.6837 4.95488 34.6684 4.96591C34.6531 4.97694 34.6406 4.99398 34.6406 5.00377C34.6406 5.01356 34.6343 5.02157 34.6267 5.02157C34.619 5.02157 34.6127 5.03686 34.6127 5.05554C34.6127 5.07422 34.6065 5.09337 34.5988 5.0981C34.5912 5.10286 34.5849 5.1175 34.5849 5.13071C34.5849 5.14391 34.5659 5.16596 34.5426 5.1797C34.5182 5.19412 34.4911 5.22776 34.4785 5.25923C34.4665 5.28923 34.4511 5.31377 34.4443 5.31377C34.4375 5.31377 34.4319 5.32383 34.4319 5.33612C34.4319 5.34841 34.4159 5.37104 34.3963 5.38641C34.3768 5.40177 34.364 5.41751 34.3678 5.42137C34.3717 5.42523 34.3673 5.43683 34.3581 5.44713C34.3138 5.49676 34.3058 5.50982 34.3126 5.5209C34.3167 5.52746 34.3045 5.54456 34.2855 5.55881C34.2665 5.57307 34.251 5.59578 34.251 5.60927C34.251 5.62276 34.2447 5.63379 34.2371 5.63379C34.2294 5.63379 34.2231 5.64318 34.2231 5.65466C34.2231 5.66614 34.2169 5.67553 34.2092 5.67553C34.2016 5.67553 34.1953 5.68805 34.1953 5.70336C34.1953 5.71867 34.1886 5.73119 34.1804 5.73119C34.1557 5.73119 34.1233 5.77156 34.134 5.7889C34.1398 5.79837 34.1379 5.80134 34.1294 5.79603C34.121 5.79086 34.1049 5.81177 34.0917 5.84461C34.0791 5.87628 34.0502 5.91946 34.0276 5.94054C34.0051 5.96163 33.9866 5.98606 33.9866 5.99483C33.9866 6.00361 33.97 6.02614 33.9498 6.04491C33.9295 6.06368 33.9175 6.07903 33.9229 6.07903C33.9284 6.07903 33.9247 6.08821 33.9145 6.09942C33.8713 6.14738 33.8614 6.16236 33.8614 6.17973C33.8614 6.18984 33.8488 6.20714 33.8335 6.21817C33.8182 6.2292 33.8057 6.24595 33.8057 6.2554C33.8057 6.26484 33.7912 6.28712 33.7734 6.3049C33.7556 6.32269 33.7439 6.34575 33.7474 6.35617C33.7511 6.36757 33.7474 6.37124 33.7379 6.36539C33.7293 6.36006 33.7222 6.36202 33.7222 6.36981C33.7222 6.3776 33.7066 6.39957 33.6874 6.4187C33.6683 6.43783 33.6527 6.46004 33.6527 6.46803C33.6527 6.47607 33.6464 6.48258 33.6387 6.48258C33.6311 6.48258 33.6248 6.49372 33.6248 6.50733C33.6248 6.52096 33.6123 6.54112 33.597 6.55215C33.5817 6.56318 33.5692 6.58088 33.5692 6.59148C33.5692 6.60209 33.5532 6.62333 33.5336 6.6387C33.5141 6.65407 33.5013 6.6698 33.5052 6.67366C33.509 6.67752 33.5046 6.68857 33.4955 6.6982C33.4862 6.70783 33.4693 6.72946 33.4578 6.74627C33.4464 6.76308 33.4198 6.79629 33.3987 6.82006C33.3777 6.84383 33.3604 6.86868 33.3604 6.87527C33.3604 6.888 33.3449 6.90862 33.2946 6.96239C33.2776 6.98066 33.2509 7.01819 33.2354 7.0458C33.2199 7.07341 33.1932 7.11174 33.176 7.13098C33.1588 7.15021 33.1312 7.18105 33.1145 7.1995C33.0979 7.21795 33.0802 7.24609 33.0751 7.26202C33.07 7.27795 33.0445 7.31238 33.0184 7.33853C32.9922 7.36468 32.9708 7.39146 32.9708 7.39803C32.9708 7.40459 32.9552 7.42466 32.9361 7.44261C32.917 7.46055 32.9041 7.47797 32.9074 7.4813C32.9138 7.4877 32.9003 7.50618 32.8491 7.56097C32.8319 7.57939 32.8178 7.59872 32.8178 7.60394C32.8178 7.60918 32.8037 7.62762 32.7865 7.645C32.7434 7.68847 32.7178 7.72096 32.7267 7.72096C32.7348 7.72096 32.69 7.77582 32.6404 7.82673C32.6231 7.84439 32.6089 7.86695 32.6086 7.87686C32.6081 7.89851 32.5755 7.94359 32.5605 7.94359C32.5478 7.94359 32.4977 7.99912 32.4977 8.01316C32.4977 8.01849 32.4868 8.03576 32.4734 8.0516C32.4078 8.12918 32.3977 8.14293 32.3834 8.17425C32.375 8.19279 32.3628 8.20795 32.3564 8.20795C32.35 8.20795 32.3447 8.21419 32.3447 8.22176C32.3447 8.22939 32.3325 8.24971 32.3177 8.26699C32.3029 8.28426 32.2778 8.31345 32.262 8.33183C32.2463 8.35022 32.2334 8.37042 32.2334 8.37672C32.2334 8.38303 32.2114 8.40811 32.1847 8.43248C32.1579 8.45685 32.136 8.488 32.136 8.5017C32.136 8.51539 32.125 8.53298 32.1116 8.54078C32.0982 8.54857 32.0922 8.55515 32.0983 8.55538C32.1116 8.5559 32.0883 8.58476 32.0281 8.64229C32.0033 8.66606 31.9829 8.69104 31.9829 8.69782C31.9829 8.70462 31.9688 8.72543 31.9516 8.74413C31.9344 8.76283 31.9062 8.79363 31.889 8.81258C31.8718 8.83152 31.8577 8.85663 31.8577 8.86838C31.8577 8.88014 31.8514 8.88975 31.8438 8.88975C31.8361 8.88975 31.8298 8.89914 31.8298 8.91062C31.8298 8.9221 31.8201 8.93149 31.8082 8.93149C31.7962 8.93149 31.7896 8.93658 31.7935 8.94287C31.7974 8.94911 31.7883 8.96304 31.7735 8.97377C31.7586 8.98451 31.7464 9.00293 31.7464 9.01471C31.7464 9.02648 31.7338 9.04394 31.7185 9.05349C31.7032 9.06305 31.6907 9.07736 31.6907 9.0853C31.6907 9.09325 31.6766 9.11503 31.6594 9.13373C31.5786 9.22147 31.5654 9.23735 31.5651 9.24755C31.5649 9.25353 31.5414 9.28454 31.5129 9.3164C31.4844 9.34826 31.4455 9.39475 31.4263 9.41973C31.4072 9.4447 31.3837 9.47298 31.3742 9.48256C31.3646 9.49215 31.3568 9.50743 31.3568 9.51653C31.3568 9.52562 31.3323 9.55677 31.3025 9.58576C31.2726 9.61474 31.244 9.65157 31.2389 9.66762C31.2338 9.68366 31.2238 9.69679 31.2167 9.69679C31.2096 9.69679 31.2037 9.70618 31.2037 9.71766C31.2037 9.72914 31.1982 9.73853 31.1915 9.73853C31.1848 9.73853 31.1715 9.75731 31.162 9.78027C31.1525 9.80323 31.1392 9.82202 31.1325 9.82202C31.1257 9.82202 31.1202 9.83092 31.1202 9.8418C31.1202 9.85267 31.0921 9.88974 31.0576 9.92419C31.0232 9.95863 30.995 9.9953 30.995 10.0057C30.995 10.0161 30.9825 10.0336 30.9672 10.0447C30.9519 10.0557 30.9393 10.07 30.9393 10.0766C30.9393 10.083 30.9316 10.0971 30.922 10.1078C30.8816 10.1528 30.8691 10.1699 30.8767 10.1699C30.8852 10.1699 30.8679 10.1925 30.8202 10.2439C30.8044 10.2609 30.7825 10.295 30.7716 10.3197C30.7606 10.3445 30.7469 10.3647 30.7411 10.3647C30.7353 10.3647 30.7306 10.3714 30.7306 10.3797C30.7306 10.388 30.7025 10.4229 30.668 10.4573C30.6336 10.4918 30.6054 10.532 30.6054 10.5467C30.6054 10.5614 30.5992 10.5734 30.5915 10.5734C30.5839 10.5734 30.5776 10.5832 30.5776 10.5952C30.5776 10.6072 30.5588 10.6328 30.5358 10.6521C30.5129 10.6714 30.4941 10.6994 30.4941 10.7142C30.4941 10.7291 30.4851 10.7447 30.4741 10.7489C30.4631 10.7531 30.4571 10.7644 30.4607 10.7739C30.4644 10.7835 30.4515 10.8032 30.432 10.8178C30.4126 10.8324 30.3967 10.8554 30.3967 10.8689C30.3967 10.8824 30.3904 10.8934 30.3828 10.8934C30.3751 10.8934 30.3688 10.9056 30.3688 10.9205C30.3688 10.9353 30.3626 10.9513 30.3549 10.9561C30.3473 10.9608 30.341 10.9745 30.341 10.9866C30.341 10.9986 30.3301 11.0187 30.3167 11.0311C30.2803 11.0649 30.2575 11.1113 30.2575 11.1515C30.2575 11.1712 30.2515 11.1835 30.244 11.1789C30.2366 11.1743 30.2268 11.1881 30.2223 11.2094C30.2178 11.2308 30.2082 11.2591 30.201 11.2724C30.1938 11.2857 30.188 11.3061 30.188 11.3176C30.188 11.3292 30.1817 11.3387 30.174 11.3387C30.1664 11.3387 30.1601 11.3544 30.1601 11.3735C30.1601 11.3926 30.1539 11.4083 30.1462 11.4083C30.1386 11.4083 30.1323 11.4333 30.1323 11.4639C30.1323 11.4945 30.1261 11.5196 30.1184 11.5196C30.1107 11.5196 30.1045 11.5478 30.1045 11.5822C30.1045 11.6166 30.0982 11.6448 30.0905 11.6448C30.0826 11.6448 30.0765 11.6879 30.0764 11.7457C30.0763 11.816 30.0721 11.8402 30.0627 11.8257C30.0532 11.811 30.0492 11.8308 30.049 11.8926C30.0489 11.9477 30.054 11.9772 30.0627 11.9718C30.0714 11.9665 30.0766 11.9928 30.0766 12.0414C30.0766 12.0899 30.0819 12.1163 30.0905 12.1109C30.099 12.1057 30.1045 12.127 30.1045 12.1658C30.1045 12.2007 30.1107 12.2292 30.1184 12.2292C30.126 12.2292 30.1323 12.2511 30.1323 12.2779C30.1323 12.3047 30.1385 12.3266 30.1462 12.3266C30.1538 12.3266 30.1601 12.3347 30.1601 12.3444C30.1601 12.3542 30.1726 12.3712 30.188 12.3823C30.2033 12.3933 30.2158 12.4128 30.2158 12.4256C30.2158 12.4384 30.2259 12.4528 30.2382 12.4575C30.2534 12.4633 30.2586 12.4773 30.2541 12.5006C30.2504 12.5201 30.2557 12.542 30.2663 12.5507C30.2766 12.5593 30.2819 12.5714 30.2781 12.5776C30.2742 12.5837 30.2869 12.6011 30.3061 12.6162C30.3253 12.6313 30.341 12.6538 30.341 12.6661C30.341 12.6783 30.3472 12.6884 30.3549 12.6884C30.3625 12.6884 30.3688 12.7001 30.3688 12.7144C30.3688 12.7286 30.4017 12.7753 30.4419 12.8179C30.4821 12.8606 30.5337 12.9187 30.5567 12.947C30.5796 12.9753 30.6329 13.0336 30.6749 13.0765C30.717 13.1194 30.7604 13.1718 30.7712 13.1928C30.7821 13.2138 30.7979 13.2311 30.8064 13.2311C30.8149 13.2311 30.8311 13.2445 30.8423 13.261C30.8673 13.2974 31.117 13.5511 31.1279 13.5511C31.1384 13.5511 31.2372 13.643 31.3858 13.7911C31.453 13.8581 31.5118 13.9129 31.5165 13.9129C31.5211 13.9129 31.5649 13.9536 31.6137 14.0033C31.6624 14.053 31.7057 14.0938 31.7098 14.0938C31.7139 14.0938 31.7702 14.147 31.8348 14.212C31.8994 14.2771 31.9592 14.3303 31.9676 14.3303C31.976 14.3303 31.9829 14.3365 31.9829 14.3442C31.9829 14.3518 31.9889 14.3581 31.9963 14.3581C32.0036 14.3581 32.0404 14.3879 32.0781 14.4242C32.1157 14.4606 32.1691 14.5091 32.1966 14.5321C32.2241 14.555 32.2468 14.5806 32.247 14.589C32.2471 14.5973 32.2692 14.6241 32.296 14.6484C32.3228 14.6728 32.3447 14.6989 32.3447 14.7063C32.3447 14.7138 32.3541 14.7199 32.3655 14.7199C32.377 14.7199 32.3864 14.7261 32.3864 14.7338C32.3864 14.7414 32.3931 14.7477 32.4013 14.7477C32.4173 14.7477 32.456 14.7819 32.456 14.7961C32.456 14.8108 32.5235 14.873 32.5394 14.873C32.5478 14.873 32.5715 14.8886 32.5921 14.9077C32.6127 14.9269 32.6254 14.9425 32.6204 14.9425C32.6153 14.9425 32.6477 14.9801 32.6925 15.026C32.7373 15.0719 32.7807 15.1095 32.7889 15.1095C32.7971 15.1095 32.8038 15.1157 32.8038 15.1234C32.8038 15.131 32.8125 15.1373 32.823 15.1373C32.8336 15.1373 32.8496 15.1552 32.8587 15.1771C32.8765 15.2201 33.0316 15.3739 33.0572 15.3739C33.0658 15.3739 33.069 15.3777 33.0643 15.3825C33.0595 15.3872 33.0632 15.3987 33.0724 15.408C33.0816 15.4173 33.1016 15.4416 33.1168 15.462C33.132 15.4824 33.1497 15.4991 33.1561 15.4991C33.1687 15.4991 33.2357 15.5669 33.3257 15.6707C33.3563 15.706 33.3926 15.7351 33.4065 15.7353C33.4203 15.7355 33.4278 15.7419 33.4231 15.7496C33.4183 15.7572 33.4238 15.7635 33.4352 15.7635C33.4466 15.7635 33.4604 15.7774 33.4658 15.7945C33.4754 15.8248 33.5012 15.8524 33.599 15.9374C33.6255 15.9604 33.6687 16.0104 33.6951 16.0485C33.7492 16.1267 33.7718 16.1531 33.7848 16.1531C33.7964 16.1531 33.8335 16.1902 33.8335 16.2018C33.8335 16.2067 33.8413 16.2186 33.8509 16.2282C33.8605 16.2377 33.884 16.2654 33.9031 16.2896C33.9222 16.3139 33.9443 16.3338 33.9522 16.3338C33.9601 16.3338 33.9755 16.3465 33.9866 16.3618C33.9976 16.3771 34.0147 16.3896 34.0244 16.3896C34.0342 16.3896 34.0422 16.3964 34.0422 16.4047C34.0422 16.413 34.0767 16.4529 34.1188 16.4934C34.1609 16.5338 34.1953 16.574 34.1953 16.5826C34.1953 16.5913 34.2001 16.5983 34.2058 16.5983C34.2116 16.5983 34.2253 16.6187 34.2363 16.6436C34.2472 16.6684 34.2798 16.7115 34.3086 16.7393C34.3374 16.767 34.3571 16.7936 34.3524 16.7984C34.3476 16.8032 34.3545 16.8071 34.3677 16.8071C34.3809 16.8071 34.3887 16.812 34.385 16.818C34.3812 16.8241 34.3965 16.8413 34.4189 16.8563C34.4413 16.8713 34.4596 16.892 34.4596 16.9023C34.4596 16.9127 34.4791 16.9393 34.5029 16.9615C34.5266 16.9837 34.5414 17.0018 34.5355 17.0018C34.5297 17.0018 34.5385 17.0135 34.5549 17.0278C34.5714 17.0421 34.5849 17.0609 34.5849 17.0696C34.5849 17.0782 34.5896 17.0854 34.5953 17.0854C34.6011 17.0854 34.6214 17.109 34.6404 17.1376C34.6595 17.1663 34.6785 17.1928 34.6826 17.1966C34.6868 17.2005 34.715 17.2348 34.7454 17.273C34.7757 17.3111 34.8142 17.3563 34.8308 17.3734C34.8474 17.3905 34.8654 17.4182 34.8707 17.435C34.8822 17.4713 34.9386 17.5306 34.9616 17.5306C34.9709 17.5306 34.9747 17.5424 34.9705 17.5584C34.9663 17.5743 34.9701 17.5865 34.9793 17.5868C34.9946 17.5874 35.058 17.6748 35.058 17.6952C35.058 17.7006 35.0735 17.7165 35.0925 17.7308C35.1115 17.7451 35.1236 17.7623 35.1194 17.7691C35.1152 17.7759 35.1341 17.8032 35.1614 17.8297C35.1887 17.8563 35.211 17.8875 35.211 17.8991C35.211 17.9107 35.2173 17.9202 35.225 17.9202C35.2326 17.9202 35.2389 17.9327 35.2389 17.948C35.2389 17.9633 35.2444 17.9759 35.2511 17.9759C35.2578 17.9759 35.2717 17.9962 35.2818 18.0211C35.292 18.046 35.3068 18.0739 35.3148 18.0832C35.3574 18.1329 35.3641 18.143 35.3641 18.158C35.3641 18.167 35.3752 18.1845 35.3887 18.1969C35.4022 18.2092 35.4288 18.2507 35.4478 18.2889C35.4667 18.3272 35.4885 18.3661 35.4962 18.3754C35.5039 18.3847 35.5177 18.4013 35.5268 18.4122C35.5359 18.4231 35.5397 18.4357 35.5352 18.4402C35.5308 18.4446 35.5374 18.4523 35.55 18.4571C35.5625 18.4619 35.5728 18.4777 35.5728 18.4922C35.5728 18.5067 35.5791 18.5185 35.5867 18.5185C35.5944 18.5185 35.6008 18.5326 35.601 18.5498C35.6011 18.5671 35.6135 18.5968 35.6285 18.6159C35.6434 18.6351 35.6558 18.6617 35.656 18.6751C35.6562 18.6885 35.6616 18.6994 35.668 18.6994C35.6849 18.6994 35.712 18.7644 35.712 18.8049C35.712 18.8239 35.7214 18.843 35.7328 18.8474C35.7457 18.8524 35.7537 18.8735 35.7537 18.9027C35.7537 18.9286 35.7599 18.9499 35.7676 18.9499C35.7752 18.9499 35.7815 18.965 35.7815 18.9835C35.7815 19.002 35.7893 19.0197 35.7989 19.0229C35.8122 19.0273 35.8163 19.1116 35.8163 19.3812C35.8163 19.6508 35.8122 19.7351 35.7989 19.7395C35.7894 19.7427 35.7815 19.7573 35.7815 19.772C35.7815 19.7869 35.7719 19.7986 35.7597 19.7986C35.7443 19.7986 35.7405 19.8068 35.7468 19.8265C35.753 19.8462 35.7493 19.8543 35.7338 19.8543C35.7209 19.8543 35.712 19.8663 35.712 19.8835C35.712 19.8996 35.6932 19.9303 35.6702 19.9517C35.6473 19.9731 35.6283 19.996 35.6281 20.0025C35.6274 20.0208 35.5473 20.1048 35.5305 20.1048C35.5222 20.1048 35.5194 20.111 35.5241 20.1187C35.5289 20.1263 35.5234 20.1326 35.512 20.1326C35.5006 20.1326 35.4873 20.1451 35.4824 20.1604C35.4776 20.1757 35.4646 20.1883 35.4536 20.1883C35.4427 20.1883 35.4337 20.1945 35.4337 20.2022C35.4337 20.2098 35.4212 20.2161 35.4059 20.2161C35.3906 20.2161 35.378 20.2223 35.378 20.23C35.378 20.2376 35.367 20.2439 35.3536 20.2439C35.3401 20.2439 35.3122 20.2596 35.2915 20.2787C35.2709 20.2978 35.2475 20.3135 35.2395 20.3135C35.2316 20.3135 35.225 20.3197 35.225 20.3274C35.225 20.335 35.2031 20.3413 35.1763 20.3413C35.1495 20.3413 35.1276 20.3476 35.1276 20.3552C35.1276 20.3629 35.1025 20.3691 35.0719 20.3691C35.0413 20.3691 35.0163 20.3739 35.0163 20.3797C35.0163 20.3855 34.9959 20.3984 34.971 20.4084C34.9462 20.4184 34.9149 20.4325 34.9017 20.4396C34.8884 20.4468 34.8638 20.4526 34.847 20.4526C34.8302 20.4526 34.7972 20.4587 34.7737 20.4661C34.7502 20.4735 34.7135 20.483 34.6922 20.4873C34.6708 20.4917 34.6571 20.5013 34.6617 20.5087C34.6663 20.5162 34.654 20.5222 34.6344 20.5222C34.6149 20.5222 34.5988 20.5284 34.5988 20.5361C34.5988 20.5437 34.5774 20.55 34.5513 20.55C34.5251 20.55 34.5011 20.5578 34.4979 20.5674C34.4894 20.593 28.6416 20.593 28.633 20.5674C28.6298 20.5579 28.6058 20.55 28.5797 20.55C28.5535 20.55 28.5321 20.5438 28.5321 20.5361C28.5321 20.5285 28.5067 20.5222 28.4757 20.5222C28.4446 20.5222 28.4227 20.5166 28.4269 20.5098C28.4367 20.4939 28.4021 20.4805 28.3514 20.4805C28.3133 20.4805 28.196 20.4285 28.1866 20.4074C28.1841 20.4017 28.17 20.397 28.1553 20.397C28.1406 20.397 28.1286 20.3907 28.1286 20.3831C28.1286 20.3754 28.1036 20.3691 28.073 20.3691C28.0424 20.3691 28.0173 20.3629 28.0173 20.3552C28.0173 20.3476 27.9923 20.3413 27.9617 20.3413C27.931 20.3413 27.906 20.3351 27.906 20.3274C27.906 20.3198 27.8935 20.3135 27.8782 20.3135C27.8629 20.3135 27.8503 20.3077 27.8503 20.3008C27.8503 20.2844 27.7134 20.2161 27.6806 20.2161C27.6668 20.2161 27.6555 20.2098 27.6555 20.2022C27.6555 20.1945 27.6444 20.1882 27.6308 20.1882C27.6172 20.1882 27.597 20.1757 27.586 20.1604C27.5749 20.1451 27.5579 20.1326 27.5481 20.1326C27.5383 20.1326 27.5303 20.1264 27.5303 20.1187C27.5303 20.111 27.5146 20.1048 27.4955 20.1048C27.4764 20.1048 27.4607 20.0988 27.4607 20.0915C27.4607 20.0842 27.4388 20.0678 27.412 20.0551C27.3852 20.0424 27.3633 20.0265 27.3633 20.0197C27.3633 20.0129 27.3539 20.0074 27.3425 20.0074C27.331 20.0074 27.3216 20.0011 27.3216 19.9934C27.3216 19.9858 27.3091 19.9795 27.2938 19.9795C27.2785 19.9795 27.2659 19.9733 27.2659 19.9656C27.2659 19.958 27.2566 19.9517 27.2451 19.9517C27.2337 19.9517 27.1958 19.9235 27.1608 19.8891C27.1259 19.8546 27.0883 19.8265 27.0773 19.8265C27.0662 19.8265 27.0572 19.8202 27.0572 19.8125C27.0572 19.8049 27.0488 19.7986 27.0384 19.7986C27.0281 19.7986 26.9999 19.7798 26.9759 19.7569C26.9519 19.7339 26.9288 19.7151 26.9246 19.7151C26.9204 19.7151 26.8929 19.6917 26.8634 19.663C26.7833 19.585 26.753 19.5621 26.7301 19.5621C26.7187 19.5621 26.7094 19.5559 26.7094 19.5482C26.7094 19.5405 26.6996 19.5343 26.6877 19.5343C26.6757 19.5343 26.6699 19.528 26.6746 19.5203C26.6793 19.5127 26.6734 19.5064 26.6615 19.5064C26.6495 19.5064 26.6413 19.5016 26.6433 19.4957C26.6478 19.4816 26.5196 19.3534 26.501 19.3534C26.4931 19.3534 26.4867 19.3471 26.4867 19.3394C26.4867 19.3318 26.4773 19.3255 26.4659 19.3255C26.4544 19.3255 26.445 19.3191 26.445 19.3112C26.445 19.3034 26.3839 19.2355 26.3093 19.1603C26.2347 19.0852 26.1517 18.9978 26.125 18.9662C26.0982 18.9346 26.0684 18.9086 26.0589 18.9084C26.0493 18.9083 26.0415 18.9023 26.0415 18.8951C26.0415 18.8878 25.9972 18.8378 25.943 18.7837C25.8889 18.7297 25.8479 18.6855 25.8519 18.6855C25.856 18.6855 25.8456 18.6706 25.8287 18.6525C25.8118 18.6343 25.7729 18.5907 25.7423 18.5556C25.7117 18.5204 25.6788 18.4914 25.6693 18.4912C25.6597 18.4909 25.6519 18.4843 25.6519 18.4766C25.6519 18.4564 25.5915 18.3658 25.5778 18.3656C25.5715 18.3655 25.557 18.3561 25.5455 18.3446C25.534 18.3331 25.5287 18.3237 25.5336 18.3237C25.5385 18.3237 25.5332 18.3143 25.5217 18.3028C25.5102 18.2914 25.4941 18.282 25.4859 18.282C25.4777 18.282 25.4726 18.2772 25.4745 18.2713C25.4764 18.2655 25.4373 18.2192 25.3875 18.1685C25.3378 18.1178 25.2862 18.0615 25.2729 18.0435C25.2323 17.9883 25.1472 17.893 25.0849 17.8329C25.0524 17.8015 25.0257 17.7705 25.0257 17.764C25.0257 17.7576 25.0054 17.7316 24.9805 17.7062C24.9231 17.6476 24.8727 17.5881 24.8727 17.5789C24.8727 17.5717 24.8101 17.5035 24.6953 17.3852C24.6627 17.3518 24.6361 17.3201 24.6361 17.315C24.6361 17.3001 24.5397 17.2106 24.5237 17.2106C24.5158 17.2106 24.5129 17.2047 24.5173 17.1976C24.5262 17.1831 24.462 17.1132 24.4398 17.1132C24.432 17.1132 24.4296 17.1069 24.4343 17.0993C24.4391 17.0916 24.4359 17.0853 24.4272 17.0853C24.4106 17.0853 24.3717 17.0515 24.3717 17.037C24.3717 17.0322 24.3576 17.0134 24.3404 16.9951C24.3232 16.9768 24.2935 16.9429 24.2743 16.9197C24.2552 16.8965 24.2313 16.8773 24.2213 16.877C24.2113 16.8768 24.207 16.8704 24.2117 16.8627C24.2165 16.8551 24.2106 16.8488 24.1986 16.8488C24.1867 16.8488 24.1769 16.8433 24.1769 16.8366C24.1769 16.8208 24.0879 16.7236 24.0735 16.7236C24.0595 16.7236 23.9682 16.6246 23.9682 16.6095C23.9682 16.6034 23.9625 16.5983 23.9554 16.5983C23.9483 16.5983 23.918 16.5733 23.888 16.5427C23.858 16.5121 23.8285 16.487 23.8224 16.487C23.8093 16.487 23.7456 16.415 23.7456 16.4001C23.7456 16.3943 23.7362 16.3896 23.7247 16.3896C23.7132 16.3896 23.7038 16.3834 23.7038 16.3757C23.7038 16.3681 23.6945 16.3618 23.683 16.3618C23.6715 16.3618 23.6621 16.3556 23.6621 16.3479C23.6621 16.3402 23.6527 16.334 23.6412 16.334C23.6298 16.334 23.6204 16.3277 23.6204 16.32C23.6204 16.3124 23.611 16.3061 23.5995 16.3061C23.588 16.3061 23.5786 16.2999 23.5786 16.2922C23.5786 16.2846 23.5692 16.2783 23.5578 16.2783C23.5463 16.2783 23.5369 16.2721 23.5369 16.2644C23.5369 16.2568 23.524 16.2505 23.5082 16.2505C23.4925 16.2505 23.4827 16.2455 23.4864 16.2394C23.4902 16.2334 23.4656 16.2099 23.4319 16.1873C23.3981 16.1646 23.3704 16.1414 23.3702 16.1357C23.3701 16.1299 23.3605 16.1252 23.349 16.1252C23.3376 16.1252 23.3282 16.119 23.3282 16.1113C23.3282 16.1037 23.3122 16.0974 23.2926 16.0974C23.2724 16.0974 23.2607 16.0914 23.2656 16.0835C23.2703 16.0759 23.2613 16.0696 23.2455 16.0696C23.2298 16.0696 23.2169 16.0633 23.2169 16.0557C23.2169 16.048 23.205 16.0417 23.1905 16.0417C23.176 16.0417 23.1606 16.0324 23.1562 16.0209C23.1517 16.0094 23.1358 16 23.1207 16C23.1056 16 23.0894 15.9938 23.0847 15.9861C23.0799 15.9785 23.0612 15.9722 23.0429 15.9722C23.0247 15.9722 23.0059 15.9659 23.0012 15.9583C22.9964 15.9506 22.971 15.9443 22.9447 15.9443C22.9184 15.9443 22.8968 15.9381 22.8968 15.9304C22.8968 15.9228 22.8718 15.9165 22.8412 15.9165C22.8105 15.9165 22.7855 15.9103 22.7855 15.9026C22.7855 15.8946 22.7414 15.8887 22.6811 15.8887C22.6208 15.8887 22.5768 15.8946 22.5768 15.9026C22.5768 15.9102 22.5584 15.9165 22.5359 15.9165C22.5134 15.9165 22.4915 15.9221 22.4873 15.9289C22.4831 15.9357 22.4592 15.9448 22.4343 15.9491C22.3201 15.9688 22.2963 15.9775 22.2719 16.0086C22.2575 16.0268 22.2385 16.0417 22.2296 16.0417C22.2207 16.0417 22.2172 16.048 22.222 16.0557C22.2267 16.0633 22.219 16.0696 22.205 16.0696C22.1909 16.0696 22.1704 16.0821 22.1593 16.0974C22.1483 16.1127 22.1316 16.1252 22.1222 16.1252C22.0904 16.1252 21.7976 16.4242 21.7976 16.4567C21.7976 16.4749 21.7889 16.487 21.7759 16.487C21.763 16.487 21.7582 16.4936 21.7641 16.503C21.7695 16.5118 21.7643 16.5261 21.7524 16.5348C21.7221 16.557 21.6805 16.6353 21.6578 16.7131C21.6471 16.7495 21.6335 16.7792 21.6275 16.7792C21.6216 16.7792 21.6167 16.7889 21.6167 16.8007C21.6167 16.8126 21.6023 16.8361 21.5847 16.8529C21.5671 16.8698 21.555 16.8945 21.5579 16.9079C21.5607 16.9213 21.5563 16.9323 21.5481 16.9323C21.5397 16.9323 21.5332 16.9596 21.5332 16.9949C21.5332 17.0293 21.527 17.0575 21.5195 17.0575C21.512 17.0575 21.5016 17.0745 21.4964 17.0953C21.4912 17.1161 21.4754 17.1454 21.4614 17.1605C21.4473 17.1756 21.4358 17.2021 21.4358 17.2193C21.4358 17.2365 21.4296 17.2545 21.4219 17.2593C21.4142 17.264 21.408 17.2925 21.408 17.3227C21.408 17.3528 21.4017 17.3775 21.394 17.3775C21.3863 17.3775 21.3801 17.4144 21.3801 17.4602C21.3801 17.5057 21.3739 17.5467 21.3662 17.5515C21.3586 17.5562 21.3523 17.5757 21.3523 17.5948C21.3523 17.6145 21.3462 17.6259 21.3384 17.621C21.3259 17.6133 21.3176 17.643 21.3233 17.6747C21.3245 17.6812 21.3178 17.6957 21.3085 17.707C21.2992 17.7182 21.2866 17.7817 21.2806 17.8481C21.2745 17.9145 21.263 18.019 21.2551 18.0802C21.2473 18.1414 21.237 18.2322 21.2325 18.282C21.2279 18.3317 21.2186 18.3784 21.2117 18.3856C21.2048 18.3929 21.1992 18.4445 21.1992 18.5004C21.1992 18.5589 21.1933 18.602 21.1853 18.602C21.1764 18.602 21.1714 18.7437 21.1714 18.9994C21.1714 19.2608 21.1667 19.3938 21.1575 19.3882C21.1486 19.3827 21.1436 19.4293 21.1436 19.518C21.1436 19.6283 21.1393 19.6581 21.1227 19.6645C21.1112 19.6689 21.1018 19.6884 21.1018 19.7077C21.1018 19.7271 21.0956 19.743 21.0879 19.743C21.0803 19.743 21.074 19.7555 21.074 19.7708C21.074 19.7861 21.0678 19.7986 21.0601 19.7986C21.0525 19.7986 21.0462 19.8174 21.0462 19.8404C21.0462 19.8633 21.0399 19.8821 21.0323 19.8821C21.0246 19.8821 21.0183 19.904 21.0183 19.9308C21.0183 19.9576 21.0121 19.9795 21.0044 19.9795C20.9968 19.9795 20.9905 19.9896 20.9905 20.0019C20.9905 20.0142 20.9745 20.0368 20.955 20.0522C20.9355 20.0675 20.9226 20.0832 20.9263 20.087C20.9347 20.0953 20.9132 20.1227 20.8596 20.1719C20.8373 20.1924 20.795 20.2326 20.7657 20.2613C20.7363 20.29 20.706 20.3135 20.6983 20.3135C20.6907 20.3135 20.6844 20.3197 20.6844 20.3274C20.6844 20.335 20.6687 20.3413 20.6496 20.3413C20.6305 20.3413 20.6148 20.3475 20.6148 20.3552C20.6148 20.3628 20.596 20.3691 20.5731 20.3691C20.5501 20.3691 20.5313 20.3754 20.5313 20.383C20.5313 20.3907 20.5219 20.397 20.5103 20.397C20.4987 20.397 20.4768 20.4032 20.4616 20.4109C20.4464 20.4185 20.4215 20.4311 20.4063 20.4387C20.3911 20.4463 20.3661 20.4526 20.3506 20.4526C20.3352 20.4526 20.3226 20.4589 20.3226 20.4665C20.3226 20.4742 20.313 20.4805 20.3013 20.4805C20.2896 20.4805 20.2764 20.4898 20.272 20.5013C20.2676 20.5128 20.2518 20.5222 20.2368 20.5222C20.2219 20.5222 20.2135 20.5284 20.2183 20.5361C20.2235 20.5446 20.2026 20.55 20.1646 20.55C20.1301 20.55 20.0999 20.5572 20.097 20.566C20.093 20.5778 19.7759 20.5826 18.8748 20.5844C18.2056 20.5857 17.4996 20.5848 17.306 20.5822Z" fill="#F2F2F2"/>
</svg>
