<svg width="28" height="27" viewBox="0 0 28 27" fill="none" xmlns="http://www.w3.org/2000/svg">
<path d="M14.0566 0.0727539C6.64642 0.0727539 0.615839 6.04258 0.613226 13.3793C0.611484 15.7255 1.23161 18.0154 2.40742 20.0322L0.5 26.9276L7.62713 25.0773C9.60964 26.1431 11.814 26.6991 14.0514 26.6975H14.0566C21.4668 26.6975 27.4974 20.7268 27.5 13.3901C27.5017 9.83628 26.1047 6.49106 23.5658 3.97655C21.0278 1.46115 17.6528 0.0736491 14.0566 0.0727539ZM14.0566 24.4498H14.0523C12.0473 24.4498 10.0806 23.9163 8.36484 22.9083L7.95548 22.6684L3.72781 23.7659L4.85658 19.6839L4.59094 19.2659C3.47514 17.5169 2.88117 15.4708 2.8821 13.3793C2.88471 7.28059 7.898 2.3205 14.061 2.3205C17.0449 2.3214 19.8503 3.47347 21.9606 5.56367C24.071 7.65388 25.232 10.4334 25.2303 13.3892C25.2276 19.4879 20.2152 24.4498 14.0557 24.4498H14.0566ZM20.1856 16.1651C19.8494 15.9995 18.1981 15.1947 17.8897 15.0828C17.5823 14.9727 17.3585 14.9154 17.1346 15.2484C16.9116 15.5814 16.2671 16.3307 16.072 16.5518C15.8752 16.7738 15.6792 16.8006 15.343 16.635C15.0068 16.4685 13.9242 16.1176 12.6422 14.9844C11.6432 14.1035 10.969 13.015 10.7731 12.6811C10.5771 12.349 10.7522 12.1691 10.9203 12.0035C11.0709 11.8558 11.2565 11.6159 11.4237 11.4216C11.5909 11.2274 11.6466 11.0886 11.7599 10.8666C11.8714 10.6455 11.8156 10.4504 11.7311 10.2848C11.6466 10.1174 10.976 8.481 10.6947 7.8159C10.4229 7.1678 10.146 7.25463 9.93955 7.24389C9.74358 7.23494 9.52061 7.23225 9.29503 7.23225C9.07293 7.23225 8.708 7.3155 8.39968 7.6485C8.09223 7.9815 7.22387 8.78536 7.22387 10.4217C7.22387 12.059 8.42755 13.6398 8.59564 13.8618C8.76374 14.0829 10.9647 17.4425 14.3345 18.8837C15.1357 19.2247 15.7611 19.4297 16.2497 19.5837C17.0545 19.837 17.787 19.8003 18.3653 19.7153C19.0098 19.6195 20.3528 18.9114 20.6315 18.1353C20.912 17.3592 20.912 16.6932 20.8284 16.5545C20.7465 16.4157 20.5218 16.3325 20.1856 16.1651V16.1651Z" fill="#F2F2F2"/>
</svg>
