<svg width="1400" height="219" viewBox="0 0 1400 219" fill="none" xmlns="http://www.w3.org/2000/svg">
<path d="M0 0H1400V219H0V0Z" fill="#E9E9F1"/>
<path d="M116.221 130.589C116.507 130.061 119.969 123.806 120.789 122.337C121.134 121.717 121.613 120.852 121.852 120.415C122.091 119.978 122.721 118.837 123.253 117.879C123.785 116.921 124.443 115.734 124.715 115.24C124.987 114.747 125.733 113.397 126.373 112.242C127.014 111.086 127.76 109.735 128.032 109.24C128.304 108.745 129.021 107.452 129.625 106.366C130.229 105.28 131.073 103.759 131.501 102.987C132.229 101.669 132.295 101.582 132.555 101.582C132.814 101.582 136.905 102.064 138.59 102.293C139.001 102.349 139.97 102.467 140.743 102.556C142.651 102.776 142.745 102.796 142.688 102.968C142.662 103.047 142.466 103.425 142.252 103.808C142.038 104.19 140.759 106.486 139.41 108.91C138.061 111.334 135.139 116.582 132.918 120.572C130.696 124.562 128.528 128.46 128.101 129.233C127.674 130.006 127.262 130.72 127.186 130.819C127.058 130.986 126.675 130.998 121.525 130.998H116L116.221 130.589ZM148.082 117.162V103.325H148.291C148.406 103.325 149.286 103.393 150.247 103.477C151.207 103.561 152.547 103.676 153.224 103.733C153.901 103.789 155.097 103.89 155.883 103.955L157.311 104.075V112.156V120.236L174.208 120.234L191.105 120.233L191.453 120.003C192.006 119.637 192.32 119.028 192.363 118.234C192.419 117.212 192.119 116.51 191.468 116.143C191.073 115.92 190.671 115.866 186.49 115.475C185.548 115.386 184.322 115.268 183.766 115.211C182.62 115.095 174.465 114.316 170.363 113.932C166.845 113.603 166.391 113.537 165.441 113.215C161.622 111.923 159.372 109.316 158.36 105.016C158.258 104.584 158.188 104.218 158.204 104.204C158.246 104.167 160.652 104.378 166.847 104.964C167.427 105.019 168.693 105.136 169.659 105.224C172.02 105.438 174.44 105.661 175.724 105.783C176.304 105.838 177.54 105.953 178.47 106.039C179.401 106.124 180.924 106.264 181.854 106.35C183.698 106.519 184.554 106.6 187.809 106.915C188.993 107.029 190.457 107.167 191.061 107.221C192.534 107.352 192.824 107.399 193.697 107.644C194.638 107.908 195.889 108.612 196.76 109.368C198.48 110.86 200.157 113.554 200.858 115.953L201.076 116.7L201.078 109.192L201.08 101.685H201.421C201.609 101.685 202.548 101.753 203.509 101.837C207.163 102.157 210.096 102.402 210.284 102.402L210.479 102.402L210.505 110.063C210.528 117.208 210.541 117.758 210.691 118.211C210.916 118.889 211.536 119.656 212.137 120L212.638 120.287H221.383C230.089 120.287 230.13 120.286 230.528 120.071C231.172 119.724 231.579 119.234 231.923 118.391L232.237 117.622L232.262 110.874L232.286 104.126L233.009 104.188C233.406 104.223 234.463 104.298 235.357 104.356C236.252 104.414 237.933 104.527 239.093 104.608C240.253 104.689 241.293 104.756 241.405 104.757L241.608 104.759L241.573 113.19C241.535 122.354 241.546 122.133 241.023 123.823C240.539 125.387 239.926 126.486 238.924 127.588C237.472 129.184 235.598 130.276 233.427 130.792C232.587 130.992 232.231 130.998 221.369 130.996C214.301 130.995 209.95 130.956 209.562 130.89C208.846 130.77 207.332 130.188 206.573 129.742C203.927 128.186 202.068 125.416 201.295 121.877C201.178 121.341 201.077 120.695 201.07 120.441C201.059 119.988 201.057 119.991 200.982 120.593C200.546 124.087 198.928 127.16 196.554 129.002C195.714 129.654 194.837 130.137 193.638 130.608L192.775 130.947L170.428 130.973L148.082 131L148.082 117.162ZM241.686 125.618V120.238L258.451 120.212L275.216 120.185L275.725 119.945C276.118 119.76 276.289 119.608 276.472 119.279C276.684 118.899 276.71 118.756 276.71 117.973C276.71 117.162 276.691 117.064 276.456 116.706C276.056 116.093 275.651 115.945 273.922 115.776C270.574 115.448 268.041 115.203 266.998 115.106C264.606 114.885 255.208 113.981 254.298 113.885C253.766 113.829 252.758 113.732 252.057 113.67C250.501 113.533 249.738 113.36 248.639 112.896C247.565 112.442 246.697 111.896 245.837 111.131C245.088 110.465 244.067 109.259 243.648 108.548C243.181 107.754 242.622 106.358 242.34 105.282L242.222 104.831L243.382 104.898C244.883 104.986 249.331 105.289 254.166 105.635C255.351 105.719 257.012 105.833 257.858 105.888C258.704 105.942 259.989 106.033 260.714 106.09C261.439 106.147 263.061 106.264 264.318 106.349C265.574 106.435 267.196 106.551 267.921 106.606C268.646 106.662 270.189 106.778 271.349 106.863C277.229 107.296 278.031 107.427 279.442 108.187C281.896 109.509 284.092 112.434 285.081 115.697C285.316 116.473 285.323 116.556 285.323 118.699C285.323 121.156 285.253 121.678 284.699 123.354C283.37 127.367 280.815 129.919 277.245 130.798C276.473 130.988 275.859 130.995 259.066 130.996L241.686 130.998V125.618ZM132.809 100.634C132.879 100.507 133.601 99.1581 134.414 97.6361C136.531 93.6699 137.471 92.0525 138.044 91.3912C138.592 90.7578 139.328 90.2932 140.067 90.1135C140.388 90.0353 143.184 90.0002 149.097 90.0002H157.662V94.8892C157.662 97.6739 157.695 99.7363 157.739 99.6808C157.781 99.6273 157.887 99.3067 157.975 98.9685C158.208 98.0741 158.824 96.4502 159.243 95.6284C159.443 95.2361 159.967 94.4745 160.409 93.9359C161.78 92.2635 163.208 91.1566 164.738 90.5814C166.361 89.9709 165.432 90.0002 183.116 90.0002H199.322V95.4324V100.865H166.002H132.681L132.809 100.634ZM201.052 100.797C201.019 100.759 200.992 98.3142 200.992 95.3641V90.0002H205.739H210.486L210.463 95.4068L210.441 100.813L205.776 100.84C203.21 100.854 201.084 100.835 201.052 100.797ZM232.164 100.796C232.132 100.759 232.106 98.3142 232.106 95.3641V90.0002H236.852H241.598V95.4324V100.865H236.91C234.332 100.865 232.196 100.834 232.164 100.796ZM241.686 100.34C241.686 99.3914 242.538 96.792 243.312 95.3812C243.716 94.6444 245.199 92.8889 245.986 92.2155C247.2 91.1767 248.456 90.5405 249.973 90.1957C250.801 90.0074 251.472 90.0002 268.189 90.0002H285.545L285.522 95.4068L285.499 100.813L263.592 100.839L241.686 100.865L241.686 100.34ZM290.992 99.5969C290.352 99.3787 289.846 99.0302 289.318 98.4431C287.692 96.6344 287.674 93.7649 289.277 91.8947C290.813 90.1034 293.096 90.0561 294.741 91.7813C295.489 92.5657 296.005 93.9706 296 95.2069C295.992 96.9193 295.032 98.613 293.652 99.3478C293.147 99.617 292.932 99.6696 292.223 99.6981C291.707 99.7189 291.237 99.6802 290.992 99.5969ZM293.003 99.2366C293.73 98.9728 294.217 98.6208 294.715 98.0003C295.321 97.2442 295.575 96.5149 295.627 95.3812C295.663 94.6151 295.638 94.3472 295.479 93.801C295.038 92.2878 294.074 91.2889 292.739 90.9644C290.752 90.4812 288.813 92.0637 288.427 94.4833C287.959 97.4196 290.561 100.123 293.003 99.2366ZM290.611 97.824C290.579 97.7864 290.553 96.6564 290.553 95.3129V92.8701H291.698C292.909 92.8701 293.268 92.9648 293.574 93.3642C293.918 93.8147 293.832 94.818 293.416 95.2211C293.294 95.3393 293.303 95.3865 293.498 95.6571C293.678 95.9062 293.717 96.07 293.717 96.571C293.717 96.9067 293.774 97.3414 293.844 97.5369L293.972 97.8923H293.626C293.229 97.8923 293.216 97.8614 293.167 96.7268C293.126 95.7953 293.057 95.7399 291.942 95.7399H291.08V96.8161C291.08 97.8752 291.077 97.8923 290.875 97.8923C290.762 97.8923 290.644 97.8616 290.611 97.824ZM292.987 94.9711C293.231 94.7718 293.324 94.2722 293.187 93.8887C293.049 93.4985 292.647 93.3591 291.783 93.4015L291.124 93.4338L291.099 94.2794L291.073 95.1249H291.936C292.561 95.1249 292.851 95.0825 292.987 94.9711Z" fill="#8C8D9D"/>
<path d="M390.881 130.501C384.817 128.88 381.904 124.057 381.904 115.64C381.904 108.574 383.94 104.381 388.474 102.109C390.658 101.014 393.029 100.579 396.807 100.579C405.702 100.579 410.125 104.214 411.211 112.417C411.975 118.19 410.72 124.139 408.084 127.241C407.028 128.483 404.347 129.966 402.066 130.57C399.789 131.174 393.244 131.133 390.881 130.501ZM399.354 125.696C400.136 125.48 401.253 124.761 402.067 123.952C404.03 121.998 404.616 119.814 404.461 115.023C404.356 111.788 404.227 111.103 403.404 109.433C402.043 106.671 400.304 105.707 396.694 105.715C392.024 105.725 389.989 107.479 388.98 112.363C388.015 117.035 389.231 122.748 391.56 124.477C393.531 125.942 396.68 126.435 399.354 125.696ZM451.078 130.582C444.685 128.85 441.776 124.177 441.776 115.64C441.776 105.247 446.348 100.579 456.527 100.579C460.509 100.579 462.865 101.065 465.271 102.385C467.737 103.738 469.487 105.975 470.46 109.019C471.531 112.366 471.531 119.244 470.46 122.591C469.13 126.752 466.294 129.416 461.978 130.56C459.816 131.132 453.16 131.146 451.078 130.582ZM460.799 124.979C462.782 123.823 463.948 121.629 464.415 118.18C464.849 114.966 464.403 111.483 463.266 109.214C461.169 105.027 454.214 104.267 450.945 107.867C449.22 109.768 448.653 112.071 448.799 116.588C448.904 119.813 449.035 120.51 449.848 122.16C451.266 125.038 453.362 126.127 457.123 125.939C458.764 125.857 459.723 125.606 460.799 124.979ZM553.327 130.685C549.813 130.228 546.967 128.683 545.342 126.348C543.82 124.163 543.561 121.954 543.553 111.088L543.547 101.241H546.689H549.832L549.932 111.81C550.047 123.874 549.968 123.533 553.015 125.052C555.836 126.459 560.463 125.868 562.237 123.876C563.265 122.721 563.488 120.405 563.496 110.757L563.503 101.241H566.512H569.522L569.423 112.578C569.327 123.477 569.296 123.966 568.603 125.239C567.627 127.034 565.645 128.876 563.834 129.671C563.01 130.033 561.068 130.487 559.518 130.68C556.427 131.066 556.265 131.066 553.327 130.685ZM361.24 130.359C358.397 130.028 356.092 128.843 354.184 126.731C351.936 124.243 351.223 122.103 351.04 117.295C350.868 112.779 351.233 110.299 352.476 107.543C353.556 105.149 355.204 103.53 357.777 102.334C359.757 101.413 359.833 101.405 367.506 101.301L375.24 101.197V103.701V106.206H369.076C362.265 106.206 361.339 106.4 359.871 108.137C358.44 109.829 357.823 112.225 357.811 116.136C357.798 120.265 358.29 122.174 359.735 123.613C361.264 125.134 362.693 125.401 369.336 125.403L375.24 125.405V128.053V130.701L369.336 130.658C366.089 130.634 362.446 130.499 361.24 130.359ZM427.061 130.355C423.143 129.901 420.224 127.752 418.917 124.359C418.453 123.155 418.341 121.166 418.225 112.081L418.087 101.241H421.26H424.433L424.534 111.809C424.63 121.955 424.662 122.416 425.334 123.312C426.804 125.273 427.792 125.559 433.532 125.688L438.771 125.805V128.253V130.701L434.031 130.657C431.424 130.634 428.287 130.498 427.061 130.355ZM478.685 115.971V101.241H488.319C497.236 101.241 498.089 101.291 499.786 101.923C503.255 103.215 504.884 106.245 504.555 110.794C504.302 114.307 502.466 116.997 499.67 117.954L498.694 118.288L502.315 124.246C504.307 127.523 505.942 130.316 505.948 130.453C505.954 130.589 504.403 130.701 502.499 130.701H499.037L495.763 124.911L492.489 119.122L488.747 119.119L485.005 119.115V124.908V130.701H481.845H478.685V115.971ZM495.325 113.455C496.674 113.168 497.167 112.874 497.688 112.049C498.504 110.756 498.362 108.428 497.41 107.48C496.537 106.611 493.316 106.159 488.83 106.276L485.171 106.371L485.075 109.658C485.023 111.466 485.055 113.141 485.148 113.382C485.363 113.939 492.808 113.993 495.325 113.455ZM513.024 120.026C513.142 110.655 513.234 109.149 513.776 107.698C514.647 105.367 517.235 102.882 519.598 102.109C521.756 101.402 526.751 100.95 532.653 100.926L536.894 100.91V103.528V106.146L530.325 106.259C524.046 106.366 523.689 106.408 522.259 107.199C520.514 108.163 519.265 110.265 519.265 112.234V113.488H528.08H536.894V115.971V118.453H528.08H519.265V124.577V130.701H516.077H512.89L513.024 120.026ZM585.091 130.359C582.477 130.055 580.734 129.224 579.091 127.502C576.599 124.889 576.654 125.212 576.539 112.578L576.436 101.241H579.45H582.463L582.47 110.757C582.474 116.114 582.629 120.925 582.823 121.764C583.548 124.897 585.558 125.736 592.335 125.736H596.765V128.218V130.701L592.025 130.657C589.418 130.634 586.299 130.499 585.091 130.359ZM598.503 98.8843C596.399 97.8476 595.314 95.8496 595.496 93.3447C595.734 90.0825 597.987 88 601.281 88C606.593 88 608.99 94.4922 605.031 98.1567C603.33 99.7307 600.795 100.013 598.503 98.8843ZM603.301 98.238C607.192 96.3637 607.217 91.2878 603.345 89.3762C601.362 88.3975 599.546 88.6186 597.924 90.0363C595.116 92.4897 595.787 96.7376 599.228 98.2928C600.976 99.083 601.563 99.0751 603.301 98.238ZM598.762 93.7928V90.6481H600.613C601.631 90.6481 602.754 90.8023 603.108 90.9908C603.965 91.4476 603.929 92.8034 603.043 93.421L602.336 93.9143L603.376 95.1703C604.526 96.5591 604.648 96.9374 603.945 96.9374C603.686 96.9374 603 96.3416 602.421 95.6134C601.712 94.7234 601.103 94.2893 600.563 94.2893C599.847 94.2893 599.76 94.434 599.76 95.6134C599.76 96.5696 599.621 96.9374 599.261 96.9374C598.852 96.9374 598.762 96.3673 598.762 93.7928ZM602.338 92.9145C603.025 92.2313 602.206 91.3102 600.912 91.3102C599.853 91.3102 599.76 91.3909 599.76 92.3032C599.76 93.206 599.86 93.2962 600.857 93.2962C601.461 93.2962 602.128 93.1245 602.338 92.9145Z" fill="#8C8D9D"/>
<path d="M674.783 130.802C666.556 129.528 660.811 121.627 662.21 113.512C662.735 110.472 664.058 107.912 666.297 105.605C668.148 103.698 670.626 102.232 673.034 101.619C674.822 101.163 675.813 101.116 682.795 101.152L689.578 101.187L689.611 104.379L689.644 107.571H684.182C678.301 107.571 677.418 107.64 675.771 108.236C672.666 109.358 670.717 112 670.512 115.365C670.418 116.897 670.668 118.094 671.376 119.505C672.077 120.902 673.595 122.421 675.03 123.159C676.422 123.876 677.277 124.052 679.379 124.054C681.921 124.056 681.674 124.637 681.674 118.659V113.768H685.782H689.889V122.382V130.997L682.888 130.984C677.604 130.975 675.616 130.931 674.783 130.802ZM722.437 130.857C720.354 130.597 718.119 129.754 716.243 128.52C711.052 125.106 708.395 118.805 709.678 112.95C711.005 106.896 715.947 102.213 721.964 101.31C722.927 101.165 724.63 101.127 730.06 101.126L736.937 101.125V104.339V107.553L730.994 107.603C725.393 107.651 724.997 107.669 724.117 107.917C720.183 109.029 717.894 111.953 717.894 115.869C717.894 117.201 718.102 118.168 718.628 119.283C719.653 121.46 721.839 123.255 724.197 123.859C724.719 123.993 725.523 124.055 726.724 124.055C728.428 124.055 728.495 124.046 728.79 123.751L729.096 123.447V118.607V113.768H733.206H737.315L737.282 122.351L737.248 130.934L730.278 130.95C726.445 130.959 722.916 130.917 722.437 130.857ZM740.483 130.781C740.532 130.661 743.099 123.912 746.187 115.782L751.802 101.001H756.683H761.563L761.96 102.024C764.975 109.795 773.032 130.794 773.032 130.881C773.032 130.95 771.299 130.997 768.693 130.997H764.353L763.237 127.805L762.12 124.613L756.6 124.581C753.113 124.561 751.034 124.594 750.957 124.67C750.89 124.737 750.325 126.174 749.701 127.863L748.567 130.935L744.481 130.967C740.619 130.998 740.399 130.988 740.483 130.781ZM760.19 118.804C760.027 118.118 756.665 107.22 756.627 107.257C756.511 107.373 752.785 118.849 752.844 118.908C752.88 118.944 754.557 118.974 756.57 118.974C759.602 118.974 760.224 118.945 760.19 118.804ZM777.015 115.999V101.001L784.203 101.002C793.155 101.004 794.056 101.09 796.37 102.169C799.053 103.421 800.435 105.593 800.445 108.572C800.448 109.294 800.379 110.186 800.293 110.555C799.822 112.577 798.566 114.071 796.48 115.09L795.221 115.705L796.083 115.926C797.936 116.401 799.742 117.648 800.441 118.933C801.026 120.009 801.217 120.884 801.208 122.444C801.18 127.402 798.047 130.258 791.969 130.867C791.246 130.94 787.682 130.996 783.848 130.996H777.015V115.999ZM789.839 125.12C792.207 124.699 793.218 123.714 793.218 121.825C793.218 120.494 792.737 119.609 791.714 119.054C790.777 118.546 789.652 118.364 787.213 118.326L785.043 118.292L785.01 121.794L784.977 125.295L786.939 125.291C788.018 125.289 789.324 125.211 789.839 125.12ZM789.769 112.585C791.623 112.08 792.449 111.185 792.449 109.679C792.449 108.301 791.839 107.496 790.461 107.057C789.799 106.846 789.215 106.786 787.315 106.734L784.981 106.671V109.804V112.937L787.003 112.862C788.261 112.815 789.307 112.711 789.769 112.585ZM811.99 125.315V119.631L806.562 110.477C803.577 105.442 801.106 101.25 801.072 101.162C801.022 101.032 801.892 101.001 805.573 101.001H810.136L812.305 105.433C813.498 107.87 814.825 110.574 815.254 111.443L816.035 113.023L818.912 107.043L821.789 101.063L826.363 101.031C830.651 101 830.931 101.012 830.854 101.212C830.809 101.33 828.367 105.515 825.427 110.512L820.083 119.598L820.05 125.266L820.018 130.935L816.004 130.967L811.99 131L811.99 125.315ZM841.613 118.974V106.951H837.941H834.269V103.976V101L845.627 101.032L856.984 101.063L857.018 104.005L857.051 106.947L853.346 106.98L849.641 107.013L849.609 119.005L849.577 130.997H845.595H841.613L841.613 118.974ZM860.781 115.998V101L871.329 101.032L881.877 101.063L881.911 103.883L881.944 106.703H875.345H868.746V109.802V112.9H874.972H881.197L881.164 115.72L881.131 118.54L874.938 118.572L868.746 118.604V121.95V125.295H875.53H882.313V128.146V130.996H871.547H860.781L860.781 115.998ZM696.818 130.79C696.772 130.745 696.735 124.023 696.735 115.854V101.001H700.718H704.701V115.937V130.873H700.801C698.656 130.873 696.863 130.835 696.818 130.79ZM887.541 104.286V101.869H886.669H885.798V101.497V101.125H887.984H890.171L890.132 101.466C890.093 101.798 890.069 101.808 889.221 101.843L888.35 101.878L888.386 104.291L888.422 106.703H887.981H887.541L887.541 104.286ZM890.901 103.914V101.125H891.57H892.239L893.082 103.363C893.545 104.594 893.965 105.556 894.014 105.501C894.063 105.446 894.457 104.439 894.89 103.263L895.677 101.125H896.338H897V103.914V106.703H896.627H896.253V104.385C896.253 103.057 896.207 102.118 896.145 102.185C896.085 102.25 895.697 103.195 895.282 104.286C894.868 105.377 894.491 106.367 894.444 106.486C894.388 106.631 894.225 106.703 893.957 106.703H893.555L892.741 104.565C892.293 103.389 891.878 102.315 891.818 102.179C891.751 102.024 891.697 102.829 891.676 104.317L891.643 106.703H891.272H890.901L890.901 103.914Z" fill="url(#paint0_linear_471_110)"/>
<path d="M952.087 130.728C952.134 130.578 952.942 128.055 953.881 125.121C954.821 122.187 955.981 118.562 956.459 117.065C956.937 115.568 958.358 111.126 959.616 107.194L961.903 100.046L962.761 100.057C964.827 100.086 966.6 100.695 967.937 101.837C968.885 102.647 969.458 103.485 969.761 104.509C969.827 104.729 969.886 104.92 969.894 104.934C969.902 104.948 970.335 104.677 970.857 104.332C974.645 101.82 978.224 100.43 981.822 100.075C982.778 99.9803 984.818 100.025 985.596 100.158C987.556 100.491 989.13 101.359 990.261 102.731C990.72 103.288 990.984 103.779 991.175 104.437C991.251 104.696 991.319 104.918 991.328 104.93C991.336 104.941 991.824 104.638 992.412 104.256C994.507 102.894 996.055 102.082 997.888 101.384C1000.39 100.433 1002.51 100.012 1004.84 100.01C1007.48 100.008 1009.35 100.578 1010.82 101.838C1012.03 102.867 1012.65 103.984 1012.87 105.538C1012.98 106.358 1012.92 108.098 1012.75 108.769C1012.67 109.057 1011.07 114.103 1009.19 119.983C1007.31 125.863 1005.76 130.747 1005.73 130.837L1005.69 131H1000.29H994.883L995.131 130.22C995.267 129.791 996.105 127.17 996.992 124.395C1001.48 110.382 1001.27 111.039 1001.38 110.444C1001.5 109.791 1001.5 109.203 1001.37 108.714C1001.23 108.186 1000.76 107.645 1000.22 107.406C999.875 107.249 999.743 107.233 998.784 107.232C997.592 107.23 996.931 107.359 995.753 107.823C994.332 108.382 993.564 108.981 992.124 110.653C990.528 112.506 989.674 113.978 989.035 115.976C988.876 116.475 987.92 119.464 986.911 122.617C985.902 125.771 984.887 128.947 984.655 129.675L984.234 131H978.838H973.443L973.528 130.728C973.575 130.578 973.975 129.329 974.415 127.952C978.634 114.771 979.806 111.069 979.916 110.575C980.077 109.852 980.053 108.988 979.857 108.501C979.603 107.869 979.065 107.44 978.301 107.259C977.748 107.129 976.293 107.221 975.485 107.437C973.408 107.995 972.384 108.677 970.712 110.617C969.539 111.979 968.678 113.28 968.126 114.525C967.993 114.824 966.738 118.654 965.338 123.035L962.791 131H957.396H952L952.087 130.728ZM1018.5 130.926C1016.45 130.797 1014.23 130.551 1012.58 130.27C1011.1 130.018 1009.79 129.744 1009.79 129.686C1009.79 129.64 1010.24 128.213 1011.1 125.517C1011.12 125.466 1011.41 125.495 1011.98 125.604C1016.1 126.393 1021.65 126.722 1023.99 126.317C1026.37 125.905 1027.69 124.84 1028.01 123.073C1028.12 122.474 1028.07 122.101 1027.81 121.6C1027.35 120.693 1025.63 119.44 1022.73 117.903C1019.46 116.162 1018.23 115.288 1017.4 114.101C1016.24 112.451 1016.01 110.478 1016.74 108.336C1017.56 105.935 1019.23 104.18 1022.37 102.44C1024.35 101.342 1025.76 100.826 1027.78 100.455C1030.75 99.9106 1036.05 99.8625 1040.36 100.341C1042.49 100.578 1046.02 101.19 1046.02 101.323C1046.02 101.469 1044.68 105.56 1044.63 105.55C1044.17 105.449 1042.29 105.13 1041.51 105.02C1037.92 104.513 1033.65 104.368 1031.82 104.691C1029.44 105.11 1028.13 106.17 1027.8 107.936C1027.69 108.537 1027.74 108.908 1028.01 109.417C1028.47 110.32 1030.13 111.528 1033.05 113.091C1036.33 114.84 1037.47 115.636 1038.33 116.774C1039.72 118.62 1039.87 120.993 1038.75 123.48C1037.88 125.406 1036.4 126.861 1033.76 128.386C1031.11 129.92 1029.14 130.526 1025.73 130.858C1024.69 130.96 1019.77 131.006 1018.5 130.926ZM1040.89 130.22C1041.47 128.379 1047.71 108.898 1047.72 108.879C1047.8 108.77 1051.44 108.167 1053.25 107.961C1055.35 107.725 1058.89 107.534 1058.89 107.658C1058.89 107.673 1058.49 108.939 1058 110.47C1057.51 112.002 1056.22 116.014 1055.14 119.388C1054.06 122.761 1052.79 126.753 1052.31 128.26L1051.43 130.999L1046.04 131L1040.65 131L1040.89 130.22ZM1048.93 105.072C1049.05 104.702 1049.36 103.715 1049.63 102.878C1049.9 102.041 1050.14 101.334 1050.17 101.307C1050.3 101.163 1053.52 100.616 1055.62 100.379C1057.69 100.146 1061.32 99.9215 1061.32 100.027C1061.32 100.048 1061.03 100.976 1060.67 102.088C1060.32 103.2 1060 104.193 1059.97 104.296L1059.91 104.481L1058.16 104.568C1055.21 104.716 1052.7 105.005 1050.13 105.495C1049.41 105.631 1048.8 105.743 1048.77 105.743C1048.74 105.743 1048.81 105.441 1048.93 105.072ZM1065.27 102.283C1065.24 102.257 1065.22 101.832 1065.22 101.34V100.445H1064.9C1064.59 100.445 1064.58 100.44 1064.58 100.227V100.009H1065.51H1066.44V100.227C1066.44 100.44 1066.43 100.445 1066.12 100.445H1065.8V101.388V102.332H1065.55C1065.42 102.332 1065.29 102.31 1065.27 102.283ZM1066.82 101.171V100.009H1067.14H1067.45L1067.66 100.554C1067.78 100.853 1067.89 101.098 1067.91 101.097C1067.93 101.097 1068.03 100.86 1068.14 100.571L1068.34 100.046L1068.67 100.024L1069 100.002V101.167V102.332H1068.71H1068.42L1068.42 101.624L1068.42 100.917L1068.25 101.374C1068.09 101.802 1068.07 101.829 1067.89 101.809C1067.72 101.79 1067.68 101.731 1067.52 101.316L1067.34 100.844L1067.34 101.588L1067.34 102.332H1067.08H1066.82L1066.82 101.171Z" fill="#8C8D9D"/>
<path d="M1168.57 130.813C1161.51 129.373 1156.45 122.738 1156.45 114.905C1156.45 110.659 1157.9 106.732 1160.59 103.705C1162.75 101.273 1165.46 99.7123 1168.6 99.0978C1169.89 98.8449 1173.09 98.9141 1174.28 99.2208C1179.54 100.573 1183.55 104.543 1185.15 109.98C1185.68 111.787 1185.8 112.72 1185.8 114.969C1185.8 116.447 1185.74 117.31 1185.59 118.077C1184.98 121.245 1183.76 123.79 1181.72 126.111C1179.44 128.699 1176.78 130.231 1173.52 130.834C1172.27 131.064 1169.74 131.053 1168.57 130.813ZM1173.66 122.585C1175.44 121.612 1176.75 119.801 1177.41 117.399C1177.71 116.317 1177.71 113.5 1177.41 112.411C1176.71 109.834 1175.28 108.046 1173.09 107.03C1172.46 106.738 1170.68 106.639 1169.87 106.85C1167.78 107.396 1165.87 109.405 1165.14 111.835C1164.67 113.385 1164.55 114.852 1164.78 116.342C1165.27 119.627 1166.9 121.943 1169.4 122.937C1170.04 123.192 1170.3 123.224 1171.4 123.178C1172.61 123.129 1172.71 123.104 1173.66 122.585ZM1265.06 130.768C1263.59 130.522 1261.52 129.642 1260.18 128.688C1256.87 126.339 1254.98 123.449 1254.03 119.28C1253.63 117.554 1253.53 114.143 1253.81 112.203C1254.05 110.556 1254.76 108.115 1255.36 106.846C1257.26 102.877 1260.44 100.13 1264.26 99.1562C1265.38 98.8721 1265.55 98.8659 1273.88 98.8212C1279.79 98.7894 1282.37 98.8172 1282.37 98.9105C1282.37 98.9847 1282.05 99.6062 1281.65 100.292C1281.26 100.977 1280.48 102.315 1279.93 103.265C1279.38 104.214 1278.66 105.466 1278.33 106.047L1277.72 107.102H1272.63C1269.49 107.102 1267.28 107.155 1266.87 107.24C1264.58 107.707 1262.75 109.754 1262.08 112.602C1261.8 113.787 1261.81 116.603 1262.09 117.655C1262.6 119.54 1263.68 120.984 1265.26 121.857C1266.69 122.649 1266.47 122.632 1275.02 122.594C1279.31 122.576 1282.87 122.598 1282.94 122.647C1283.03 122.707 1283.02 122.798 1282.91 122.944C1282.82 123.06 1281.74 124.897 1280.5 127.025L1278.26 130.894L1271.94 130.878C1268.47 130.869 1265.37 130.82 1265.06 130.768ZM1201.42 118.934V107.614H1195.96H1190.5L1190.78 107.198C1190.92 106.969 1191.99 105.127 1193.14 103.103L1195.23 99.4243L1208.65 99.4282C1216.34 99.4309 1222.1 99.4812 1222.13 99.5463C1222.17 99.6088 1221.43 101.003 1220.5 102.645C1219.57 104.287 1218.56 106.075 1218.26 106.618L1217.71 107.606L1213.71 107.61L1209.7 107.614V118.934V130.255H1205.56H1201.42V118.934ZM1218.26 130.059C1218.3 129.949 1218.91 128.725 1219.62 127.339C1220.33 125.953 1221.72 123.236 1222.71 121.301C1223.69 119.366 1225.33 116.171 1226.34 114.201C1227.35 112.232 1229.57 107.886 1231.27 104.544C1232.98 101.202 1234.44 98.3326 1234.54 98.1672C1234.7 97.8705 1234.71 97.8808 1235.24 98.9347C1235.85 100.155 1241.33 110.795 1243.65 115.289C1244.51 116.942 1246.42 120.655 1247.91 123.539C1249.39 126.424 1250.76 129.058 1250.94 129.393C1251.11 129.729 1251.26 130.06 1251.26 130.129C1251.26 130.211 1247.3 130.255 1239.95 130.255C1230.3 130.255 1228.65 130.229 1228.7 130.076C1228.74 129.977 1229.21 129.07 1229.76 128.061C1230.3 127.051 1231.18 125.406 1231.72 124.405L1232.69 122.584L1235.84 122.55L1238.98 122.516L1236.92 118.391C1235.79 116.122 1234.82 114.265 1234.78 114.265C1234.74 114.265 1234.23 115.201 1233.64 116.344C1233.05 117.487 1231.37 120.725 1229.9 123.539C1228.43 126.353 1227.05 129.001 1226.83 129.423L1226.44 130.191L1222.32 130.224C1218.62 130.255 1218.2 130.238 1218.26 130.059ZM1124 129.695C1124.03 129.542 1125.4 127.162 1129.77 119.638C1133.84 112.635 1137.21 106.798 1137.25 106.703C1137.27 106.639 1134.53 106.591 1130.86 106.591C1127.33 106.591 1124.43 106.562 1124.43 106.528C1124.43 106.493 1125.23 105.097 1126.21 103.426C1127.19 101.754 1128.16 100.084 1128.37 99.7151L1128.76 99.0435H1139.71C1145.73 99.0435 1150.66 99.0746 1150.66 99.1126C1150.66 99.1506 1150.56 99.3377 1150.45 99.5283C1150.33 99.7189 1149.21 101.659 1147.97 103.84C1146.72 106.021 1143.86 111.044 1141.6 115.002C1139.34 118.96 1137.49 122.227 1137.49 122.261C1137.49 122.296 1138.94 122.332 1140.7 122.341C1142.46 122.351 1145.74 122.394 1147.97 122.437L1152.04 122.516L1149.88 126.194L1147.71 129.871H1135.84C1125.8 129.871 1123.97 129.844 1124 129.695Z" fill="#8C8D9D"/>
<defs>
<linearGradient id="paint0_linear_471_110" x1="662" y1="101" x2="897.232" y2="132.334" gradientUnits="userSpaceOnUse">
<stop stop-color="#CDB4DD"/>
<stop offset="0.385417" stop-color="#9597C2"/>
<stop offset="0.630208" stop-color="#6F85B3"/>
<stop offset="1" stop-color="#4AADA7"/>
</linearGradient>
</defs>
</svg>
